<?xml version="1.0" encoding="UTF-8" standalone="no"?>
<!-- Created with Inkscape (http://www.inkscape.org/) -->

<svg
   xmlns:dc="http://purl.org/dc/elements/1.1/"
   xmlns:cc="http://creativecommons.org/ns#"
   xmlns:rdf="http://www.w3.org/1999/02/22-rdf-syntax-ns#"
   xmlns:svg="http://www.w3.org/2000/svg"
   xmlns="http://www.w3.org/2000/svg"
   xmlns:sodipodi="http://sodipodi.sourceforge.net/DTD/sodipodi-0.dtd"
   xmlns:inkscape="http://www.inkscape.org/namespaces/inkscape"
   width="210mm"
   height="297mm"
   viewBox="0 0 210 297"
   version="1.1"
   id="svg8"
   inkscape:version="0.92.3 (2405546, 2018-03-11)"
   sodipodi:docname="BRAMBORY.svg">
  <defs
     id="defs2" />
  <sodipodi:namedview
     id="base"
     pagecolor="#ffffff"
     bordercolor="#666666"
     borderopacity="1.0"
     inkscape:pageopacity="0.0"
     inkscape:pageshadow="2"
     inkscape:zoom="1.4"
     inkscape:cx="54.020177"
     inkscape:cy="485.74573"
     inkscape:document-units="mm"
     inkscape:current-layer="layer1"
     showgrid="false"
     inkscape:window-width="1920"
     inkscape:window-height="1018"
     inkscape:window-x="-8"
     inkscape:window-y="-8"
     inkscape:window-maximized="1" />
  <metadata
     id="metadata5">
    <rdf:RDF>
      <cc:Work
         rdf:about="">
        <dc:format>image/svg+xml</dc:format>
        <dc:type
           rdf:resource="http://purl.org/dc/dcmitype/StillImage" />
        <dc:title></dc:title>
      </cc:Work>
    </rdf:RDF>
  </metadata>
  <g
     inkscape:label="Vrstva 1"
     inkscape:groupmode="layer"
     id="layer1">
    <path
       style="opacity:1;fill:#c48557;fill-opacity:1;stroke:#000000;stroke-width:1.09372735;stroke-linecap:round;stroke-miterlimit:4;stroke-dasharray:none;stroke-opacity:1"
       d="m 49.077529,152.22829 c 4.492881,-2.19843 20.935177,-6.38542 38.311272,-4.80437 15.119739,1.37575 13.902109,22.56652 16.124479,31.87264 3.2562,13.63524 -24.9734,10.84955 -39.914894,8.54615 C 22.207191,181.46179 33.803857,159.7019 49.077529,152.22829 Z"
       id="path815-7"
       inkscape:connector-curvature="0"
       sodipodi:nodetypes="sssss" />
    <path
       style="opacity:1;fill:#c48557;fill-opacity:1;stroke:#000000;stroke-width:0.71200001;stroke-linecap:round;stroke-miterlimit:4;stroke-dasharray:none;stroke-opacity:1"
       d="m 130.03152,185.38876 c -4.15728,6.1347 -14.34962,6.49566 -22.78033,0.79599 -8.430703,-5.69966 -13.667788,-16.97574 -7.749945,-21.43631 17.217045,-12.97735 13.027465,-0.98192 22.733085,0.1017 10.85674,1.21214 12.51472,13.57719 7.79719,20.53862 z"
       id="path815-4"
       inkscape:connector-curvature="0"
       sodipodi:nodetypes="sssss" />
    <path
       style="fill:none;stroke:#000000;stroke-width:0.26458332px;stroke-linecap:round;stroke-linejoin:miter;stroke-opacity:1;opacity:0.457"
       d="m 67.657738,175.85863 c 6.605031,2.43343 1.571806,13.00016 1.445087,12.6527"
       id="path916"
       inkscape:connector-curvature="0"
       sodipodi:nodetypes="cc" />
    <path
       style="fill:none;stroke:#000000;stroke-width:0.293;stroke-linecap:round;stroke-linejoin:miter;stroke-opacity:1;stroke-miterlimit:4;stroke-dasharray:none;opacity:0.457"
       d="m 70.313607,176.00421 c 2.227378,1.08163 2.841344,6.07269 2.761025,12.74605"
       id="path918"
       inkscape:connector-curvature="0"
       sodipodi:nodetypes="cc" />
    <path
       style="opacity:1;fill:#000000;fill-opacity:1;stroke:#000000;stroke-width:0.71199995;stroke-linecap:round;stroke-miterlimit:4;stroke-dasharray:none;stroke-opacity:1"
       d="m 43.498113,169.17834 c 3e-6,0.36902 -0.224362,0.66818 -0.50113,0.66818 -0.276769,0 -0.501134,-0.29916 -0.501131,-0.66818 -1.080773,-1.1408 0.278868,-0.74865 0.501131,-0.66817 0.484575,0.17545 0.501128,0.29915 0.50113,0.66817 z"
       id="path922"
       inkscape:connector-curvature="0"
       sodipodi:nodetypes="cscsc" />
    <path
       style="opacity:1;fill:#000000;fill-opacity:1;stroke:#000000;stroke-width:0.78647637;stroke-linecap:round;stroke-miterlimit:4;stroke-dasharray:none;stroke-opacity:1"
       d="m 90.973202,183.78971 c -3e-6,0.23775 -0.297439,0.43048 -0.664344,0.43048 -0.366905,0 -0.664341,-0.19273 -0.664344,-0.43048 -6e-6,-0.23775 0.297433,-0.43049 0.664344,-0.43049 0.366911,0 3.728312,0.25402 0.664344,0.43049 z"
       id="path924"
       inkscape:connector-curvature="0"
       sodipodi:nodetypes="cscsc" />
    <path
       style="opacity:1;fill:#000000;fill-opacity:1;stroke:#000000;stroke-width:0.71199995;stroke-linecap:round;stroke-miterlimit:4;stroke-dasharray:none;stroke-opacity:1"
       d="m 41.694045,169.57924 c -1e-6,0.40592 -0.43377,0.73499 -0.968852,0.73499 -0.535082,0 -1.135895,-0.74667 -1.135895,-1.1526 0,-0.40592 0.600813,-0.31738 1.135895,-0.31738 0.535082,0 0.968851,0.32907 0.968852,0.73499 z"
       id="path926"
       inkscape:connector-curvature="0"
       sodipodi:nodetypes="cscsc" />
    <path
       style="opacity:1;fill:#000000;fill-opacity:1;stroke:#000000;stroke-width:0.78647637;stroke-linecap:round;stroke-miterlimit:4;stroke-dasharray:none;stroke-opacity:1"
       d="m 109.43236,164.75559 c -0.70221,1.7199 -0.71769,0.28698 -1.0246,0.0998 -0.31325,-0.19105 -0.66434,-0.19273 -0.66435,-0.43048 0,-0.23775 0.29744,-0.43049 0.66435,-0.43049 0.36691,0 1.36005,-0.0649 1.0246,0.76122 z"
       id="path924-1"
       inkscape:connector-curvature="0"
       sodipodi:nodetypes="cscscc" />
    <path
       style="fill:none;stroke:#000000;stroke-width:0.365;stroke-linecap:round;stroke-linejoin:miter;stroke-opacity:1;stroke-miterlimit:4;stroke-dasharray:none;opacity:0.574"
       d="m 117.96371,169.58024 c -1.14922,-2.70164 -1.98398,-5.33341 -2.00452,-7.78423"
       id="path946"
       inkscape:connector-curvature="0"
       sodipodi:nodetypes="cc" />
  </g>
</svg>
