<?xml version="1.0" encoding="UTF-8" standalone="no"?>
<!-- Created with Inkscape (http://www.inkscape.org/) -->

<svg
   xmlns:dc="http://purl.org/dc/elements/1.1/"
   xmlns:cc="http://creativecommons.org/ns#"
   xmlns:rdf="http://www.w3.org/1999/02/22-rdf-syntax-ns#"
   xmlns:svg="http://www.w3.org/2000/svg"
   xmlns="http://www.w3.org/2000/svg"
   xmlns:sodipodi="http://sodipodi.sourceforge.net/DTD/sodipodi-0.dtd"
   xmlns:inkscape="http://www.inkscape.org/namespaces/inkscape"
   width="210mm"
   height="297mm"
   viewBox="0 0 210 297"
   version="1.1"
   id="svg8"
   inkscape:version="0.92.3 (2405546, 2018-03-11)"
   sodipodi:docname="kure - Copy.svg"
   inkscape:export-filename="C:\Users\czechitas.PC-349-2B8F.000\Desktop\kure.png"
   inkscape:export-xdpi="96"
   inkscape:export-ydpi="96">
  <defs
     id="defs2" />
  <sodipodi:namedview
     id="base"
     pagecolor="#ffffff"
     bordercolor="#666666"
     borderopacity="1.0"
     inkscape:pageopacity="0.0"
     inkscape:pageshadow="2"
     inkscape:zoom="1.979899"
     inkscape:cx="304.64899"
     inkscape:cy="1101.1286"
     inkscape:document-units="mm"
     inkscape:current-layer="layer1"
     showgrid="false"
     inkscape:window-width="1920"
     inkscape:window-height="1018"
     inkscape:window-x="-8"
     inkscape:window-y="-8"
     inkscape:window-maximized="1" />
  <metadata
     id="metadata5">
    <rdf:RDF>
      <cc:Work
         rdf:about="">
        <dc:format>image/svg+xml</dc:format>
        <dc:type
           rdf:resource="http://purl.org/dc/dcmitype/StillImage" />
        <dc:title />
      </cc:Work>
    </rdf:RDF>
  </metadata>
  <g
     inkscape:label="Vrstva 1"
     inkscape:groupmode="layer"
     id="layer1">
    <path
       style="fill:#c83737;stroke:#000000;stroke-width:0.758;stroke-miterlimit:4;stroke-dasharray:none;fill-opacity:1"
       id="path817"
       sodipodi:type="arc"
       sodipodi:cx="18.295336"
       sodipodi:cy="7.5337243"
       sodipodi:rx="2.0238616"
       sodipodi:ry="4.2748213"
       sodipodi:start="2.2811598"
       sodipodi:end="0.90427151"
       d="m 16.975557,10.774573 a 2.0238616,4.2748213 0 0 1 -0.569933,-4.7713 2.0238616,4.2748213 0 0 1 1.93407,-2.7433431 2.0238616,4.2748213 0 0 1 1.875292,2.9197381 2.0238616,4.2748213 0 0 1 -0.668381,4.713959"
       sodipodi:open="true" />
    <path
       style="fill:#c83737;stroke:#000000;stroke-width:0.76400027;stroke-miterlimit:4;stroke-dasharray:none;fill-opacity:1"
       id="path817-9-2"
       sodipodi:type="arc"
       sodipodi:cx="-10.176312"
       sodipodi:cy="13.755899"
       sodipodi:rx="1.4223415"
       sodipodi:ry="3.0265658"
       sodipodi:start="2.2811598"
       sodipodi:end="0.90427151"
       d="m -11.103835,16.050414 a 1.4223415,3.0265658 0 0 1 -0.40054,-3.378071 1.4223415,3.0265658 0 0 1 1.359237,-1.942282 1.4223415,3.0265658 0 0 1 1.3179286,2.067169 1.4223415,3.0265658 0 0 1 -0.4697286,3.337474"
       sodipodi:open="true"
       transform="matrix(-0.92530631,0.37922056,0.37813058,0.92575227,0,0)" />
    <path
       style="fill:#c83737;stroke:#000000;stroke-width:0.76400027;stroke-miterlimit:4;stroke-dasharray:none;fill-opacity:1"
       id="path817-9-2-6"
       sodipodi:type="arc"
       sodipodi:cx="23.597549"
       sodipodi:cy="-0.12662497"
       sodipodi:rx="1.4223415"
       sodipodi:ry="3.0265658"
       sodipodi:start="2.2811598"
       sodipodi:end="0.90427151"
       d="m 22.670027,2.1678899 a 1.4223415,3.0265658 0 0 1 -0.40054,-3.3780716 1.4223415,3.0265658 0 0 1 1.359237,-1.942282 1.4223415,3.0265658 0 0 1 1.317928,2.0671693 1.4223415,3.0265658 0 0 1 -0.469728,3.3374744"
       sodipodi:open="true"
       transform="matrix(0.92530631,0.37922057,-0.37813057,0.92575227,0,0)" />
    <path
       style="fill:#ffcc00;stroke:#000000;stroke-width:0.84400004;stroke-miterlimit:4;stroke-dasharray:none"
       id="path815"
       sodipodi:type="arc"
       sodipodi:cx="18.520832"
       sodipodi:cy="21.833332"
       sodipodi:rx="11.244792"
       sodipodi:ry="11.150297"
       sodipodi:start="1.8441008"
       sodipodi:end="1.2850587"
       d="M 15.485697,32.569777 A 11.244792,11.150297 0 0 1 7.3761609,20.348699 11.244792,11.150297 0 0 1 18.450928,10.68325 a 11.244792,11.150297 0 0 1 11.195099,9.528169 11.244792,11.150297 0 0 1 -7.955679,12.32011"
       sodipodi:open="true" />
    <path
       style="fill:#c83737;stroke:#000000;stroke-width:0.79405588;stroke-linecap:butt;stroke-linejoin:miter;stroke-miterlimit:4;stroke-dasharray:none;stroke-opacity:1"
       d="m 17.172067,26.703394 c -0.979997,2.645613 -2.549504,7.378971 -0.734991,7.738864 1.098367,-0.01623 1.279997,-1.956699 2.246488,-2.098235 0.875812,0.10425 0.855805,2.132803 1.929598,2.314204 2.391546,0.03974 -0.119675,-6.573739 -0.56152,-8.137364"
       id="path884"
       inkscape:connector-curvature="0"
       sodipodi:nodetypes="ccccc" />
    <path
       style="fill:#e9c6af;stroke:#000000;stroke-width:0.66500002;stroke-linecap:butt;stroke-linejoin:miter;stroke-miterlimit:4;stroke-dasharray:none;stroke-opacity:1"
       d="m 15.827753,23.817707 c -0.226216,2.054332 1.18197,2.667508 2.805623,3.921503 1.525288,-1.256424 2.977401,-2.395232 2.549643,-3.827009"
       id="path882"
       inkscape:connector-curvature="0"
       sodipodi:nodetypes="ccc" />
    <path
       style="fill:#e9c6af;stroke:#000000;stroke-width:0.82578921;stroke-miterlimit:4;stroke-dasharray:none"
       d="m 21.183019,23.912201 c 0,1.000596 -1.336672,1.890059 -2.591316,2.567691 -1.504484,-0.614211 -2.685809,-1.567095 -2.685809,-2.567691 0,-1.000596 1.181325,-1.339269 2.638562,-1.339269 1.457238,0 2.638563,0.338673 2.638563,1.339269 z"
       id="path864"
       inkscape:connector-curvature="0"
       sodipodi:nodetypes="scsss" />
    <ellipse
       style="fill:#000000;stroke:#000000;stroke-width:0.57595986;stroke-miterlimit:4;stroke-dasharray:none"
       id="path899"
       cx="15.835719"
       cy="19.206736"
       rx="0.76269382"
       ry="1.1970068" />
    <ellipse
       style="fill:#000000;stroke:#000000;stroke-width:0.57595986;stroke-miterlimit:4;stroke-dasharray:none"
       id="path899-1"
       cx="20.847023"
       cy="19.173325"
       rx="0.76269382"
       ry="1.1970068" />
  </g>
</svg>
