<?xml version="1.0" encoding="UTF-8" standalone="no"?>
<!-- Created with Inkscape (http://www.inkscape.org/) -->

<svg
   xmlns:dc="http://purl.org/dc/elements/1.1/"
   xmlns:cc="http://creativecommons.org/ns#"
   xmlns:rdf="http://www.w3.org/1999/02/22-rdf-syntax-ns#"
   xmlns:svg="http://www.w3.org/2000/svg"
   xmlns="http://www.w3.org/2000/svg"
   xmlns:sodipodi="http://sodipodi.sourceforge.net/DTD/sodipodi-0.dtd"
   xmlns:inkscape="http://www.inkscape.org/namespaces/inkscape"
   width="210mm"
   height="297mm"
   viewBox="0 0 210 297"
   version="1.1"
   id="svg8"
   inkscape:version="0.92.3 (2405546, 2018-03-11)"
   sodipodi:docname="MLEKO.svg"
   inkscape:export-filename="C:\Users\czechitas.PC-349-2B8F.000\Desktop\MLEKO2.png"
   inkscape:export-xdpi="96"
   inkscape:export-ydpi="96">
  <defs
     id="defs2">
    <inkscape:perspective
       sodipodi:type="inkscape:persp3d"
       inkscape:vp_x="16.441964 : 138.10565 : 1"
       inkscape:vp_y="0 : 1000 : 0"
       inkscape:vp_z="226.44196 : 138.10565 : 1"
       inkscape:persp3d-origin="121.44196 : 88.605654 : 1"
       id="perspective815" />
  </defs>
  <sodipodi:namedview
     id="base"
     pagecolor="#ffffff"
     bordercolor="#666666"
     borderopacity="1.0"
     inkscape:pageopacity="0.0"
     inkscape:pageshadow="2"
     inkscape:zoom="2.8284271"
     inkscape:cx="58.788446"
     inkscape:cy="982.06221"
     inkscape:document-units="mm"
     inkscape:current-layer="layer1"
     showgrid="true"
     inkscape:window-width="1920"
     inkscape:window-height="1018"
     inkscape:window-x="-8"
     inkscape:window-y="-8"
     inkscape:window-maximized="1">
    <inkscape:grid
       type="xygrid"
       id="grid841" />
  </sodipodi:namedview>
  <metadata
     id="metadata5">
    <rdf:RDF>
      <cc:Work
         rdf:about="">
        <dc:format>image/svg+xml</dc:format>
        <dc:type
           rdf:resource="http://purl.org/dc/dcmitype/StillImage" />
        <dc:title />
      </cc:Work>
    </rdf:RDF>
  </metadata>
  <g
     inkscape:label="Vrstva 1"
     inkscape:groupmode="layer"
     id="layer1">
    <path
       style="fill:#ffffff;fill-opacity:1;stroke:#000000;stroke-width:0.77161562;stroke-miterlimit:4;stroke-dasharray:none"
       d="M 13.711613,16.433529 39.252384,18.145531 39.134023,60.714473 13.885664,58.772137 Z"
       id="rect831"
       inkscape:connector-curvature="0"
       sodipodi:nodetypes="ccccc" />
    <path
       style="fill:none;stroke:#000000;stroke-width:0.73622358;stroke-linecap:butt;stroke-linejoin:miter;stroke-miterlimit:4;stroke-dasharray:none;stroke-opacity:1"
       d="m 39.300677,60.807324 c 0.424932,-0.282022 6.101335,-3.92922 7.752285,-4.234619"
       id="path834"
       inkscape:connector-curvature="0"
       sodipodi:nodetypes="cc" />
    <path
       style="fill:none;stroke:#000000;stroke-width:0.73622358;stroke-linecap:butt;stroke-linejoin:miter;stroke-miterlimit:4;stroke-dasharray:none;stroke-opacity:1"
       d="m 39.252384,18.145531 7.918347,-3.642882"
       id="path834-1"
       inkscape:connector-curvature="0"
       sodipodi:nodetypes="cc" />
    <path
       style="fill:none;stroke:#000000;stroke-width:0.73622358;stroke-linecap:butt;stroke-linejoin:miter;stroke-miterlimit:4;stroke-dasharray:none;stroke-opacity:1"
       d="m 46.990189,14.395529 -0.118366,42.56894"
       id="path851"
       inkscape:connector-curvature="0" />
    <path
       style="fill:none;stroke:#000000;stroke-width:0.73622358;stroke-linecap:butt;stroke-linejoin:miter;stroke-miterlimit:4;stroke-dasharray:none;stroke-opacity:1"
       d="M 42.623509,9.5178082 39.252384,18.145531"
       id="path853-5"
       inkscape:connector-curvature="0"
       sodipodi:nodetypes="cc" />
    <path
       style="fill:none;stroke:#000000;stroke-width:0.73622358;stroke-linecap:butt;stroke-linejoin:miter;stroke-miterlimit:4;stroke-dasharray:none;stroke-opacity:1"
       d="M 17.082734,7.8058047 13.711613,16.433529"
       id="path853-5-1"
       inkscape:connector-curvature="0"
       sodipodi:nodetypes="cc" />
    <path
       style="fill:none;stroke:#000000;stroke-width:0.73622358;stroke-linecap:butt;stroke-linejoin:miter;stroke-miterlimit:4;stroke-dasharray:none;stroke-opacity:1"
       d="m 42.623509,9.5178082 4.547222,4.9848408"
       id="path853-5-0"
       inkscape:connector-curvature="0"
       sodipodi:nodetypes="cc" />
    <path
       style="fill:none;stroke:#000000;stroke-width:0.73622358;stroke-linecap:butt;stroke-linejoin:miter;stroke-miterlimit:4;stroke-dasharray:none;stroke-opacity:1"
       d="M 17.082734,7.8058047 42.623508,9.5178082"
       id="path900"
       inkscape:connector-curvature="0" />
    <path
       style="fill:none;stroke:#000000;stroke-width:0.65111107;stroke-linecap:butt;stroke-linejoin:miter;stroke-miterlimit:4;stroke-dasharray:none;stroke-opacity:1"
       d="M 17.279642,4.978658 17.082734,7.8058047"
       id="path902"
       inkscape:connector-curvature="0"
       sodipodi:nodetypes="cc" />
    <path
       style="fill:none;stroke:#000000;stroke-width:0.65111107;stroke-linecap:butt;stroke-linejoin:miter;stroke-miterlimit:4;stroke-dasharray:none;stroke-opacity:1"
       d="m 42.558701,6.5585183 0.0648,2.9592898"
       id="path902-5"
       inkscape:connector-curvature="0"
       sodipodi:nodetypes="cc" />
    <path
       style="fill:none;stroke:#000000;stroke-width:0.73622358;stroke-linecap:butt;stroke-linejoin:miter;stroke-miterlimit:4;stroke-dasharray:none;stroke-opacity:1"
       d="M 16.938888,5.1991853 42.479662,6.9111887"
       id="path900-9"
       inkscape:connector-curvature="0" />
    <path
       style="fill:none;stroke:#000000;stroke-width:0.56599855;stroke-linecap:butt;stroke-linejoin:miter;stroke-miterlimit:4;stroke-dasharray:none;stroke-opacity:1"
       d="M 46.990189,14.395529 41.75205,11.814216"
       id="path949"
       inkscape:connector-curvature="0" />
    <path
       style="fill:#000000;fill-opacity:1;stroke:#000000;stroke-width:0.66499996;stroke-miterlimit:4;stroke-dasharray:none"
       d="m 26.475157,55.234597 c -1.06958,2.758366 -3.897971,3.699499 -6.089849,3.696874 -2.19188,-0.0026 -2.772014,-5.101321 -5.417614,-5.298164 -1.525487,-0.483024 -0.603013,-4.946414 1.291213,-7.06262 2.235918,-2.497941 10.729912,-3.373576 7.759624,1.442316 -1.028293,1.597392 -4.133578,2.379251 -2.898011,4.569343 2.575522,2.725814 5.253067,-0.711889 5.354637,2.652251 z"
       id="path953"
       inkscape:connector-curvature="0"
       sodipodi:nodetypes="cscsccc" />
    <path
       style="fill:#000000;fill-opacity:1;stroke:#000000;stroke-width:0.53781706;stroke-miterlimit:4;stroke-dasharray:none"
       d="m 29.65321,57.464687 c -2.448733,0.04212 -3.97708,-1.746618 -4.59151,-3.351727 -0.614429,-1.605109 3.192701,-3.554679 2.601896,-5.549969 -0.05293,-1.261032 3.682116,-1.920769 5.862741,-1.167235 2.57398,0.889461 5.644798,6.84467 1.059312,6.110956 -1.533084,-0.274892 -3.015282,-2.313932 -4.373175,-0.754549 -1.398185,2.700379 2.031787,3.632017 -0.559264,4.712524 z"
       id="path953-3"
       inkscape:connector-curvature="0"
       sodipodi:nodetypes="cscsccc" />
    <path
       style="fill:#000000;fill-opacity:1;stroke:#000000;stroke-width:0.73826683;stroke-miterlimit:4;stroke-dasharray:none"
       d="m 32.055659,24.949456 c -0.687198,-2.556327 -2.458404,-6.26054 -0.107548,-6.257723 2.350862,0.0028 6.937365,3.007303 6.934389,5.492493 -0.003,2.485192 -0.76332,6.678541 -3.11418,6.675725 -2.350861,-0.0028 -3.063962,-3.497376 -3.712664,-5.910495 z"
       id="path971-3"
       inkscape:connector-curvature="0"
       sodipodi:nodetypes="sssss" />
    <path
       style="fill:#000000;fill-opacity:1;stroke:#000000;stroke-width:0.72284371;stroke-miterlimit:4;stroke-dasharray:none"
       d="m 31.089197,29.820571 c -1.156761,3.013584 -4.215604,4.041829 -6.586063,4.038988 -2.37046,-0.0028 -2.997794,-5.573258 -5.858939,-5.788278 -1.64977,-0.527693 -0.652078,-5.404049 1.396506,-7.716071 2.418119,-2.72908 11.604169,-3.685842 8.391815,1.575655 -1.112095,1.745198 -4.470389,2.599436 -3.134185,4.992138 2.785325,2.977972 5.681063,-0.777822 5.790866,2.897568 z"
       id="path953-5"
       inkscape:connector-curvature="0"
       sodipodi:nodetypes="cscsccc" />
    <flowRoot
       xml:space="preserve"
       id="flowRoot1006"
       style="fill:black;fill-opacity:1;stroke:none;font-family:'Open Sans';font-style:normal;font-weight:normal;font-size:40px;line-height:1.25;letter-spacing:0px;word-spacing:0px;-inkscape-font-specification:'Open Sans';font-stretch:normal;font-variant:normal;"><flowRegion
         id="flowRegion1008"
         style="-inkscape-font-specification:'Open Sans';font-family:'Open Sans';font-weight:normal;font-style:normal;font-stretch:normal;font-variant:normal;"><rect
           id="rect1010"
           width="171.5"
           height="92.5"
           x="259"
           y="180.01968"
           style="-inkscape-font-specification:'Open Sans';font-family:'Open Sans';font-weight:normal;font-style:normal;font-stretch:normal;font-variant:normal;" /></flowRegion><flowPara
         id="flowPara1012" /></flowRoot>    <flowRoot
       xml:space="preserve"
       id="flowRoot1014"
       style="font-style:normal;font-variant:normal;font-weight:bold;font-stretch:normal;font-size:26.66666794px;line-height:1.25;font-family:sans-serif;-inkscape-font-specification:'sans-serif Bold';letter-spacing:0px;word-spacing:0px;fill:#000000;fill-opacity:1;stroke:none"
       transform="matrix(0.26438142,0.01033467,-0.01033467,0.26438142,-56.359441,-10.905481)"><flowRegion
         id="flowRegion1016"
         style="font-style:normal;font-variant:normal;font-weight:bold;font-stretch:normal;font-size:26.66666794px;font-family:sans-serif;-inkscape-font-specification:'sans-serif Bold'"><rect
           id="rect1018"
           width="226.5"
           height="115"
           x="278"
           y="165.01968"
           style="font-style:normal;font-variant:normal;font-weight:bold;font-stretch:normal;font-size:26.66666794px;font-family:sans-serif;-inkscape-font-specification:'sans-serif Bold'" /></flowRegion><flowPara
         id="flowPara1020"
         style="font-size:21.33333397px">MLÉKO</flowPara></flowRoot>    <path
       style="fill:#000000;fill-opacity:1;stroke:#000000;stroke-width:0.56392366;stroke-miterlimit:4;stroke-dasharray:none"
       d="m 38.205722,54.938514 c 0.543855,1.885263 1.945416,4.617127 0.0855,4.614898 -1.859927,-0.0022 -5.488817,-2.218245 -5.486623,-4.051001 0.0022,-1.832758 0.603484,-4.925184 2.463411,-4.922956 1.859927,0.0022 2.424335,2.579413 2.937722,4.359059 z"
       id="path971-3-6"
       inkscape:connector-curvature="0"
       sodipodi:nodetypes="sssss" />
    <path
       style="fill:#000000;fill-opacity:1;stroke:#000000;stroke-width:0.58633757;stroke-miterlimit:4;stroke-dasharray:none"
       d="m 14.387638,33.214188 c -1.079271,-1.701629 -0.617733,-3.959569 1.27094,-4.492882 1.888675,-0.533315 3.163064,1.461411 3.673345,3.268508 0.510279,1.807097 0.03364,2.845804 -1.85505,3.379119 -1.93931,0.292644 -1.703854,-1.105318 -3.089235,-2.154745 z"
       id="path971-3-7"
       inkscape:connector-curvature="0"
       sodipodi:nodetypes="csscc" />
    <path
       style="fill:#000000;fill-opacity:1;stroke:#000000;stroke-width:0.40287358;stroke-miterlimit:4;stroke-dasharray:none"
       d="m 16.010266,18.191421 c 1.066171,-0.813609 2.480614,-0.466134 2.814429,0.957108 0.333811,1.423246 -0.916002,2.383944 -2.048159,2.768773 -1.132154,0.384827 -3.172528,0.586349 -2.877679,-1.067655 -0.183035,-1.461442 1.453772,-1.614029 2.111409,-2.658226 z"
       id="path971-3-7-8"
       inkscape:connector-curvature="0"
       sodipodi:nodetypes="csscc" />
    <path
       style="fill:#000000;fill-opacity:1;stroke:#000000;stroke-width:0.58633757;stroke-miterlimit:4;stroke-dasharray:none"
       d="m 33.504918,29.84536 c -0.448038,-2.62533 4.647494,0.16079 5.180808,2.049464 0.533313,1.888676 -2.055454,2.10402 -3.862553,2.614301 -1.807096,0.510278 -2.845804,0.03363 -3.37912,-1.85505 -0.292641,-1.939312 2.086863,-1.141412 2.060865,-2.808715 z"
       id="path971-3-7-7"
       inkscape:connector-curvature="0"
       sodipodi:nodetypes="csscc" />
    <path
       style="fill:#ffffff;fill-opacity:1;stroke:#000000;stroke-width:0.60532796;stroke-linecap:round;stroke-miterlimit:4;stroke-dasharray:none"
       d="m 149.58107,206.9287 c 7e-5,-11.14399 0.10591,-46.61662 0.23521,-78.82807 l 0.23509,-58.566274 12.85566,-5.918366 c 7.07061,-3.255102 12.91948,-5.854544 12.99749,-5.776539 0.078,0.07801 0.0485,34.986728 -0.0656,77.574939 l -0.2074,77.43311 -2.34126,0.95954 c -2.7924,1.14442 -12.24379,6.35911 -18.40602,10.15529 -2.43068,1.49739 -4.61829,2.8363 -4.86136,2.97535 -0.35136,0.201 -0.44192,-3.90038 -0.44183,-20.00898 z"
       id="path843"
       inkscape:connector-curvature="0"
       transform="scale(0.26458333)" />
    <path
       style="fill:#ffffff;fill-opacity:1;stroke:#000000;stroke-width:0.60532796;stroke-linecap:round;stroke-miterlimit:4;stroke-dasharray:none"
       d="m 150.14505,221.22316 c -0.34961,-7.64492 0.3064,-151.004054 0.69273,-151.385172 0.18379,-0.18131 5.74353,-2.792328 12.35498,-5.802262 l 12.02082,-5.472608 0.11013,59.278922 c 0.0606,32.60341 0.002,67.26388 -0.13009,77.02328 l -0.24022,17.74435 -1.4609,0.5789 c -2.10452,0.83393 -10.45071,5.38909 -17.01725,9.28763 -3.11127,1.84715 -5.75838,3.41387 -5.88245,3.48159 -0.12408,0.0677 -0.32557,-2.06286 -0.44775,-4.73463 z"
       id="path845"
       inkscape:connector-curvature="0"
       transform="scale(0.26458333)" />
    <path
       style="fill:#ffffff;fill-opacity:1;stroke:#000000;stroke-width:0.60532796;stroke-linecap:round;stroke-miterlimit:4;stroke-dasharray:none"
       d="m 151.34872,65.384076 c 0,-0.138137 6.09251,-15.808522 6.83568,-17.581879 l 0.55839,-1.332437 7.97023,3.980437 c 4.38362,2.18924 7.96742,4.061629 7.96398,4.160864 -0.007,0.18983 -23.32828,10.959811 -23.32828,10.773015 z"
       id="path847"
       inkscape:connector-curvature="0"
       transform="scale(0.26458333)" />
    <path
       style="fill:#ffffff;fill-opacity:1;stroke:#000000;stroke-width:0.60532796;stroke-linecap:round;stroke-miterlimit:4;stroke-dasharray:none"
       d="m 165.22569,46.909971 c -2.96542,-1.492905 -5.39168,-2.88863 -5.39168,-3.101611 0,-0.752073 1.65497,-4.443588 1.97431,-4.403821 0.34244,0.04264 9.33939,9.742963 9.33939,10.06953 0,0.375041 -0.59924,0.115584 -5.92202,-2.564098 z"
       id="path849"
       inkscape:connector-curvature="0"
       transform="scale(0.26458333)" />
    <path
       style="fill:#ffffff;fill-opacity:1;stroke:#000000;stroke-width:0.60532796;stroke-linecap:round;stroke-miterlimit:4;stroke-dasharray:none"
       d="m 100.48417,63.784481 c -25.350367,-1.718207 -46.144034,-3.176468 -46.208146,-3.24058 -0.06411,-0.06411 2.446362,-6.674675 5.578831,-14.69014 l 5.695398,-14.573572 1.268323,-0.0027 c 1.72285,-0.0036 91.748964,6.042967 91.876884,6.170882 0.24603,0.246029 -11.42209,29.536471 -11.75174,29.500373 -0.20238,-0.02217 -21.10918,-1.446099 -46.45955,-3.164305 z"
       id="path852"
       inkscape:connector-curvature="0"
       transform="scale(0.26458333)" />
    <path
       style="fill:#ffffff;fill-opacity:1;stroke:#000000;stroke-width:0.60532796;stroke-linecap:round;stroke-miterlimit:4;stroke-dasharray:none"
       d="M 113.69529,31.259052 C 88.610674,29.544948 67.62655,28.132534 67.063901,28.120354 l -1.023,-0.02215 0.246057,-3.259458 c 0.135331,-1.792702 0.297092,-3.310495 0.35947,-3.372872 0.06238,-0.06238 11.946681,0.68413 26.409564,1.658907 14.462888,0.974776 34.967048,2.341225 45.564808,3.036553 10.59776,0.695328 19.61572,1.33632 20.03991,1.424425 0.7172,0.148966 0.77914,0.395595 0.88388,3.519092 0.0619,1.847395 0.0331,3.339066 -0.0641,3.314825 -0.0972,-0.02424 -20.70055,-1.446524 -45.78516,-3.160628 z"
       id="path854"
       inkscape:connector-curvature="0"
       transform="scale(0.26458333)"
       inkscape:export-xdpi="96"
       inkscape:export-ydpi="96" />
  </g>
</svg>
