<?xml version="1.0" encoding="UTF-8" standalone="no"?>
<!-- Created with Inkscape (http://www.inkscape.org/) -->

<svg
   xmlns:dc="http://purl.org/dc/elements/1.1/"
   xmlns:cc="http://creativecommons.org/ns#"
   xmlns:rdf="http://www.w3.org/1999/02/22-rdf-syntax-ns#"
   xmlns:svg="http://www.w3.org/2000/svg"
   xmlns="http://www.w3.org/2000/svg"
   xmlns:xlink="http://www.w3.org/1999/xlink"
   xmlns:sodipodi="http://sodipodi.sourceforge.net/DTD/sodipodi-0.dtd"
   xmlns:inkscape="http://www.inkscape.org/namespaces/inkscape"
   width="210mm"
   height="297mm"
   viewBox="0 0 210 297"
   version="1.1"
   id="svg8"
   inkscape:version="0.92.3 (2405546, 2018-03-11)"
   sodipodi:docname="SMETANA.svg">
  <defs
     id="defs2" />
  <sodipodi:namedview
     id="base"
     pagecolor="#ffffff"
     bordercolor="#666666"
     borderopacity="1.0"
     inkscape:pageopacity="0.0"
     inkscape:pageshadow="2"
     inkscape:zoom="1.4"
     inkscape:cx="89.286729"
     inkscape:cy="749.87336"
     inkscape:document-units="mm"
     inkscape:current-layer="layer1"
     showgrid="false"
     inkscape:window-width="1920"
     inkscape:window-height="1018"
     inkscape:window-x="-8"
     inkscape:window-y="-8"
     inkscape:window-maximized="1" />
  <metadata
     id="metadata5">
    <rdf:RDF>
      <cc:Work
         rdf:about="">
        <dc:format>image/svg+xml</dc:format>
        <dc:type
           rdf:resource="http://purl.org/dc/dcmitype/StillImage" />
        <dc:title></dc:title>
      </cc:Work>
    </rdf:RDF>
  </metadata>
  <g
     inkscape:label="Vrstva 1"
     inkscape:groupmode="layer"
     id="layer1">
    <ellipse
       style="opacity:1;fill:#000000;fill-opacity:1;stroke:#000000;stroke-width:0.80007893;stroke-linecap:round;stroke-miterlimit:4;stroke-dasharray:none;stroke-opacity:1"
       id="path815"
       cx="77.601555"
       cy="80.069679"
       rx="37.196663"
       ry="3.9286871" />
    <path
       style="opacity:1;fill:none;fill-opacity:1;stroke:#000000;stroke-width:0.86375028;stroke-linecap:round;stroke-miterlimit:4;stroke-dasharray:none;stroke-opacity:1"
       id="path815-7"
       sodipodi:type="arc"
       sodipodi:cx="77.614128"
       sodipodi:cy="162.94328"
       sodipodi:rx="27.592237"
       sodipodi:ry="6.1726995"
       sodipodi:start="0"
       sodipodi:end="3.1415927"
       d="m 105.20637,162.94328 a 27.592237,6.1726995 0 0 1 -13.796124,5.34572 27.592237,6.1726995 0 0 1 -27.592237,0 27.592237,6.1726995 0 0 1 -13.796118,-5.34572"
       sodipodi:open="true" />
    <path
       style="fill:none;stroke:#000000;stroke-width:0.765;stroke-linecap:butt;stroke-linejoin:miter;stroke-opacity:1;stroke-miterlimit:4;stroke-dasharray:none"
       d="m 40.758602,80.511681 9.354433,82.987189 -0.133633,0.13363"
       id="path832"
       inkscape:connector-curvature="0" />
    <path
       style="fill:none;stroke:#000000;stroke-width:0.765;stroke-linecap:butt;stroke-linejoin:miter;stroke-opacity:1;stroke-miterlimit:4;stroke-dasharray:none"
       d="m 114.65863,80.378048 -9.48807,83.120822"
       id="path834"
       inkscape:connector-curvature="0" />
    <path
       style="opacity:1;fill:none;fill-opacity:1;stroke:#000000;stroke-width:1.08800972;stroke-linecap:round;stroke-miterlimit:4;stroke-dasharray:none;stroke-opacity:1"
       id="path815-7-0"
       sodipodi:type="arc"
       sodipodi:cx="77.7686"
       sodipodi:cy="98.299583"
       sodipodi:rx="34.756138"
       sodipodi:ry="7.7753463"
       sodipodi:start="0"
       sodipodi:end="3.1415927"
       d="m 112.52474,98.299583 a 34.756138,7.7753463 0 0 1 -17.378071,6.733647 34.756138,7.7753463 0 0 1 -34.756138,0 34.756138,7.7753463 0 0 1 -17.378068,-6.733647"
       sodipodi:open="true" />
    <path
       style="opacity:1;fill:none;fill-opacity:1;stroke:#000000;stroke-width:1.09358382;stroke-linecap:round;stroke-miterlimit:4;stroke-dasharray:none;stroke-opacity:1"
       id="path815-7-7"
       sodipodi:type="arc"
       sodipodi:cx="77.7686"
       sodipodi:cy="122.85367"
       sodipodi:rx="32.231487"
       sodipodi:ry="8.4705086"
       sodipodi:start="0"
       sodipodi:end="3.1415927"
       d="m 110.00009,122.85367 a 32.231487,8.4705086 0 0 1 -16.115746,7.33567 32.231487,8.4705086 0 0 1 -32.231488,0 32.231487,8.4705086 0 0 1 -16.115743,-7.33567"
       sodipodi:open="true" />
    <path
       style="fill:none;fill-rule:evenodd;stroke:none;stroke-width:0.23275532px;stroke-linecap:butt;stroke-linejoin:miter;stroke-opacity:1"
       d="m 43.690136,117.10985 c 23.20763,10.13883 47.52571,10.47688 67.903164,1.12943"
       id="path942"
       inkscape:connector-curvature="0"
       sodipodi:nodetypes="cc" />
    <flowRoot
       xml:space="preserve"
       id="flowRoot952"
       style="fill:black;fill-opacity:1;stroke:none;font-family:sans-serif;font-style:normal;font-weight:normal;font-size:40px;line-height:1.25;letter-spacing:0px;word-spacing:0px"><flowRegion
         id="flowRegion954"><rect
           id="rect956"
           width="201.52544"
           height="64.649765"
           x="445.47726"
           y="372.98651" /></flowRegion><flowPara
         id="flowPara958"></flowPara></flowRoot>    <text
       xml:space="preserve"
       style="font-style:normal;font-variant:normal;font-weight:bold;font-stretch:normal;font-size:12.89212799px;line-height:1.25;font-family:sans-serif;-inkscape-font-specification:'sans-serif Bold';letter-spacing:0px;word-spacing:0px;fill:#000000;fill-opacity:1;stroke:none;stroke-width:0.32230321"
       id="text962"
       transform="matrix(0.90987422,0,0,0.85144331,7.2658082,17.33115)"><textPath
         xlink:href="#path942"
         id="textPath964"><tspan
   style="stroke-width:0.32230321"
   id="tspan960">SMETANA</tspan></textPath></text>
    <path
       style="fill:#000000;stroke:#000000;stroke-width:0.26458332px;stroke-linecap:butt;stroke-linejoin:miter;stroke-opacity:1"
       d="m 49.444862,82.649837 c -0.546669,12.654313 12.143269,10.491782 11.225322,0.80181"
       id="path973"
       inkscape:connector-curvature="0"
       sodipodi:nodetypes="cc" />
    <path
       style="opacity:1;fill:#37abc8;fill-opacity:1;fill-rule:evenodd;stroke:none;stroke-width:2.92069292;stroke-linecap:round;stroke-miterlimit:4;stroke-dasharray:none;stroke-opacity:1"
       d="m 262.39767,398.24249 c -64.50434,-3.45972 -76.55288,-11.92704 -91.41397,-18.69086 -10.7719,-4.90267 -7.87743,-8.50969 -11.67203,-41.61406 -1.87846,-16.38785 -4.26272,-32.56623 -3.57269,-31.38524 5.43654,1.29918 13.63578,4.11131 19.36744,5.06688 l 11.26672,1.76828 -0.0616,5.12983 c 1.81998,17.01874 9.17627,26.61203 21.18642,27.50489 6.40028,-0.0599 8.47885,-1.70829 14.0915,-5.5345 5.22201,-5.1995 7.5499,-16.08952 7.5499,-16.08952 l 1.02117,-7.31589 60.5918,1.16071 c 34.02238,0.65174 76.6227,-1.70124 110.20656,-4.76768 13.86792,-2.31534 24.87177,-4.79241 30.70607,-7.19603 0.77617,2.47686 0.24298,7.94319 -0.23354,13.37901 -2.70427,19.06241 -5.4224,51.9249 -8.50518,54.42157 -7.14549,17.10156 -85.30462,28.1973 -160.5286,24.16261 z"
       id="path977"
       inkscape:connector-curvature="0"
       transform="scale(0.26458333)"
       sodipodi:nodetypes="cssccccccccsccccsc" />
    <path
       style="opacity:1;fill:#37abc8;fill-opacity:1;fill-rule:evenodd;stroke:none;stroke-width:0.78889298;stroke-linecap:round;stroke-miterlimit:4;stroke-dasharray:none;stroke-opacity:1"
       d="m 67.699942,168.54606 c -6.467498,-0.689 -12.087261,-1.9071 -14.987869,-3.24866 -2.359023,-1.09105 -2.221239,-0.71848 -3.191343,-8.62965 -0.709457,-5.78557 -3.34525,-30.63593 -3.34525,-31.21591 0,-0.18758 1.006971,0.78949 2.469993,1.48897 12.975005,6.2034 46.093948,6.14286 58.414947,-0.10684 l 2.14058,-1.38598 -0.23626,2.00281 c -0.56886,5.60246 -2.70656,24.49801 -3.37436,29.82653 -0.88978,7.09981 -0.41982,6.22154 -3.28288,8.14448 -2.02606,0.87969 -5.959357,1.85208 -10.164596,2.51287 -3.301839,0.51884 -4.821704,0.80645 -13.312154,0.86273 -5.377451,0.0356 -10.533312,-0.18775 -11.130808,-0.25135 z"
       id="path979"
       inkscape:connector-curvature="0"
       sodipodi:nodetypes="ccssccccccccc" />
  </g>
</svg>
