<?xml version="1.0" encoding="UTF-8" standalone="no"?>
<!-- Created with Inkscape (http://www.inkscape.org/) -->

<svg
   xmlns:dc="http://purl.org/dc/elements/1.1/"
   xmlns:cc="http://creativecommons.org/ns#"
   xmlns:rdf="http://www.w3.org/1999/02/22-rdf-syntax-ns#"
   xmlns:svg="http://www.w3.org/2000/svg"
   xmlns="http://www.w3.org/2000/svg"
   xmlns:sodipodi="http://sodipodi.sourceforge.net/DTD/sodipodi-0.dtd"
   xmlns:inkscape="http://www.inkscape.org/namespaces/inkscape"
   width="210mm"
   height="297mm"
   viewBox="0 0 210 297"
   version="1.1"
   id="svg8"
   inkscape:version="0.92.3 (2405546, 2018-03-11)"
   sodipodi:docname="testoviny.svg">
  <defs
     id="defs2" />
  <sodipodi:namedview
     id="base"
     pagecolor="#ffffff"
     bordercolor="#666666"
     borderopacity="1.0"
     inkscape:pageopacity="0.0"
     inkscape:pageshadow="2"
     inkscape:zoom="1.4"
     inkscape:cx="-235.91083"
     inkscape:cy="1057.4769"
     inkscape:document-units="mm"
     inkscape:current-layer="layer2"
     showgrid="false"
     inkscape:window-width="1920"
     inkscape:window-height="1018"
     inkscape:window-x="-8"
     inkscape:window-y="-8"
     inkscape:window-maximized="1" />
  <metadata
     id="metadata5">
    <rdf:RDF>
      <cc:Work
         rdf:about="">
        <dc:format>image/svg+xml</dc:format>
        <dc:type
           rdf:resource="http://purl.org/dc/dcmitype/StillImage" />
        <dc:title />
      </cc:Work>
    </rdf:RDF>
  </metadata>
  <g
     inkscape:groupmode="layer"
     id="layer2"
     inkscape:label="TEST">
    <g
       id="g1321"
       transform="matrix(0.87241464,0.2044288,-0.2044288,0.87241464,4.1540839,-1.3047821)">
      <path
         sodipodi:nodetypes="scscs"
         inkscape:connector-curvature="0"
         id="path854"
         d="m 23.963698,21.063644 c 0.25846,3.80092 -1.97459,7.04827 -4.05729,7.18989 -2.08269,0.14161 -3.62723,-1.80702 -3.88568,-5.60795 -0.25845,-3.80091 2.54932,-9.73927 4.63201,-9.88089 2.08269,-0.14162 3.0525,4.49804 3.31096,8.29895 z"
         style="fill:none;fill-opacity:1;stroke:#000000;stroke-width:0.89499998;stroke-miterlimit:4;stroke-dasharray:none" />
      <path
         sodipodi:nodetypes="scscs"
         inkscape:connector-curvature="0"
         id="path854-9"
         d="m 26.561588,21.584604 c 10e-6,5.54327 -4.2237,10.03698 -7.26111,10.03698 -3.0374,0 -5.55971,-2.31982 -5.55971,-7.86309 3e-5,-5.54326 4.09524,-13.69777 6.66018,-15.0206902 3.03739,0 6.16064,7.3035402 6.16064,12.8468002 z"
         style="fill:none;fill-opacity:1;stroke:#000000;stroke-width:1.15675759;stroke-miterlimit:4;stroke-dasharray:none" />
      <path
         sodipodi:nodetypes="ccccc"
         inkscape:connector-curvature="0"
         id="path872"
         d="m 13.678008,24.880764 c 0.0255,16.55522 -0.61493,34.89742 0.68271,50.81655 0.22024,1.11495 0.94382,1.98987 1.84263,2.03162 4.59197,1.05966 11.53084,-12.42314 12.23936,-16.77507 2.00822,-14.7365 -1.24811,-27.15916 -1.78358,-40.70331"
         style="fill:none;stroke:#000000;stroke-width:0.86500001;stroke-linecap:butt;stroke-linejoin:miter;stroke-miterlimit:4;stroke-dasharray:none;stroke-opacity:1" />
      <path
         sodipodi:nodetypes="cc"
         inkscape:connector-curvature="0"
         id="path874"
         d="m 15.564068,30.066024 c -1.08257,16.46349 0.29525,31.83347 0.63928,47.66291"
         style="fill:none;stroke:#000000;stroke-width:0.76499999;stroke-linecap:butt;stroke-linejoin:miter;stroke-miterlimit:4;stroke-dasharray:none;stroke-opacity:1" />
      <path
         sodipodi:nodetypes="cc"
         inkscape:connector-curvature="0"
         id="path874-2"
         d="m 17.586448,31.099474 c -1.08392,16.02452 0.29561,30.98468 0.64007,46.39205"
         style="fill:none;stroke:#000000;stroke-width:0.75520003;stroke-linecap:butt;stroke-linejoin:miter;stroke-miterlimit:4;stroke-dasharray:none;stroke-opacity:1" />
      <path
         sodipodi:nodetypes="cc"
         inkscape:connector-curvature="0"
         id="path874-5"
         d="m 25.335731,27.000004 c 0.985859,16.69826 1.739809,25.353567 1.293908,38.870641"
         style="fill:none;stroke:#000000;stroke-width:0.72930712;stroke-linecap:butt;stroke-linejoin:miter;stroke-miterlimit:4;stroke-dasharray:none;stroke-opacity:1" />
      <path
         sodipodi:nodetypes="cc"
         inkscape:connector-curvature="0"
         id="path874-2-9"
         d="m 19.590778,31.467894 c -1.08575,15.44691 0.29611,29.86783 0.64116,44.71984"
         style="fill:none;stroke:#000000;stroke-width:0.74209106;stroke-linecap:butt;stroke-linejoin:miter;stroke-miterlimit:4;stroke-dasharray:none;stroke-opacity:1" />
      <path
         sodipodi:nodetypes="cc"
         inkscape:connector-curvature="0"
         id="path874-5-5"
         d="m 23.595698,29.391764 c 0.30103,17.356 1.29066,26.14037 1.43055,39.71306"
         style="fill:none;stroke:#000000;stroke-width:0.77511495;stroke-linecap:butt;stroke-linejoin:miter;stroke-miterlimit:4;stroke-dasharray:none;stroke-opacity:1" />
      <path
         sodipodi:nodetypes="cc"
         inkscape:connector-curvature="0"
         id="path874-2-9-7"
         d="m 21.125498,30.902004 c 0.8101,10.9845 0.3445,25.47107 1.44501,42.111"
         style="fill:none;stroke:#000000;stroke-width:0.72069281;stroke-linecap:butt;stroke-linejoin:miter;stroke-miterlimit:4;stroke-dasharray:none;stroke-opacity:1" />
    </g>
    <g
       id="g1310"
       transform="rotate(-10.35465,76.594133,16.946358)">
      <path
         sodipodi:nodetypes="sssss"
         inkscape:connector-curvature="0"
         id="path963"
         d="m 36.716358,8.4676183 c 0.920598,1.4744473 0.569845,2.8591407 -4.620964,3.0242947 -3.017253,0.096 -5.324402,-0.395041 -5.306908,-1.6947714 0.01625,-1.2067577 1.870094,-2.4062711 4.562734,-2.8589795 2.847824,-0.4787983 4.678041,0.4289964 5.365138,1.5294562 z"
         style="fill:none;fill-opacity:1;stroke:#000000;stroke-width:0.79094797;stroke-miterlimit:4;stroke-dasharray:none" />
      <path
         sodipodi:nodetypes="cccccc"
         inkscape:connector-curvature="0"
         id="path963-1-5-3"
         d="m 59.991967,44.466958 c 0.391687,1.385313 0.350123,2.066144 -0.339312,2.60036 -1.719434,1.092528 -3.744241,1.187741 -7.662917,0.695448 -8.375661,-0.363509 -6.009143,-4.007749 -5.696472,-5.344483 2.376904,1.288733 4.176596,1.224721 7.518981,1.147738 4.218537,-0.237694 5.984527,-0.47556 6.17972,0.900937 z"
         style="fill:none;fill-opacity:1;stroke:#000000;stroke-width:0.90895063;stroke-miterlimit:4;stroke-dasharray:none" />
      <path
         sodipodi:nodetypes="cc"
         inkscape:connector-curvature="0"
         id="path1041"
         d="m 30.936708,11.509308 c -0.41228,0.963282 -1.029129,1.752433 -1.235785,2.890747"
         style="fill:none;stroke:#000000;stroke-width:0.69661027;stroke-linecap:butt;stroke-linejoin:miter;stroke-miterlimit:4;stroke-dasharray:none;stroke-opacity:1" />
      <path
         sodipodi:nodetypes="cc"
         inkscape:connector-curvature="0"
         id="path1043"
         d="m 37.133997,9.4918579 c 0.129538,1.6033701 -0.713909,2.8120491 -1.06712,4.2206971"
         style="fill:none;stroke:#000000;stroke-width:0.69661027;stroke-linecap:butt;stroke-linejoin:miter;stroke-miterlimit:4;stroke-dasharray:none;stroke-opacity:1" />
      <path
         sodipodi:nodetypes="cc"
         inkscape:connector-curvature="0"
         id="path1041-3"
         d="m 35.150825,17.814984 c -1.589974,2.322874 -1.719438,3.428468 -1.484424,4.578929"
         style="fill:none;stroke:#000000;stroke-width:0.69661027;stroke-linecap:butt;stroke-linejoin:miter;stroke-miterlimit:4;stroke-dasharray:none;stroke-opacity:1" />
      <path
         sodipodi:nodetypes="cc"
         inkscape:connector-curvature="0"
         id="path1041-3-0"
         d="m 42.25855,15.798382 c 0.633178,1.449843 -1.109095,4.32225 -1.72026,5.094963"
         style="fill:none;stroke:#000000;stroke-width:0.69661027;stroke-linecap:butt;stroke-linejoin:miter;stroke-miterlimit:4;stroke-dasharray:none;stroke-opacity:1" />
      <path
         sodipodi:nodetypes="cc"
         inkscape:connector-curvature="0"
         id="path1041-3-6"
         d="m 39.590617,24.851116 c -1.589976,2.322874 -1.496886,3.938658 -1.445043,4.643998"
         style="fill:none;stroke:#000000;stroke-width:0.69661027;stroke-linecap:butt;stroke-linejoin:miter;stroke-miterlimit:4;stroke-dasharray:none;stroke-opacity:1" />
      <path
         sodipodi:nodetypes="cc"
         inkscape:connector-curvature="0"
         id="path1041-3-0-4"
         d="m 47.511828,23.244177 c 0.457661,1.166365 -0.618513,3.992903 -1.229681,4.765617"
         style="fill:none;stroke:#000000;stroke-width:0.69661027;stroke-linecap:butt;stroke-linejoin:miter;stroke-miterlimit:4;stroke-dasharray:none;stroke-opacity:1" />
      <path
         sodipodi:nodetypes="cc"
         inkscape:connector-curvature="0"
         id="path1041-3-0-4-9"
         d="m 44.133975,31.902554 c -0.443581,2.745903 -0.438077,3.454987 -0.862454,4.410998"
         style="fill:none;stroke:#000000;stroke-width:0.69661027;stroke-linecap:butt;stroke-linejoin:miter;stroke-miterlimit:4;stroke-dasharray:none;stroke-opacity:1" />
      <path
         sodipodi:nodetypes="cc"
         inkscape:connector-curvature="0"
         id="path1041-3-0-4-9-4"
         d="m 52.130301,29.810185 c 0.36285,1.447944 -0.720233,5.188357 -1.144611,6.144368"
         style="fill:none;stroke:#000000;stroke-width:0.69661027;stroke-linecap:butt;stroke-linejoin:miter;stroke-miterlimit:4;stroke-dasharray:none;stroke-opacity:1" />
      <path
         sodipodi:nodetypes="cc"
         inkscape:connector-curvature="0"
         id="path1041-3-6-1"
         d="m 47.861038,39.741846 c -2.039527,1.170535 -2.459776,4.648389 -2.013076,5.786827"
         style="fill:none;stroke:#000000;stroke-width:0.69661027;stroke-linecap:butt;stroke-linejoin:miter;stroke-miterlimit:4;stroke-dasharray:none;stroke-opacity:1" />
      <path
         sodipodi:nodetypes="cc"
         inkscape:connector-curvature="0"
         id="path1041-3-0-4-9-4-7"
         d="m 56.495649,38.042818 c 0.392951,0.248839 -0.841569,4.506168 -1.265947,5.462179"
         style="fill:none;stroke:#000000;stroke-width:0.69661027;stroke-linecap:butt;stroke-linejoin:miter;stroke-miterlimit:4;stroke-dasharray:none;stroke-opacity:1" />
      <path
         sodipodi:nodetypes="ccccc"
         inkscape:connector-curvature="0"
         id="path1186"
         d="m 50.776005,47.758963 c -0.364051,1.503508 -0.320945,1.845745 0.512527,2.906115 1.744683,1.611723 3.766653,1.379785 7.06888,0.694242 2.158299,-0.889852 1.91358,-3.777067 1.925259,-5.48924 -1.389593,3.252971 -5.376266,2.151684 -9.506666,1.888883 z"
         style="fill:none;stroke:#000000;stroke-width:0.76786196;stroke-linecap:butt;stroke-linejoin:miter;stroke-miterlimit:4;stroke-dasharray:none;stroke-opacity:1" />
      <path
         sodipodi:nodetypes="cccccc"
         inkscape:connector-curvature="0"
         id="path963-1-5-3-0"
         d="m 56.228729,36.705507 c 0.35681,1.261962 0.31895,1.882168 -0.309099,2.368818 -1.56633,0.995246 -3.410844,1.081981 -6.980588,0.633523 -7.629869,-0.331141 -5.474074,-3.650888 -5.189244,-4.868594 2.165259,1.173981 3.8047,1.115668 6.849469,1.04554 3.842906,-0.216536 5.451648,-0.433217 5.629462,0.820713 z"
         style="fill:none;fill-opacity:1;stroke:#000000;stroke-width:0.82801515;stroke-miterlimit:4;stroke-dasharray:none" />
      <path
         sodipodi:nodetypes="cccccc"
         inkscape:connector-curvature="0"
         id="path963-1-5-3-0-3"
         d="m 51.873248,28.820923 c 0.364528,1.2606 0.31821,1.882301 -0.35089,2.376189 -1.666485,1.01291 -3.617934,1.118504 -7.388383,0.705442 -8.065208,-0.254363 -5.751797,-3.601908 -5.438243,-4.82468 2.277853,1.154122 4.012146,1.079083 7.232696,0.977951 4.06606,-0.255887 5.7695,-0.48927 5.94482,0.765098 z"
         style="fill:none;fill-opacity:1;stroke:#000000;stroke-width:0.85220659;stroke-miterlimit:4;stroke-dasharray:none" />
      <path
         sodipodi:nodetypes="cccccc"
         inkscape:connector-curvature="0"
         id="path963-1-5-3-0-3-9"
         d="m 47.329888,21.769485 c 0.364529,1.2606 0.318209,1.8823 -0.350891,2.376189 -1.666482,1.012909 -3.617933,1.118504 -7.38838,0.705442 -8.065211,-0.254363 -5.7518,-3.601909 -5.438245,-4.82468 2.277852,1.154122 4.012148,1.079083 7.232695,0.977952 4.066061,-0.255887 5.769502,-0.48927 5.944821,0.765097 z"
         style="fill:none;fill-opacity:1;stroke:#000000;stroke-width:0.85220659;stroke-miterlimit:4;stroke-dasharray:none" />
      <path
         sodipodi:nodetypes="cccccc"
         inkscape:connector-curvature="0"
         id="path963-1-5-3-0-3-90"
         d="m 42.12987,14.867429 c 0.351475,1.262902 0.319475,1.882075 -0.280223,2.363723 -1.497127,0.983044 -3.267758,1.056748 -6.698822,0.583837 -7.329064,-0.384191 -5.259299,-4.182508 -4.837019,-4.939226 2.087464,1.187699 3.481186,1.181237 6.4045,1.132528 3.688718,-0.189334 5.23203,-0.394483 5.411564,0.859142 z"
         style="fill:none;fill-opacity:1;stroke:#000000;stroke-width:0.81087834;stroke-miterlimit:4;stroke-dasharray:none" />
    </g>
    <g
       id="g1291"
       transform="matrix(-0.24548401,-1.0209605,1.0209605,-0.24548401,-19.634297,119.08719)">
      <path
         sodipodi:nodetypes="cccccccccccccc"
         inkscape:connector-curvature="0"
         id="path1250"
         d="m 55.806025,70.020308 c 1.220163,-0.773161 1.868978,-0.607099 2.489606,-0.729034 0.632048,-0.885194 1.284663,-1.660569 3.223272,-1.575534 0.371261,-1.123298 0.541828,-1.553366 1.935671,-2.102607 0.05823,-1.637265 0.687945,-2.267018 1.46449,-2.992618 -0.283604,-0.547207 -0.701368,-0.991989 -0.315523,-2.05027 -5.884127,-6.42515 -15.606114,-6.600629 -22.353184,-2.313774 -10.261351,7.555035 -9.356379,19.863882 -6.046715,24.307612 0,0 1.237293,-1.960991 2.382684,-1.708575 0.704415,-0.500433 0.485829,-1.212537 2.438352,-1.242957 0.526898,-1.368836 1.451608,-1.577363 2.453529,-1.560687 0.481506,-0.643334 1.022614,-1.246174 2.306375,-1.344185 -0.562246,-2.024607 -1.163474,-5.742156 2.019144,-7.954125 4.401204,-2.130792 6.715984,0.05996 8.002299,1.266754 z"
         style="fill:none;stroke:#000000;stroke-width:0.94773203;stroke-linecap:butt;stroke-linejoin:miter;stroke-miterlimit:4;stroke-dasharray:none;stroke-opacity:1" />
      <path
         sodipodi:nodetypes="ccc"
         inkscape:connector-curvature="0"
         id="path1252"
         d="M 64.919064,62.620515 C 57.68901,57.469375 50.239622,56.105713 43.931738,60.233979 36.516437,65.328663 34.466931,75.187672 38.586319,80.855558"
         style="fill:none;stroke:#000000;stroke-width:0.57607239;stroke-linecap:butt;stroke-linejoin:miter;stroke-miterlimit:4;stroke-dasharray:none;stroke-opacity:1" />
      <path
         sodipodi:nodetypes="ccc"
         inkscape:connector-curvature="0"
         id="path1252-0"
         d="m 63.454574,65.613133 c -7.23006,-5.151141 -13.170165,-5.936491 -19.387496,-2.171916 -4.730395,2.824021 -6.853128,11.004218 -3.0424,16.171334"
         style="fill:none;stroke:#000000;stroke-width:0.57607239;stroke-linecap:butt;stroke-linejoin:miter;stroke-miterlimit:4;stroke-dasharray:none;stroke-opacity:1" />
      <path
         sodipodi:nodetypes="ccc"
         inkscape:connector-curvature="0"
         id="path1252-0-4"
         d="M 61.518903,67.71574 C 54.288845,62.5646 51.079648,63.523677 47.148037,64.880503 c -3.298653,1.17867 -7.728685,7.052247 -3.66983,13.171361"
         style="fill:none;stroke:#000000;stroke-width:0.57607239;stroke-linecap:butt;stroke-linejoin:miter;stroke-miterlimit:4;stroke-dasharray:none;stroke-opacity:1" />
      <path
         sodipodi:nodetypes="ccc"
         inkscape:connector-curvature="0"
         id="path1284"
         d="m 58.295631,69.291274 c -3.367251,-2.705532 -5.79024,-3.442205 -9.46377,-2.694564 -7.201182,2.661104 -4.254966,9.212665 -3.047279,10.110969"
         style="fill:none;stroke:#000000;stroke-width:0.45218587;stroke-linecap:butt;stroke-linejoin:miter;stroke-miterlimit:4;stroke-dasharray:none;stroke-opacity:1" />
    </g>
    <path
       style="fill:#ffcc00;fill-opacity:0.11899612;stroke:none;stroke-width:0.24634421;stroke-miterlimit:4;stroke-dasharray:none"
       d="m 59.463879,101.97945 c -0.441965,-0.0906 -1.381666,-0.4496 -2.088225,-0.79778 -4.502787,-2.218873 -6.311508,-9.22962 -4.792257,-18.575168 1.22133,-7.512918 6.744899,-17.270256 13.341519,-23.567687 3.068131,-2.928975 5.288725,-4.239739 7.230615,-4.268056 1.258144,-0.01835 1.73868,0.245132 2.677287,1.467961 1.784879,2.325358 2.645913,8.31381 2.227547,15.492485 -0.433527,7.438826 -1.296881,12.789869 -2.648661,16.416336 -3.161431,8.481274 -10.595593,14.929089 -15.947825,13.831909 z"
       id="path1492"
       inkscape:connector-curvature="0"
       transform="scale(0.26458333)" />
    <path
       style="fill:#ffcc00;fill-opacity:0.11899612;stroke:none;stroke-width:0.24634421;stroke-miterlimit:4;stroke-dasharray:none"
       d="m 59.126794,101.88316 c -4.163136,-1.11961 -6.43418,-4.69152 -6.990846,-10.995245 -0.296059,-3.352595 0.190435,-8.095854 1.182831,-11.532475 2.644285,-9.157029 11.115212,-20.821835 17.362294,-23.908578 1.656254,-0.81837 3.238063,-0.9418 4.080997,-0.318444 1.885855,1.394607 2.883514,4.399537 3.302507,9.947089 0.397471,5.262603 -0.461945,15.105447 -1.765039,20.214892 -1.181082,4.631037 -3.603927,8.998703 -6.742902,12.155442 -2.461561,2.475493 -5.137348,4.091559 -7.491625,4.524639 -1.335554,0.24568 -1.745242,0.23351 -2.938217,-0.0873 z"
       id="path1494"
       inkscape:connector-curvature="0"
       transform="scale(0.26458333)" />
    <path
       style="fill:#ffcc00;fill-opacity:0.11899612;stroke:none;stroke-width:0.24634421;stroke-miterlimit:4;stroke-dasharray:none"
       d="m 59.347428,101.91186 c -3.373205,-0.81821 -5.616146,-3.391435 -6.70549,-7.69289 -0.363625,-1.435832 -0.40718,-2.035421 -0.408606,-5.625 -0.0017,-4.234286 0.11596,-5.306166 0.930938,-8.482143 1.759174,-6.855509 6.559079,-14.865596 12.364395,-20.633714 2.084023,-2.070669 4.372891,-3.766177 5.858471,-4.339737 0.899091,-0.347126 2.624928,-0.382225 3.249687,-0.06609 0.715661,0.362132 1.703906,1.840469 2.213415,3.311095 0.657525,1.897847 0.958575,3.631637 1.194194,6.877516 0.389891,5.371117 -0.467457,14.899288 -1.81833,20.208074 -1.13783,4.47155 -3.489421,8.637004 -6.732868,11.926159 -2.453671,2.48825 -4.754964,3.92122 -7.23755,4.50667 -1.295049,0.30541 -1.685092,0.30676 -2.908256,0.0101 z"
       id="path1496"
       inkscape:connector-curvature="0"
       transform="scale(0.26458333)" />
    <path
       style="fill:#ffcc00;fill-opacity:0.11899612;stroke:none;stroke-width:0.24634421;stroke-miterlimit:4;stroke-dasharray:none"
       d="M 59.661795,101.97605 C 58.410119,101.72418 56.689418,100.82848 55.725982,99.927297 53.457145,97.805066 52.379748,94.729066 52.192664,89.839572 51.957175,83.685 52.999249,79.037986 55.975828,72.96897 c 4.562105,-9.301783 12.475018,-17.771732 16.90212,-18.09196 1.294683,-0.09365 1.967247,0.165688 2.6368,1.016737 1.765331,2.243853 2.521908,6.021284 2.518717,12.57544 -0.0026,5.304035 -0.456236,10.239606 -1.35737,14.76764 -1.336457,6.715448 -4.486218,12.195338 -9.156085,15.92957 -2.637191,2.108813 -5.771686,3.229533 -7.858215,2.809653 z"
       id="path1498"
       inkscape:connector-curvature="0"
       transform="scale(0.26458333)" />
    <path
       style="fill:#ffcc00;fill-opacity:0.11899612;stroke:none;stroke-width:0.24634421;stroke-miterlimit:4;stroke-dasharray:none"
       d="m 58.838879,101.73644 c -2.873422,-0.91113 -4.978151,-3.346477 -5.984378,-6.924434 -0.90777,-3.227865 -0.874888,-9.408377 0.07208,-13.54807 1.642795,-7.181518 6.355256,-15.376321 12.301282,-21.391495 4.037892,-4.08485 7.249105,-5.733865 9.284757,-4.767885 1.335782,0.63387 2.455271,2.960572 3.097898,6.438547 0.271886,1.471487 0.329975,2.703397 0.332475,7.050867 0.0048,8.279516 -0.932711,15.1237 -2.702779,19.732143 -2.130507,5.546862 -6.224468,10.468873 -10.508478,12.633937 -1.959248,0.99017 -4.261911,1.29355 -5.892857,0.77639 z"
       id="path1500"
       inkscape:connector-curvature="0"
       transform="scale(0.26458333)" />
    <path
       style="fill:#ffcc00;fill-opacity:0.11899612;stroke:none;stroke-width:0.24634421;stroke-miterlimit:4;stroke-dasharray:none"
       d="m 58.57726,101.62303 c -3.62853,-1.30476 -5.812905,-4.854433 -6.252353,-10.160264 -0.202019,-2.439148 -0.0358,-6.557589 0.358026,-8.870692 1.010493,-5.935097 4.466465,-12.989998 9.437784,-19.265961 1.521044,-1.920219 4.594909,-5.006603 6.182447,-6.207628 2.072449,-1.567875 3.454906,-2.177882 4.94497,-2.181959 1.124484,-0.0031 1.233398,0.03359 1.846523,0.62173 1.406056,1.348748 2.392233,4.280312 2.743588,8.15573 0.631782,6.968514 -0.346114,17.567098 -2.143463,23.231159 -2.606484,8.213927 -9.465163,15.055735 -15.070189,15.033125 -0.604258,-0.002 -1.496948,-0.15734 -2.047333,-0.35524 z"
       id="path1502"
       inkscape:connector-curvature="0"
       transform="scale(0.26458333)" />
    <path
       style="fill:#ffcc00;fill-opacity:0.11899612;stroke:none;stroke-width:0.24634421;stroke-miterlimit:4;stroke-dasharray:none"
       d="m 58.645299,101.64934 c -3.317747,-1.22389 -5.434228,-4.226693 -6.153761,-8.73079 -0.247012,-1.546237 -0.241786,-7.310518 0.0083,-9.187621 0.454698,-3.412479 1.644031,-7.011509 3.644906,-11.029816 4.381872,-8.800001 12.158879,-17.166208 16.514065,-17.765199 1.716092,-0.236023 2.785777,0.518102 3.795488,2.675804 1.817775,3.884497 2.071005,13.645094 0.599959,23.125109 -0.547579,3.528816 -1.129518,5.794234 -2.105772,8.1975 -2.316166,5.701763 -6.821284,10.693477 -11.182052,12.389823 -1.771447,0.68909 -3.78763,0.81712 -5.121163,0.32519 z"
       id="path1504"
       inkscape:connector-curvature="0"
       transform="scale(0.26458333)" />
    <path
       style="fill:#ffcc00;fill-opacity:0.11899612;stroke:none;stroke-width:0.24634421;stroke-miterlimit:4;stroke-dasharray:none"
       d="m 58.836547,101.66562 c -3.368093,-1.16466 -5.486094,-4.000952 -6.24729,-8.36597 -0.358612,-2.056437 -0.357028,-7.584385 0.0029,-9.973537 0.712722,-4.731497 2.916252,-10.142122 6.261069,-15.373649 3.654461,-5.715832 8.915568,-11.087884 12.335237,-12.595359 1.200805,-0.529344 2.8921,-0.554824 3.574809,-0.05385 1.27493,0.93554 2.348616,3.445165 2.8209,6.593548 0.988153,6.587327 0.0531,18.98573 -1.882804,24.965042 -0.292543,0.903565 -1.003655,2.607129 -1.58025,3.7857 -3.71455,7.592629 -10.676729,12.611415 -15.28453,11.018075 z"
       id="path1506"
       inkscape:connector-curvature="0"
       transform="scale(0.26458333)" />
    <path
       style="fill:#ffcc00;fill-opacity:0.11899612;stroke:none;stroke-width:0.24634421;stroke-miterlimit:4;stroke-dasharray:none"
       d="m 59.217046,101.7882 c -2.895038,-0.67964 -5.350228,-3.492275 -6.400044,-7.33181 -0.374717,-1.370466 -0.406194,-1.845461 -0.400321,-6.040991 0.0073,-5.217434 0.151639,-6.240181 1.430717,-10.137899 3.07754,-9.378136 11.712656,-20.6623 17.580766,-22.974126 1.060827,-0.417927 2.686484,-0.433728 3.299493,-0.03207 0.591497,0.387563 1.539368,1.870111 2.010186,3.144094 1.999189,5.409586 1.43428,20.584271 -1.05657,28.381773 -1.22331,3.829523 -3.382587,7.502852 -6.020043,10.241202 -3.634665,3.773707 -7.368627,5.471847 -10.444184,4.749827 z"
       id="path1508"
       inkscape:connector-curvature="0"
       transform="scale(0.26458333)" />
    <path
       style="fill:#ffcc00;fill-opacity:0;stroke:none;stroke-width:0.24634421;stroke-miterlimit:4;stroke-dasharray:none"
       d="m 59.217046,101.7882 c -2.150961,-0.50496 -4.280308,-2.402098 -5.450138,-4.855794 -1.235987,-2.592457 -1.355901,-3.35207 -1.344509,-8.517007 0.0089,-4.018879 0.05711,-4.77374 0.410865,-6.428572 1.601197,-7.49022 6.428377,-16.024227 12.519753,-22.133763 3.322361,-3.332266 5.736922,-4.830523 7.784772,-4.830523 1.557477,0 2.10752,0.415977 3.075229,2.325677 1.00638,1.986012 1.416798,4.026724 1.635766,8.133462 0.284818,5.341751 -0.179746,12.16429 -1.178594,17.308719 -1.176759,6.060732 -3.486476,10.652662 -7.287681,14.488582 -3.589292,3.622069 -7.172989,5.211739 -10.165463,4.509219 z"
       id="path1510"
       inkscape:connector-curvature="0"
       transform="scale(0.26458333)" />
    <path
       style="fill:#ffcc00;fill-opacity:0;stroke:none;stroke-width:0.24634421;stroke-miterlimit:4;stroke-dasharray:none"
       d="m 56.106736,112.41879 c -3.826544,-0.92307 -6.198282,-2.20656 -8.319772,-4.50231 -1.997773,-2.16187 -3.191551,-4.61563 -3.934098,-8.086344 -0.330269,-1.5437 -0.399464,-2.439898 -0.40566,-5.254023 C 43.429374,86.478034 45.664767,78.82515 50.6975,69.754684 57.209667,58.01784 67.732298,46.048046 74.653557,42.503987 l 1.514204,-0.775355 0.65453,0.312123 c 2.279299,1.086922 4.780584,4.920561 6.398391,9.806603 1.955752,5.906695 2.851538,12.158119 2.860259,19.960898 0.0082,7.319632 -0.76345,12.884435 -2.50088,18.035714 -1.012243,3.001179 -3.454459,7.498586 -5.575727,10.26786 -4.364091,5.69722 -10.864737,10.38063 -16.381875,11.80236 -1.678987,0.43267 -4.676971,0.70694 -5.515723,0.5046 z m 5.913703,-7.23188 c 7.490649,-1.04185 14.867929,-9.17649 17.397167,-19.18317 1.14005,-4.510502 1.83515,-11.087075 1.849532,-17.499056 0.01148,-5.114964 -0.197534,-7.28018 -0.972802,-10.077829 -1.433293,-5.172209 -4.769318,-7.73686 -8.744079,-6.722223 -2.516109,0.642286 -4.920046,2.199066 -8.007378,5.185546 -4.213253,4.075622 -7.981386,9.344267 -10.720023,14.988854 -2.640075,5.441443 -3.696435,9.735252 -3.892536,15.822081 -0.212156,6.585157 1.160762,11.228659 4.224854,14.289357 1.86914,1.86707 3.7538,2.82074 6.344419,3.21037 0.491071,0.0739 0.94731,0.14431 1.013865,0.15657 0.06655,0.0122 0.744696,-0.0645 1.506981,-0.1705 z"
       id="path1512"
       inkscape:connector-curvature="0"
       transform="scale(0.26458333)" />
    <path
       style="fill:#ffcc00;fill-opacity:0;stroke:none;stroke-width:0.24634421;stroke-miterlimit:4;stroke-dasharray:none"
       d="m 56.106736,112.41879 c -3.826544,-0.92307 -6.198282,-2.20656 -8.319772,-4.50231 -1.997773,-2.16187 -3.191551,-4.61563 -3.934098,-8.086344 -0.330269,-1.5437 -0.399464,-2.439898 -0.40566,-5.254023 C 43.429374,86.478034 45.664767,78.82515 50.6975,69.754684 57.209667,58.01784 67.732298,46.048046 74.653557,42.503987 l 1.514204,-0.775355 0.65453,0.312123 c 2.279299,1.086922 4.780584,4.920561 6.398391,9.806603 1.955752,5.906695 2.851538,12.158119 2.860259,19.960898 0.0082,7.319632 -0.76345,12.884435 -2.50088,18.035714 -1.012243,3.001179 -3.454459,7.498586 -5.575727,10.26786 -4.364091,5.69722 -10.864737,10.38063 -16.381875,11.80236 -1.678987,0.43267 -4.676971,0.70694 -5.515723,0.5046 z m 5.913703,-7.23188 c 7.490649,-1.04185 14.867929,-9.17649 17.397167,-19.18317 1.14005,-4.510502 1.83515,-11.087075 1.849532,-17.499056 0.01148,-5.114964 -0.197534,-7.28018 -0.972802,-10.077829 -1.433293,-5.172209 -4.769318,-7.73686 -8.744079,-6.722223 -2.516109,0.642286 -4.920046,2.199066 -8.007378,5.185546 -4.213253,4.075622 -7.981386,9.344267 -10.720023,14.988854 -2.640075,5.441443 -3.696435,9.735252 -3.892536,15.822081 -0.212156,6.585157 1.160762,11.228659 4.224854,14.289357 1.86914,1.86707 3.7538,2.82074 6.344419,3.21037 0.491071,0.0739 0.94731,0.14431 1.013865,0.15657 0.06655,0.0122 0.744696,-0.0645 1.506981,-0.1705 z"
       id="path1514"
       inkscape:connector-curvature="0"
       transform="scale(0.26458333)" />
    <path
       style="fill:#ffcc00;fill-opacity:0;stroke:none;stroke-width:0.24634421;stroke-miterlimit:4;stroke-dasharray:none"
       d="m 56.106736,112.41879 c -3.826544,-0.92307 -6.198282,-2.20656 -8.319772,-4.50231 -1.997773,-2.16187 -3.191551,-4.61563 -3.934098,-8.086344 -0.330269,-1.5437 -0.399464,-2.439898 -0.40566,-5.254023 C 43.429374,86.478034 45.664767,78.82515 50.6975,69.754684 57.209667,58.01784 67.732298,46.048046 74.653557,42.503987 l 1.514204,-0.775355 0.65453,0.312123 c 2.279299,1.086922 4.780584,4.920561 6.398391,9.806603 1.955752,5.906695 2.851538,12.158119 2.860259,19.960898 0.0082,7.319632 -0.76345,12.884435 -2.50088,18.035714 -1.012243,3.001179 -3.454459,7.498586 -5.575727,10.26786 -4.364091,5.69722 -10.864737,10.38063 -16.381875,11.80236 -1.678987,0.43267 -4.676971,0.70694 -5.515723,0.5046 z m 5.913703,-7.23188 c 7.490649,-1.04185 14.867929,-9.17649 17.397167,-19.18317 1.14005,-4.510502 1.83515,-11.087075 1.849532,-17.499056 0.01148,-5.114964 -0.197534,-7.28018 -0.972802,-10.077829 -1.433293,-5.172209 -4.769318,-7.73686 -8.744079,-6.722223 -2.516109,0.642286 -4.920046,2.199066 -8.007378,5.185546 -4.213253,4.075622 -7.981386,9.344267 -10.720023,14.988854 -2.640075,5.441443 -3.696435,9.735252 -3.892536,15.822081 -0.212156,6.585157 1.160762,11.228659 4.224854,14.289357 1.86914,1.86707 3.7538,2.82074 6.344419,3.21037 0.491071,0.0739 0.94731,0.14431 1.013865,0.15657 0.06655,0.0122 0.744696,-0.0645 1.506981,-0.1705 z"
       id="path1516"
       inkscape:connector-curvature="0"
       transform="scale(0.26458333)" />
    <path
       style="fill:#ffcc00;fill-opacity:0;stroke:none;stroke-width:0.24634421;stroke-miterlimit:4;stroke-dasharray:none"
       d="m 56.106736,112.41879 c -3.826544,-0.92307 -6.198282,-2.20656 -8.319772,-4.50231 -1.997773,-2.16187 -3.191551,-4.61563 -3.934098,-8.086344 -0.330269,-1.5437 -0.399464,-2.439898 -0.40566,-5.254023 C 43.429374,86.478034 45.664767,78.82515 50.6975,69.754684 57.209667,58.01784 67.732298,46.048046 74.653557,42.503987 l 1.514204,-0.775355 0.65453,0.312123 c 2.279299,1.086922 4.780584,4.920561 6.398391,9.806603 1.955752,5.906695 2.851538,12.158119 2.860259,19.960898 0.0082,7.319632 -0.76345,12.884435 -2.50088,18.035714 -1.012243,3.001179 -3.454459,7.498586 -5.575727,10.26786 -4.364091,5.69722 -10.864737,10.38063 -16.381875,11.80236 -1.678987,0.43267 -4.676971,0.70694 -5.515723,0.5046 z m 5.913703,-7.23188 c 7.490649,-1.04185 14.867929,-9.17649 17.397167,-19.18317 1.14005,-4.510502 1.83515,-11.087075 1.849532,-17.499056 0.01148,-5.114964 -0.197534,-7.28018 -0.972802,-10.077829 -1.433293,-5.172209 -4.769318,-7.73686 -8.744079,-6.722223 -2.516109,0.642286 -4.920046,2.199066 -8.007378,5.185546 -4.213253,4.075622 -7.981386,9.344267 -10.720023,14.988854 -2.640075,5.441443 -3.696435,9.735252 -3.892536,15.822081 -0.212156,6.585157 1.160762,11.228659 4.224854,14.289357 1.86914,1.86707 3.7538,2.82074 6.344419,3.21037 0.491071,0.0739 0.94731,0.14431 1.013865,0.15657 0.06655,0.0122 0.744696,-0.0645 1.506981,-0.1705 z"
       id="path1518"
       inkscape:connector-curvature="0"
       transform="scale(0.26458333)" />
    <path
       style="fill:#ffcc00;fill-opacity:0;stroke:none;stroke-width:0.24634421;stroke-miterlimit:4;stroke-dasharray:none"
       d="m 56.106736,112.41879 c -3.826544,-0.92307 -6.198282,-2.20656 -8.319772,-4.50231 -1.997773,-2.16187 -3.191551,-4.61563 -3.934098,-8.086344 -0.330269,-1.5437 -0.399464,-2.439898 -0.40566,-5.254023 C 43.429374,86.478034 45.664767,78.82515 50.6975,69.754684 57.209667,58.01784 67.732298,46.048046 74.653557,42.503987 l 1.514204,-0.775355 0.65453,0.312123 c 2.279299,1.086922 4.780584,4.920561 6.398391,9.806603 1.955752,5.906695 2.851538,12.158119 2.860259,19.960898 0.0082,7.319632 -0.76345,12.884435 -2.50088,18.035714 -1.012243,3.001179 -3.454459,7.498586 -5.575727,10.26786 -4.364091,5.69722 -10.864737,10.38063 -16.381875,11.80236 -1.678987,0.43267 -4.676971,0.70694 -5.515723,0.5046 z m 5.913703,-7.23188 c 7.490649,-1.04185 14.867929,-9.17649 17.397167,-19.18317 1.14005,-4.510502 1.83515,-11.087075 1.849532,-17.499056 0.01148,-5.114964 -0.197534,-7.28018 -0.972802,-10.077829 -1.433293,-5.172209 -4.769318,-7.73686 -8.744079,-6.722223 -2.516109,0.642286 -4.920046,2.199066 -8.007378,5.185546 -4.213253,4.075622 -7.981386,9.344267 -10.720023,14.988854 -2.640075,5.441443 -3.696435,9.735252 -3.892536,15.822081 -0.212156,6.585157 1.160762,11.228659 4.224854,14.289357 1.86914,1.86707 3.7538,2.82074 6.344419,3.21037 0.491071,0.0739 0.94731,0.14431 1.013865,0.15657 0.06655,0.0122 0.744696,-0.0645 1.506981,-0.1705 z"
       id="path1520"
       inkscape:connector-curvature="0"
       transform="scale(0.26458333)" />
    <path
       style="fill:#ffcc00;fill-opacity:0;stroke:none;stroke-width:0.24634421;stroke-miterlimit:4;stroke-dasharray:none"
       d="m 56.106736,112.41879 c -3.826544,-0.92307 -6.198282,-2.20656 -8.319772,-4.50231 -1.997773,-2.16187 -3.191551,-4.61563 -3.934098,-8.086344 -0.330269,-1.5437 -0.399464,-2.439898 -0.40566,-5.254023 C 43.429374,86.478034 45.664767,78.82515 50.6975,69.754684 57.209667,58.01784 67.732298,46.048046 74.653557,42.503987 l 1.514204,-0.775355 0.65453,0.312123 c 2.279299,1.086922 4.780584,4.920561 6.398391,9.806603 1.955752,5.906695 2.851538,12.158119 2.860259,19.960898 0.0082,7.319632 -0.76345,12.884435 -2.50088,18.035714 -1.012243,3.001179 -3.454459,7.498586 -5.575727,10.26786 -4.364091,5.69722 -10.864737,10.38063 -16.381875,11.80236 -1.678987,0.43267 -4.676971,0.70694 -5.515723,0.5046 z m 5.913703,-7.23188 c 7.490649,-1.04185 14.867929,-9.17649 17.397167,-19.18317 1.14005,-4.510502 1.83515,-11.087075 1.849532,-17.499056 0.01148,-5.114964 -0.197534,-7.28018 -0.972802,-10.077829 -1.433293,-5.172209 -4.769318,-7.73686 -8.744079,-6.722223 -2.516109,0.642286 -4.920046,2.199066 -8.007378,5.185546 -4.213253,4.075622 -7.981386,9.344267 -10.720023,14.988854 -2.640075,5.441443 -3.696435,9.735252 -3.892536,15.822081 -0.212156,6.585157 1.160762,11.228659 4.224854,14.289357 1.86914,1.86707 3.7538,2.82074 6.344419,3.21037 0.491071,0.0739 0.94731,0.14431 1.013865,0.15657 0.06655,0.0122 0.744696,-0.0645 1.506981,-0.1705 z"
       id="path1522"
       inkscape:connector-curvature="0"
       transform="scale(0.26458333)" />
    <path
       style="fill:#ffcc00;fill-opacity:0;stroke:none;stroke-width:0.24634421;stroke-miterlimit:4;stroke-dasharray:none"
       d="m 56.106736,112.41879 c -3.826544,-0.92307 -6.198282,-2.20656 -8.319772,-4.50231 -1.997773,-2.16187 -3.191551,-4.61563 -3.934098,-8.086344 -0.330269,-1.5437 -0.399464,-2.439898 -0.40566,-5.254023 C 43.429374,86.478034 45.664767,78.82515 50.6975,69.754684 57.209667,58.01784 67.732298,46.048046 74.653557,42.503987 l 1.514204,-0.775355 0.65453,0.312123 c 2.279299,1.086922 4.780584,4.920561 6.398391,9.806603 1.955752,5.906695 2.851538,12.158119 2.860259,19.960898 0.0082,7.319632 -0.76345,12.884435 -2.50088,18.035714 -1.012243,3.001179 -3.454459,7.498586 -5.575727,10.26786 -4.364091,5.69722 -10.864737,10.38063 -16.381875,11.80236 -1.678987,0.43267 -4.676971,0.70694 -5.515723,0.5046 z m 5.913703,-7.23188 c 7.490649,-1.04185 14.867929,-9.17649 17.397167,-19.18317 1.14005,-4.510502 1.83515,-11.087075 1.849532,-17.499056 0.01148,-5.114964 -0.197534,-7.28018 -0.972802,-10.077829 -1.433293,-5.172209 -4.769318,-7.73686 -8.744079,-6.722223 -2.516109,0.642286 -4.920046,2.199066 -8.007378,5.185546 -4.213253,4.075622 -7.981386,9.344267 -10.720023,14.988854 -2.640075,5.441443 -3.696435,9.735252 -3.892536,15.822081 -0.212156,6.585157 1.160762,11.228659 4.224854,14.289357 1.86914,1.86707 3.7538,2.82074 6.344419,3.21037 0.491071,0.0739 0.94731,0.14431 1.013865,0.15657 0.06655,0.0122 0.744696,-0.0645 1.506981,-0.1705 z"
       id="path1524"
       inkscape:connector-curvature="0"
       transform="scale(0.26458333)" />
    <path
       style="fill:#ffcc00;fill-opacity:0;stroke:none;stroke-width:0.24634421;stroke-miterlimit:4;stroke-dasharray:none"
       d="m 56.106736,112.41879 c -3.826544,-0.92307 -6.198282,-2.20656 -8.319772,-4.50231 -1.997773,-2.16187 -3.191551,-4.61563 -3.934098,-8.086344 -0.330269,-1.5437 -0.399464,-2.439898 -0.40566,-5.254023 C 43.429374,86.478034 45.664767,78.82515 50.6975,69.754684 57.209667,58.01784 67.732298,46.048046 74.653557,42.503987 l 1.514204,-0.775355 0.65453,0.312123 c 2.279299,1.086922 4.780584,4.920561 6.398391,9.806603 1.955752,5.906695 2.851538,12.158119 2.860259,19.960898 0.0082,7.319632 -0.76345,12.884435 -2.50088,18.035714 -1.012243,3.001179 -3.454459,7.498586 -5.575727,10.26786 -4.364091,5.69722 -10.864737,10.38063 -16.381875,11.80236 -1.678987,0.43267 -4.676971,0.70694 -5.515723,0.5046 z m 5.913703,-7.23188 c 7.490649,-1.04185 14.867929,-9.17649 17.397167,-19.18317 1.14005,-4.510502 1.83515,-11.087075 1.849532,-17.499056 0.01148,-5.114964 -0.197534,-7.28018 -0.972802,-10.077829 -1.433293,-5.172209 -4.769318,-7.73686 -8.744079,-6.722223 -2.516109,0.642286 -4.920046,2.199066 -8.007378,5.185546 -4.213253,4.075622 -7.981386,9.344267 -10.720023,14.988854 -2.640075,5.441443 -3.696435,9.735252 -3.892536,15.822081 -0.212156,6.585157 1.160762,11.228659 4.224854,14.289357 1.86914,1.86707 3.7538,2.82074 6.344419,3.21037 0.491071,0.0739 0.94731,0.14431 1.013865,0.15657 0.06655,0.0122 0.744696,-0.0645 1.506981,-0.1705 z"
       id="path1526"
       inkscape:connector-curvature="0"
       transform="scale(0.26458333)" />
    <path
       style="fill:#ffcc00;fill-opacity:0;stroke:none;stroke-width:0.24634421;stroke-miterlimit:4;stroke-dasharray:none"
       d="m 56.106736,112.41879 c -3.826544,-0.92307 -6.198282,-2.20656 -8.319772,-4.50231 -1.997773,-2.16187 -3.191551,-4.61563 -3.934098,-8.086344 -0.330269,-1.5437 -0.399464,-2.439898 -0.40566,-5.254023 C 43.429374,86.478034 45.664767,78.82515 50.6975,69.754684 57.209667,58.01784 67.732298,46.048046 74.653557,42.503987 l 1.514204,-0.775355 0.65453,0.312123 c 2.279299,1.086922 4.780584,4.920561 6.398391,9.806603 1.955752,5.906695 2.851538,12.158119 2.860259,19.960898 0.0082,7.319632 -0.76345,12.884435 -2.50088,18.035714 -1.012243,3.001179 -3.454459,7.498586 -5.575727,10.26786 -4.364091,5.69722 -10.864737,10.38063 -16.381875,11.80236 -1.678987,0.43267 -4.676971,0.70694 -5.515723,0.5046 z m 5.913703,-7.23188 c 7.490649,-1.04185 14.867929,-9.17649 17.397167,-19.18317 1.14005,-4.510502 1.83515,-11.087075 1.849532,-17.499056 0.01148,-5.114964 -0.197534,-7.28018 -0.972802,-10.077829 -1.433293,-5.172209 -4.769318,-7.73686 -8.744079,-6.722223 -2.516109,0.642286 -4.920046,2.199066 -8.007378,5.185546 -4.213253,4.075622 -7.981386,9.344267 -10.720023,14.988854 -2.640075,5.441443 -3.696435,9.735252 -3.892536,15.822081 -0.212156,6.585157 1.160762,11.228659 4.224854,14.289357 1.86914,1.86707 3.7538,2.82074 6.344419,3.21037 0.491071,0.0739 0.94731,0.14431 1.013865,0.15657 0.06655,0.0122 0.744696,-0.0645 1.506981,-0.1705 z"
       id="path1528"
       inkscape:connector-curvature="0"
       transform="scale(0.26458333)" />
    <path
       style="fill:#ffcc00;fill-opacity:0;stroke:none;stroke-width:0.24634421;stroke-miterlimit:4;stroke-dasharray:none"
       d="m 56.106736,112.41879 c -3.826544,-0.92307 -6.198282,-2.20656 -8.319772,-4.50231 -1.997773,-2.16187 -3.191551,-4.61563 -3.934098,-8.086344 -0.330269,-1.5437 -0.399464,-2.439898 -0.40566,-5.254023 C 43.429374,86.478034 45.664767,78.82515 50.6975,69.754684 57.209667,58.01784 67.732298,46.048046 74.653557,42.503987 l 1.514204,-0.775355 0.65453,0.312123 c 2.279299,1.086922 4.780584,4.920561 6.398391,9.806603 1.955752,5.906695 2.851538,12.158119 2.860259,19.960898 0.0082,7.319632 -0.76345,12.884435 -2.50088,18.035714 -1.012243,3.001179 -3.454459,7.498586 -5.575727,10.26786 -4.364091,5.69722 -10.864737,10.38063 -16.381875,11.80236 -1.678987,0.43267 -4.676971,0.70694 -5.515723,0.5046 z m 5.913703,-7.23188 c 7.490649,-1.04185 14.867929,-9.17649 17.397167,-19.18317 1.14005,-4.510502 1.83515,-11.087075 1.849532,-17.499056 0.01148,-5.114964 -0.197534,-7.28018 -0.972802,-10.077829 -1.433293,-5.172209 -4.769318,-7.73686 -8.744079,-6.722223 -2.516109,0.642286 -4.920046,2.199066 -8.007378,5.185546 -4.213253,4.075622 -7.981386,9.344267 -10.720023,14.988854 -2.640075,5.441443 -3.696435,9.735252 -3.892536,15.822081 -0.212156,6.585157 1.160762,11.228659 4.224854,14.289357 1.86914,1.86707 3.7538,2.82074 6.344419,3.21037 0.491071,0.0739 0.94731,0.14431 1.013865,0.15657 0.06655,0.0122 0.744696,-0.0645 1.506981,-0.1705 z"
       id="path1530"
       inkscape:connector-curvature="0"
       transform="scale(0.26458333)" />
    <path
       style="fill:#ffcc00;fill-opacity:0;stroke:none;stroke-width:0.24634421;stroke-miterlimit:4;stroke-dasharray:none"
       d="m 56.106736,112.41879 c -3.826544,-0.92307 -6.198282,-2.20656 -8.319772,-4.50231 -1.997773,-2.16187 -3.191551,-4.61563 -3.934098,-8.086344 -0.330269,-1.5437 -0.399464,-2.439898 -0.40566,-5.254023 C 43.429374,86.478034 45.664767,78.82515 50.6975,69.754684 57.209667,58.01784 67.732298,46.048046 74.653557,42.503987 l 1.514204,-0.775355 0.65453,0.312123 c 2.279299,1.086922 4.780584,4.920561 6.398391,9.806603 1.955752,5.906695 2.851538,12.158119 2.860259,19.960898 0.0082,7.319632 -0.76345,12.884435 -2.50088,18.035714 -1.012243,3.001179 -3.454459,7.498586 -5.575727,10.26786 -4.364091,5.69722 -10.864737,10.38063 -16.381875,11.80236 -1.678987,0.43267 -4.676971,0.70694 -5.515723,0.5046 z m 5.913703,-7.23188 c 7.490649,-1.04185 14.867929,-9.17649 17.397167,-19.18317 1.14005,-4.510502 1.83515,-11.087075 1.849532,-17.499056 0.01148,-5.114964 -0.197534,-7.28018 -0.972802,-10.077829 -1.433293,-5.172209 -4.769318,-7.73686 -8.744079,-6.722223 -2.516109,0.642286 -4.920046,2.199066 -8.007378,5.185546 -4.213253,4.075622 -7.981386,9.344267 -10.720023,14.988854 -2.640075,5.441443 -3.696435,9.735252 -3.892536,15.822081 -0.212156,6.585157 1.160762,11.228659 4.224854,14.289357 1.86914,1.86707 3.7538,2.82074 6.344419,3.21037 0.491071,0.0739 0.94731,0.14431 1.013865,0.15657 0.06655,0.0122 0.744696,-0.0645 1.506981,-0.1705 z"
       id="path1532"
       inkscape:connector-curvature="0"
       transform="scale(0.26458333)" />
    <path
       style="fill:#ffcc00;fill-opacity:0;stroke:none;stroke-width:0.24634421;stroke-miterlimit:4;stroke-dasharray:none"
       d="m 56.106736,112.41879 c -3.826544,-0.92307 -6.198282,-2.20656 -8.319772,-4.50231 -1.997773,-2.16187 -3.191551,-4.61563 -3.934098,-8.086344 -0.330269,-1.5437 -0.399464,-2.439898 -0.40566,-5.254023 C 43.429374,86.478034 45.664767,78.82515 50.6975,69.754684 57.209667,58.01784 67.732298,46.048046 74.653557,42.503987 l 1.514204,-0.775355 0.65453,0.312123 c 2.279299,1.086922 4.780584,4.920561 6.398391,9.806603 1.955752,5.906695 2.851538,12.158119 2.860259,19.960898 0.0082,7.319632 -0.76345,12.884435 -2.50088,18.035714 -1.012243,3.001179 -3.454459,7.498586 -5.575727,10.26786 -4.364091,5.69722 -10.864737,10.38063 -16.381875,11.80236 -1.678987,0.43267 -4.676971,0.70694 -5.515723,0.5046 z m 5.913703,-7.23188 c 7.490649,-1.04185 14.867929,-9.17649 17.397167,-19.18317 1.14005,-4.510502 1.83515,-11.087075 1.849532,-17.499056 0.01148,-5.114964 -0.197534,-7.28018 -0.972802,-10.077829 -1.433293,-5.172209 -4.769318,-7.73686 -8.744079,-6.722223 -2.516109,0.642286 -4.920046,2.199066 -8.007378,5.185546 -4.213253,4.075622 -7.981386,9.344267 -10.720023,14.988854 -2.640075,5.441443 -3.696435,9.735252 -3.892536,15.822081 -0.212156,6.585157 1.160762,11.228659 4.224854,14.289357 1.86914,1.86707 3.7538,2.82074 6.344419,3.21037 0.491071,0.0739 0.94731,0.14431 1.013865,0.15657 0.06655,0.0122 0.744696,-0.0645 1.506981,-0.1705 z"
       id="path1534"
       inkscape:connector-curvature="0"
       transform="scale(0.26458333)" />
    <path
       style="fill:#ffcc00;fill-opacity:0;stroke:none;stroke-width:0.24634421;stroke-miterlimit:4;stroke-dasharray:none"
       d="m 56.106736,112.41879 c -3.826544,-0.92307 -6.198282,-2.20656 -8.319772,-4.50231 -1.997773,-2.16187 -3.191551,-4.61563 -3.934098,-8.086344 -0.330269,-1.5437 -0.399464,-2.439898 -0.40566,-5.254023 C 43.429374,86.478034 45.664767,78.82515 50.6975,69.754684 57.209667,58.01784 67.732298,46.048046 74.653557,42.503987 l 1.514204,-0.775355 0.65453,0.312123 c 2.279299,1.086922 4.780584,4.920561 6.398391,9.806603 1.955752,5.906695 2.851538,12.158119 2.860259,19.960898 0.0082,7.319632 -0.76345,12.884435 -2.50088,18.035714 -1.012243,3.001179 -3.454459,7.498586 -5.575727,10.26786 -4.364091,5.69722 -10.864737,10.38063 -16.381875,11.80236 -1.678987,0.43267 -4.676971,0.70694 -5.515723,0.5046 z m 5.913703,-7.23188 c 7.490649,-1.04185 14.867929,-9.17649 17.397167,-19.18317 1.14005,-4.510502 1.83515,-11.087075 1.849532,-17.499056 0.01148,-5.114964 -0.197534,-7.28018 -0.972802,-10.077829 -1.433293,-5.172209 -4.769318,-7.73686 -8.744079,-6.722223 -2.516109,0.642286 -4.920046,2.199066 -8.007378,5.185546 -4.213253,4.075622 -7.981386,9.344267 -10.720023,14.988854 -2.640075,5.441443 -3.696435,9.735252 -3.892536,15.822081 -0.212156,6.585157 1.160762,11.228659 4.224854,14.289357 1.86914,1.86707 3.7538,2.82074 6.344419,3.21037 0.491071,0.0739 0.94731,0.14431 1.013865,0.15657 0.06655,0.0122 0.744696,-0.0645 1.506981,-0.1705 z"
       id="path1536"
       inkscape:connector-curvature="0"
       transform="scale(0.26458333)" />
    <path
       style="fill:#ffcc00;fill-opacity:0;stroke:none;stroke-width:0.24634421;stroke-miterlimit:4;stroke-dasharray:none"
       d="m 56.106736,112.41879 c -3.826544,-0.92307 -6.198282,-2.20656 -8.319772,-4.50231 -1.997773,-2.16187 -3.191551,-4.61563 -3.934098,-8.086344 -0.330269,-1.5437 -0.399464,-2.439898 -0.40566,-5.254023 C 43.429374,86.478034 45.664767,78.82515 50.6975,69.754684 57.209667,58.01784 67.732298,46.048046 74.653557,42.503987 l 1.514204,-0.775355 0.65453,0.312123 c 2.279299,1.086922 4.780584,4.920561 6.398391,9.806603 1.955752,5.906695 2.851538,12.158119 2.860259,19.960898 0.0082,7.319632 -0.76345,12.884435 -2.50088,18.035714 -1.012243,3.001179 -3.454459,7.498586 -5.575727,10.26786 -4.364091,5.69722 -10.864737,10.38063 -16.381875,11.80236 -1.678987,0.43267 -4.676971,0.70694 -5.515723,0.5046 z m 5.913703,-7.23188 c 7.490649,-1.04185 14.867929,-9.17649 17.397167,-19.18317 1.14005,-4.510502 1.83515,-11.087075 1.849532,-17.499056 0.01148,-5.114964 -0.197534,-7.28018 -0.972802,-10.077829 -1.433293,-5.172209 -4.769318,-7.73686 -8.744079,-6.722223 -2.516109,0.642286 -4.920046,2.199066 -8.007378,5.185546 -4.213253,4.075622 -7.981386,9.344267 -10.720023,14.988854 -2.640075,5.441443 -3.696435,9.735252 -3.892536,15.822081 -0.212156,6.585157 1.160762,11.228659 4.224854,14.289357 1.86914,1.86707 3.7538,2.82074 6.344419,3.21037 0.491071,0.0739 0.94731,0.14431 1.013865,0.15657 0.06655,0.0122 0.744696,-0.0645 1.506981,-0.1705 z"
       id="path1538"
       inkscape:connector-curvature="0"
       transform="scale(0.26458333)" />
    <path
       style="fill:#ffcc00;fill-opacity:0;stroke:none;stroke-width:0.24634421;stroke-miterlimit:4;stroke-dasharray:none"
       d="m 56.106736,112.41879 c -3.826544,-0.92307 -6.198282,-2.20656 -8.319772,-4.50231 -1.997773,-2.16187 -3.191551,-4.61563 -3.934098,-8.086344 -0.330269,-1.5437 -0.399464,-2.439898 -0.40566,-5.254023 C 43.429374,86.478034 45.664767,78.82515 50.6975,69.754684 57.209667,58.01784 67.732298,46.048046 74.653557,42.503987 l 1.514204,-0.775355 0.65453,0.312123 c 2.279299,1.086922 4.780584,4.920561 6.398391,9.806603 1.955752,5.906695 2.851538,12.158119 2.860259,19.960898 0.0082,7.319632 -0.76345,12.884435 -2.50088,18.035714 -1.012243,3.001179 -3.454459,7.498586 -5.575727,10.26786 -4.364091,5.69722 -10.864737,10.38063 -16.381875,11.80236 -1.678987,0.43267 -4.676971,0.70694 -5.515723,0.5046 z m 5.913703,-7.23188 c 7.490649,-1.04185 14.867929,-9.17649 17.397167,-19.18317 1.14005,-4.510502 1.83515,-11.087075 1.849532,-17.499056 0.01148,-5.114964 -0.197534,-7.28018 -0.972802,-10.077829 -1.433293,-5.172209 -4.769318,-7.73686 -8.744079,-6.722223 -2.516109,0.642286 -4.920046,2.199066 -8.007378,5.185546 -4.213253,4.075622 -7.981386,9.344267 -10.720023,14.988854 -2.640075,5.441443 -3.696435,9.735252 -3.892536,15.822081 -0.212156,6.585157 1.160762,11.228659 4.224854,14.289357 1.86914,1.86707 3.7538,2.82074 6.344419,3.21037 0.491071,0.0739 0.94731,0.14431 1.013865,0.15657 0.06655,0.0122 0.744696,-0.0645 1.506981,-0.1705 z"
       id="path1540"
       inkscape:connector-curvature="0"
       transform="scale(0.26458333)" />
    <path
       style="fill:#ffcc00;fill-opacity:0;stroke:none;stroke-width:0.24634421;stroke-miterlimit:4;stroke-dasharray:none"
       d="m 56.106736,112.41879 c -3.826544,-0.92307 -6.198282,-2.20656 -8.319772,-4.50231 -1.997773,-2.16187 -3.191551,-4.61563 -3.934098,-8.086344 -0.330269,-1.5437 -0.399464,-2.439898 -0.40566,-5.254023 C 43.429374,86.478034 45.664767,78.82515 50.6975,69.754684 57.209667,58.01784 67.732298,46.048046 74.653557,42.503987 l 1.514204,-0.775355 0.65453,0.312123 c 2.279299,1.086922 4.780584,4.920561 6.398391,9.806603 1.955752,5.906695 2.851538,12.158119 2.860259,19.960898 0.0082,7.319632 -0.76345,12.884435 -2.50088,18.035714 -1.012243,3.001179 -3.454459,7.498586 -5.575727,10.26786 -4.364091,5.69722 -10.864737,10.38063 -16.381875,11.80236 -1.678987,0.43267 -4.676971,0.70694 -5.515723,0.5046 z m 5.913703,-7.23188 c 7.490649,-1.04185 14.867929,-9.17649 17.397167,-19.18317 1.14005,-4.510502 1.83515,-11.087075 1.849532,-17.499056 0.01148,-5.114964 -0.197534,-7.28018 -0.972802,-10.077829 -1.433293,-5.172209 -4.769318,-7.73686 -8.744079,-6.722223 -2.516109,0.642286 -4.920046,2.199066 -8.007378,5.185546 -4.213253,4.075622 -7.981386,9.344267 -10.720023,14.988854 -2.640075,5.441443 -3.696435,9.735252 -3.892536,15.822081 -0.212156,6.585157 1.160762,11.228659 4.224854,14.289357 1.86914,1.86707 3.7538,2.82074 6.344419,3.21037 0.491071,0.0739 0.94731,0.14431 1.013865,0.15657 0.06655,0.0122 0.744696,-0.0645 1.506981,-0.1705 z"
       id="path1542"
       inkscape:connector-curvature="0"
       transform="scale(0.26458333)" />
    <path
       style="fill:#ffcc00;fill-opacity:0;stroke:none;stroke-width:0.24634421;stroke-miterlimit:4;stroke-dasharray:none"
       d="m 123.73231,80.578637 c -1.66078,-0.07305 -3.7557,-0.402112 -5.625,-0.883555 -0.98214,-0.252954 -1.8019,-0.47213 -1.82167,-0.487059 -0.0198,-0.01493 0.16605,-0.687032 0.41295,-1.493564 0.36088,-1.17888 0.52549,-1.482221 0.83952,-1.546999 0.21485,-0.04432 1.23438,-0.250148 2.26563,-0.4574 6.81717,-1.370056 12.79111,-3.447519 15.80182,-5.495158 0.58833,-0.40013 1.09145,-0.705745 1.11805,-0.679144 0.0266,0.0266 -0.15326,1.205958 -0.3997,2.620793 -0.24643,1.414836 -0.57614,3.456357 -0.73269,4.536714 -0.15655,1.080357 -0.31524,2.130331 -0.35266,2.333275 -0.061,0.330967 -0.37583,0.419804 -3.05519,0.862137 -1.64295,0.271231 -3.71432,0.529788 -4.60305,0.57457 -0.88873,0.04478 -1.89712,0.09879 -2.24087,0.120006 -0.34375,0.02122 -1.06696,0.01914 -1.60714,-0.0046 z"
       id="path1544"
       inkscape:connector-curvature="0"
       transform="scale(0.26458333)" />
    <path
       style="fill:#ffcc00;fill-opacity:0;stroke:none;stroke-width:0.24634421;stroke-miterlimit:4;stroke-dasharray:none"
       d="m 123.73231,80.578637 c -1.66078,-0.07305 -3.7557,-0.402112 -5.625,-0.883555 -0.98214,-0.252954 -1.8019,-0.47213 -1.82167,-0.487059 -0.0198,-0.01493 0.16605,-0.687032 0.41295,-1.493564 0.36088,-1.17888 0.52549,-1.482221 0.83952,-1.546999 0.21485,-0.04432 1.23438,-0.250148 2.26563,-0.4574 6.81717,-1.370056 12.79111,-3.447519 15.80182,-5.495158 0.58833,-0.40013 1.09145,-0.705745 1.11805,-0.679144 0.0266,0.0266 -0.15326,1.205958 -0.3997,2.620793 -0.24643,1.414836 -0.57614,3.456357 -0.73269,4.536714 -0.15655,1.080357 -0.31524,2.130331 -0.35266,2.333275 -0.061,0.330967 -0.37583,0.419804 -3.05519,0.862137 -1.64295,0.271231 -3.71432,0.529788 -4.60305,0.57457 -0.88873,0.04478 -1.89712,0.09879 -2.24087,0.120006 -0.34375,0.02122 -1.06696,0.01914 -1.60714,-0.0046 z"
       id="path1546"
       inkscape:connector-curvature="0"
       transform="scale(0.26458333)" />
    <path
       style="fill:#ffcc00;fill-opacity:0;stroke:none;stroke-width:0.24634421;stroke-miterlimit:4;stroke-dasharray:none"
       d="m 123.73231,80.578637 c -1.66078,-0.07305 -3.7557,-0.402112 -5.625,-0.883555 -0.98214,-0.252954 -1.8019,-0.47213 -1.82167,-0.487059 -0.0198,-0.01493 0.16605,-0.687032 0.41295,-1.493564 0.36088,-1.17888 0.52549,-1.482221 0.83952,-1.546999 0.21485,-0.04432 1.23438,-0.250148 2.26563,-0.4574 6.81717,-1.370056 12.79111,-3.447519 15.80182,-5.495158 0.58833,-0.40013 1.09145,-0.705745 1.11805,-0.679144 0.0266,0.0266 -0.15326,1.205958 -0.3997,2.620793 -0.24643,1.414836 -0.57614,3.456357 -0.73269,4.536714 -0.15655,1.080357 -0.31524,2.130331 -0.35266,2.333275 -0.061,0.330967 -0.37583,0.419804 -3.05519,0.862137 -1.64295,0.271231 -3.71432,0.529788 -4.60305,0.57457 -0.88873,0.04478 -1.89712,0.09879 -2.24087,0.120006 -0.34375,0.02122 -1.06696,0.01914 -1.60714,-0.0046 z"
       id="path1548"
       inkscape:connector-curvature="0"
       transform="scale(0.26458333)" />
    <path
       style="fill:#ffcc00;fill-opacity:0;stroke:none;stroke-width:0.24634421;stroke-miterlimit:4;stroke-dasharray:none"
       d="m 123.73231,80.578637 c -1.66078,-0.07305 -3.7557,-0.402112 -5.625,-0.883555 -0.98214,-0.252954 -1.8019,-0.47213 -1.82167,-0.487059 -0.0198,-0.01493 0.16605,-0.687032 0.41295,-1.493564 0.36088,-1.17888 0.52549,-1.482221 0.83952,-1.546999 0.21485,-0.04432 1.23438,-0.250148 2.26563,-0.4574 6.81717,-1.370056 12.79111,-3.447519 15.80182,-5.495158 0.58833,-0.40013 1.09145,-0.705745 1.11805,-0.679144 0.0266,0.0266 -0.15326,1.205958 -0.3997,2.620793 -0.24643,1.414836 -0.57614,3.456357 -0.73269,4.536714 -0.15655,1.080357 -0.31524,2.130331 -0.35266,2.333275 -0.061,0.330967 -0.37583,0.419804 -3.05519,0.862137 -1.64295,0.271231 -3.71432,0.529788 -4.60305,0.57457 -0.88873,0.04478 -1.89712,0.09879 -2.24087,0.120006 -0.34375,0.02122 -1.06696,0.01914 -1.60714,-0.0046 z"
       id="path1550"
       inkscape:connector-curvature="0"
       transform="scale(0.26458333)" />
    <path
       style="fill:#ffcc00;fill-opacity:0;stroke:none;stroke-width:0.24634421;stroke-miterlimit:4;stroke-dasharray:none"
       d="m 123.73231,80.578637 c -1.66078,-0.07305 -3.7557,-0.402112 -5.625,-0.883555 -0.98214,-0.252954 -1.8019,-0.47213 -1.82167,-0.487059 -0.0198,-0.01493 0.16605,-0.687032 0.41295,-1.493564 0.36088,-1.17888 0.52549,-1.482221 0.83952,-1.546999 0.21485,-0.04432 1.23438,-0.250148 2.26563,-0.4574 6.81717,-1.370056 12.79111,-3.447519 15.80182,-5.495158 0.58833,-0.40013 1.09145,-0.705745 1.11805,-0.679144 0.0266,0.0266 -0.15326,1.205958 -0.3997,2.620793 -0.24643,1.414836 -0.57614,3.456357 -0.73269,4.536714 -0.15655,1.080357 -0.31524,2.130331 -0.35266,2.333275 -0.061,0.330967 -0.37583,0.419804 -3.05519,0.862137 -1.64295,0.271231 -3.71432,0.529788 -4.60305,0.57457 -0.88873,0.04478 -1.89712,0.09879 -2.24087,0.120006 -0.34375,0.02122 -1.06696,0.01914 -1.60714,-0.0046 z"
       id="path1552"
       inkscape:connector-curvature="0"
       transform="scale(0.26458333)" />
    <path
       style="fill:#ffcc00;fill-opacity:0;stroke:none;stroke-width:0.24634421;stroke-miterlimit:4;stroke-dasharray:none"
       d="m 123.73231,80.578637 c -1.66078,-0.07305 -3.7557,-0.402112 -5.625,-0.883555 -0.98214,-0.252954 -1.8019,-0.47213 -1.82167,-0.487059 -0.0198,-0.01493 0.16605,-0.687032 0.41295,-1.493564 0.36088,-1.17888 0.52549,-1.482221 0.83952,-1.546999 0.21485,-0.04432 1.23438,-0.250148 2.26563,-0.4574 6.81717,-1.370056 12.79111,-3.447519 15.80182,-5.495158 0.58833,-0.40013 1.09145,-0.705745 1.11805,-0.679144 0.0266,0.0266 -0.15326,1.205958 -0.3997,2.620793 -0.24643,1.414836 -0.57614,3.456357 -0.73269,4.536714 -0.15655,1.080357 -0.31524,2.130331 -0.35266,2.333275 -0.061,0.330967 -0.37583,0.419804 -3.05519,0.862137 -1.64295,0.271231 -3.71432,0.529788 -4.60305,0.57457 -0.88873,0.04478 -1.89712,0.09879 -2.24087,0.120006 -0.34375,0.02122 -1.06696,0.01914 -1.60714,-0.0046 z"
       id="path1554"
       inkscape:connector-curvature="0"
       transform="scale(0.26458333)" />
    <path
       style="fill:#ffcc00;fill-opacity:0;stroke:none;stroke-width:0.24634421;stroke-miterlimit:4;stroke-dasharray:none"
       d="m 123.73231,80.578637 c -1.66078,-0.07305 -3.7557,-0.402112 -5.625,-0.883555 -0.98214,-0.252954 -1.8019,-0.47213 -1.82167,-0.487059 -0.0198,-0.01493 0.16605,-0.687032 0.41295,-1.493564 0.36088,-1.17888 0.52549,-1.482221 0.83952,-1.546999 0.21485,-0.04432 1.23438,-0.250148 2.26563,-0.4574 6.81717,-1.370056 12.79111,-3.447519 15.80182,-5.495158 0.58833,-0.40013 1.09145,-0.705745 1.11805,-0.679144 0.0266,0.0266 -0.15326,1.205958 -0.3997,2.620793 -0.24643,1.414836 -0.57614,3.456357 -0.73269,4.536714 -0.15655,1.080357 -0.31524,2.130331 -0.35266,2.333275 -0.061,0.330967 -0.37583,0.419804 -3.05519,0.862137 -1.64295,0.271231 -3.71432,0.529788 -4.60305,0.57457 -0.88873,0.04478 -1.89712,0.09879 -2.24087,0.120006 -0.34375,0.02122 -1.06696,0.01914 -1.60714,-0.0046 z"
       id="path1556"
       inkscape:connector-curvature="0"
       transform="scale(0.26458333)" />
    <path
       style="fill:#ffcc00;fill-opacity:0;stroke:none;stroke-width:0.24634421;stroke-miterlimit:4;stroke-dasharray:none"
       d="m 123.73231,80.578637 c -1.66078,-0.07305 -3.7557,-0.402112 -5.625,-0.883555 -0.98214,-0.252954 -1.8019,-0.47213 -1.82167,-0.487059 -0.0198,-0.01493 0.16605,-0.687032 0.41295,-1.493564 0.36088,-1.17888 0.52549,-1.482221 0.83952,-1.546999 0.21485,-0.04432 1.23438,-0.250148 2.26563,-0.4574 6.81717,-1.370056 12.79111,-3.447519 15.80182,-5.495158 0.58833,-0.40013 1.09145,-0.705745 1.11805,-0.679144 0.0266,0.0266 -0.15326,1.205958 -0.3997,2.620793 -0.24643,1.414836 -0.57614,3.456357 -0.73269,4.536714 -0.15655,1.080357 -0.31524,2.130331 -0.35266,2.333275 -0.061,0.330967 -0.37583,0.419804 -3.05519,0.862137 -1.64295,0.271231 -3.71432,0.529788 -4.60305,0.57457 -0.88873,0.04478 -1.89712,0.09879 -2.24087,0.120006 -0.34375,0.02122 -1.06696,0.01914 -1.60714,-0.0046 z"
       id="path1558"
       inkscape:connector-curvature="0"
       transform="scale(0.26458333)" />
    <path
       style="fill:#ffcc00;fill-opacity:0;stroke:none;stroke-width:0.24634421;stroke-miterlimit:4;stroke-dasharray:none"
       d="m 123.73231,80.578637 c -1.66078,-0.07305 -3.7557,-0.402112 -5.625,-0.883555 -0.98214,-0.252954 -1.8019,-0.47213 -1.82167,-0.487059 -0.0198,-0.01493 0.16605,-0.687032 0.41295,-1.493564 0.36088,-1.17888 0.52549,-1.482221 0.83952,-1.546999 0.21485,-0.04432 1.23438,-0.250148 2.26563,-0.4574 6.81717,-1.370056 12.79111,-3.447519 15.80182,-5.495158 0.58833,-0.40013 1.09145,-0.705745 1.11805,-0.679144 0.0266,0.0266 -0.15326,1.205958 -0.3997,2.620793 -0.24643,1.414836 -0.57614,3.456357 -0.73269,4.536714 -0.15655,1.080357 -0.31524,2.130331 -0.35266,2.333275 -0.061,0.330967 -0.37583,0.419804 -3.05519,0.862137 -1.64295,0.271231 -3.71432,0.529788 -4.60305,0.57457 -0.88873,0.04478 -1.89712,0.09879 -2.24087,0.120006 -0.34375,0.02122 -1.06696,0.01914 -1.60714,-0.0046 z"
       id="path1560"
       inkscape:connector-curvature="0"
       transform="scale(0.26458333)" />
    <path
       style="fill:#ffcc00;fill-opacity:0;stroke:none;stroke-width:0.24634421;stroke-miterlimit:4;stroke-dasharray:none"
       d="m 123.73231,80.578637 c -1.66078,-0.07305 -3.7557,-0.402112 -5.625,-0.883555 -0.98214,-0.252954 -1.8019,-0.47213 -1.82167,-0.487059 -0.0198,-0.01493 0.16605,-0.687032 0.41295,-1.493564 0.36088,-1.17888 0.52549,-1.482221 0.83952,-1.546999 0.21485,-0.04432 1.23438,-0.250148 2.26563,-0.4574 6.81717,-1.370056 12.79111,-3.447519 15.80182,-5.495158 0.58833,-0.40013 1.09145,-0.705745 1.11805,-0.679144 0.0266,0.0266 -0.15326,1.205958 -0.3997,2.620793 -0.24643,1.414836 -0.57614,3.456357 -0.73269,4.536714 -0.15655,1.080357 -0.31524,2.130331 -0.35266,2.333275 -0.061,0.330967 -0.37583,0.419804 -3.05519,0.862137 -1.64295,0.271231 -3.71432,0.529788 -4.60305,0.57457 -0.88873,0.04478 -1.89712,0.09879 -2.24087,0.120006 -0.34375,0.02122 -1.06696,0.01914 -1.60714,-0.0046 z"
       id="path1562"
       inkscape:connector-curvature="0"
       transform="scale(0.26458333)" />
    <path
       style="fill:#ffcc00;fill-opacity:0;stroke:none;stroke-width:0.24634421;stroke-miterlimit:4;stroke-dasharray:none"
       d="m 123.73231,80.578637 c -1.66078,-0.07305 -3.7557,-0.402112 -5.625,-0.883555 -0.98214,-0.252954 -1.8019,-0.47213 -1.82167,-0.487059 -0.0198,-0.01493 0.16605,-0.687032 0.41295,-1.493564 0.36088,-1.17888 0.52549,-1.482221 0.83952,-1.546999 0.21485,-0.04432 1.23438,-0.250148 2.26563,-0.4574 6.81717,-1.370056 12.79111,-3.447519 15.80182,-5.495158 0.58833,-0.40013 1.09145,-0.705745 1.11805,-0.679144 0.0266,0.0266 -0.15326,1.205958 -0.3997,2.620793 -0.24643,1.414836 -0.57614,3.456357 -0.73269,4.536714 -0.15655,1.080357 -0.31524,2.130331 -0.35266,2.333275 -0.061,0.330967 -0.37583,0.419804 -3.05519,0.862137 -1.64295,0.271231 -3.71432,0.529788 -4.60305,0.57457 -0.88873,0.04478 -1.89712,0.09879 -2.24087,0.120006 -0.34375,0.02122 -1.06696,0.01914 -1.60714,-0.0046 z"
       id="path1564"
       inkscape:connector-curvature="0"
       transform="scale(0.26458333)" />
    <path
       style="fill:#ffcc00;fill-opacity:0;stroke:none;stroke-width:0.49268842;stroke-miterlimit:4;stroke-dasharray:none"
       d="m 57.921173,101.26656 c -1.660526,-0.72765 -3.932251,-3.445152 -4.683128,-5.602102 -1.063841,-3.055957 -0.960821,-11.955614 0.185133,-15.993175 3.077454,-10.842855 14.193737,-24.644517 19.882169,-24.685135 1.865107,-0.01332 3.349714,2.22053 4.102141,6.17238 0.532532,2.796937 0.423686,13.109775 -0.18736,17.751682 -1.155139,8.775192 -3.565086,14.216883 -8.338216,18.827798 -3.599552,3.477222 -7.91069,4.865082 -10.960739,3.528552 z"
       id="path1566"
       inkscape:connector-curvature="0"
       transform="scale(0.26458333)" />
    <path
       style="fill:#ffcc00;fill-opacity:0;stroke:none;stroke-width:0.49268842;stroke-miterlimit:4;stroke-dasharray:none"
       d="m 57.921173,101.26656 c -1.660526,-0.72765 -3.932251,-3.445152 -4.683128,-5.602102 -1.063841,-3.055957 -0.960821,-11.955614 0.185133,-15.993175 3.077454,-10.842855 14.193737,-24.644517 19.882169,-24.685135 1.865107,-0.01332 3.349714,2.22053 4.102141,6.17238 0.532532,2.796937 0.423686,13.109775 -0.18736,17.751682 -1.155139,8.775192 -3.565086,14.216883 -8.338216,18.827798 -3.599552,3.477222 -7.91069,4.865082 -10.960739,3.528552 z"
       id="path1568"
       inkscape:connector-curvature="0"
       transform="scale(0.26458333)" />
    <path
       style="fill:#ffcc00;fill-opacity:0;stroke:none;stroke-width:0.49268842;stroke-miterlimit:4;stroke-dasharray:none"
       d="m 57.921173,101.26656 c -1.660526,-0.72765 -3.932251,-3.445152 -4.683128,-5.602102 -1.063841,-3.055957 -0.960821,-11.955614 0.185133,-15.993175 3.077454,-10.842855 14.193737,-24.644517 19.882169,-24.685135 1.865107,-0.01332 3.349714,2.22053 4.102141,6.17238 0.532532,2.796937 0.423686,13.109775 -0.18736,17.751682 -1.155139,8.775192 -3.565086,14.216883 -8.338216,18.827798 -3.599552,3.477222 -7.91069,4.865082 -10.960739,3.528552 z"
       id="path1570"
       inkscape:connector-curvature="0"
       transform="scale(0.26458333)" />
    <path
       style="fill:#ffcc00;fill-opacity:0;stroke:none;stroke-width:0.49268842;stroke-miterlimit:4;stroke-dasharray:none"
       d="m 57.921173,101.26656 c -1.660526,-0.72765 -3.932251,-3.445152 -4.683128,-5.602102 -1.063841,-3.055957 -0.960821,-11.955614 0.185133,-15.993175 3.077454,-10.842855 14.193737,-24.644517 19.882169,-24.685135 1.865107,-0.01332 3.349714,2.22053 4.102141,6.17238 0.532532,2.796937 0.423686,13.109775 -0.18736,17.751682 -1.155139,8.775192 -3.565086,14.216883 -8.338216,18.827798 -3.599552,3.477222 -7.91069,4.865082 -10.960739,3.528552 z"
       id="path1572"
       inkscape:connector-curvature="0"
       transform="scale(0.26458333)" />
    <path
       style="fill:#ffcc00;fill-opacity:0;stroke:none;stroke-width:0.49268842;stroke-miterlimit:4;stroke-dasharray:none"
       d="m 57.921173,101.26656 c -1.660526,-0.72765 -3.932251,-3.445152 -4.683128,-5.602102 -1.063841,-3.055957 -0.960821,-11.955614 0.185133,-15.993175 3.077454,-10.842855 14.193737,-24.644517 19.882169,-24.685135 1.865107,-0.01332 3.349714,2.22053 4.102141,6.17238 0.532532,2.796937 0.423686,13.109775 -0.18736,17.751682 -1.155139,8.775192 -3.565086,14.216883 -8.338216,18.827798 -3.599552,3.477222 -7.91069,4.865082 -10.960739,3.528552 z"
       id="path1574"
       inkscape:connector-curvature="0"
       transform="scale(0.26458333)" />
    <path
       style="fill:#ffcc00;fill-opacity:0;stroke:none;stroke-width:0.49268842;stroke-miterlimit:4;stroke-dasharray:none"
       d="m 57.921173,101.26656 c -1.660526,-0.72765 -3.932251,-3.445152 -4.683128,-5.602102 -1.063841,-3.055957 -0.960821,-11.955614 0.185133,-15.993175 3.077454,-10.842855 14.193737,-24.644517 19.882169,-24.685135 1.865107,-0.01332 3.349714,2.22053 4.102141,6.17238 0.532532,2.796937 0.423686,13.109775 -0.18736,17.751682 -1.155139,8.775192 -3.565086,14.216883 -8.338216,18.827798 -3.599552,3.477222 -7.91069,4.865082 -10.960739,3.528552 z"
       id="path1576"
       inkscape:connector-curvature="0"
       transform="scale(0.26458333)" />
    <path
       style="fill:#ffcc00;fill-opacity:0;stroke:none;stroke-width:0.49268842;stroke-miterlimit:4;stroke-dasharray:none"
       d="m 57.921173,101.26656 c -1.660526,-0.72765 -3.932251,-3.445152 -4.683128,-5.602102 -1.063841,-3.055957 -0.960821,-11.955614 0.185133,-15.993175 3.077454,-10.842855 14.193737,-24.644517 19.882169,-24.685135 1.865107,-0.01332 3.349714,2.22053 4.102141,6.17238 0.532532,2.796937 0.423686,13.109775 -0.18736,17.751682 -1.155139,8.775192 -3.565086,14.216883 -8.338216,18.827798 -3.599552,3.477222 -7.91069,4.865082 -10.960739,3.528552 z"
       id="path1578"
       inkscape:connector-curvature="0"
       transform="scale(0.26458333)" />
    <path
       style="fill:#ffcc00;fill-opacity:0;stroke:none;stroke-width:0.49268842;stroke-miterlimit:4;stroke-dasharray:none"
       d="m 57.921173,101.26656 c -1.660526,-0.72765 -3.932251,-3.445152 -4.683128,-5.602102 -1.063841,-3.055957 -0.960821,-11.955614 0.185133,-15.993175 3.077454,-10.842855 14.193737,-24.644517 19.882169,-24.685135 1.865107,-0.01332 3.349714,2.22053 4.102141,6.17238 0.532532,2.796937 0.423686,13.109775 -0.18736,17.751682 -1.155139,8.775192 -3.565086,14.216883 -8.338216,18.827798 -3.599552,3.477222 -7.91069,4.865082 -10.960739,3.528552 z"
       id="path1580"
       inkscape:connector-curvature="0"
       transform="scale(0.26458333)" />
    <path
       style="fill:#ffcc00;fill-opacity:0;stroke:none;stroke-width:0.49268842;stroke-miterlimit:4;stroke-dasharray:none"
       d="m 57.921173,101.26656 c -1.660526,-0.72765 -3.932251,-3.445152 -4.683128,-5.602102 -1.063841,-3.055957 -0.960821,-11.955614 0.185133,-15.993175 3.077454,-10.842855 14.193737,-24.644517 19.882169,-24.685135 1.865107,-0.01332 3.349714,2.22053 4.102141,6.17238 0.532532,2.796937 0.423686,13.109775 -0.18736,17.751682 -1.155139,8.775192 -3.565086,14.216883 -8.338216,18.827798 -3.599552,3.477222 -7.91069,4.865082 -10.960739,3.528552 z"
       id="path1582"
       inkscape:connector-curvature="0"
       transform="scale(0.26458333)" />
    <path
       style="fill:#c83737;fill-opacity:0;stroke:none;stroke-width:0.49268842;stroke-miterlimit:4;stroke-dasharray:none"
       d="m 57.921173,101.26656 c -1.660526,-0.72765 -3.932251,-3.445152 -4.683128,-5.602102 -1.063841,-3.055957 -0.960821,-11.955614 0.185133,-15.993175 3.077454,-10.842855 14.193737,-24.644517 19.882169,-24.685135 1.865107,-0.01332 3.349714,2.22053 4.102141,6.17238 0.532532,2.796937 0.423686,13.109775 -0.18736,17.751682 -1.155139,8.775192 -3.565086,14.216883 -8.338216,18.827798 -3.599552,3.477222 -7.91069,4.865082 -10.960739,3.528552 z"
       id="path1584"
       inkscape:connector-curvature="0"
       transform="scale(0.26458333)" />
    <path
       style="fill:#c83737;fill-opacity:0;stroke:none;stroke-width:0.49268842;stroke-miterlimit:4;stroke-dasharray:none"
       d="m 57.921173,101.26656 c -1.660526,-0.72765 -3.932251,-3.445152 -4.683128,-5.602102 -1.063841,-3.055957 -0.960821,-11.955614 0.185133,-15.993175 3.077454,-10.842855 14.193737,-24.644517 19.882169,-24.685135 1.865107,-0.01332 3.349714,2.22053 4.102141,6.17238 0.532532,2.796937 0.423686,13.109775 -0.18736,17.751682 -1.155139,8.775192 -3.565086,14.216883 -8.338216,18.827798 -3.599552,3.477222 -7.91069,4.865082 -10.960739,3.528552 z"
       id="path1586"
       inkscape:connector-curvature="0"
       transform="scale(0.26458333)" />
    <path
       style="fill:#c83737;fill-opacity:0;stroke:none;stroke-width:0.49268842;stroke-miterlimit:4;stroke-dasharray:none"
       d="m 105.59974,73.690555 c -0.49107,-0.09128 -1.55927,-0.408329 -2.37377,-0.704544 -5.485707,-1.995006 0.44553,-9.423086 10.68188,-13.377622 6.06139,-2.341655 12.1687,-2.864742 16.18868,-1.386549 2.86881,1.054896 5.86036,4.030239 5.86036,5.828619 0,3.344912 -5.97835,6.276087 -17.5,8.580221 -4.28142,0.856209 -10.98153,1.408531 -12.85715,1.059875 z"
       id="path1588"
       inkscape:connector-curvature="0"
       transform="scale(0.26458333)" />
    <path
       style="fill:#c83737;fill-opacity:0;stroke:none;stroke-width:0.49268842;stroke-miterlimit:4;stroke-dasharray:none"
       d="m 105.59974,73.690555 c -0.49107,-0.09128 -1.55927,-0.408329 -2.37377,-0.704544 -5.485707,-1.995006 0.44553,-9.423086 10.68188,-13.377622 6.06139,-2.341655 12.1687,-2.864742 16.18868,-1.386549 2.86881,1.054896 5.86036,4.030239 5.86036,5.828619 0,3.344912 -5.97835,6.276087 -17.5,8.580221 -4.28142,0.856209 -10.98153,1.408531 -12.85715,1.059875 z"
       id="path1590"
       inkscape:connector-curvature="0"
       transform="scale(0.26458333)" />
    <path
       style="fill:#ffcc00;fill-opacity:1;stroke:#000000;stroke-width:0.63472575;stroke-miterlimit:4;stroke-dasharray:none"
       d="m 58.364906,101.51739 c -2.395092,-0.88263 -4.625408,-3.77853 -5.546975,-7.202329 -0.593077,-2.203395 -0.572006,-9.572099 0.03554,-12.430273 0.904662,-4.255909 3.419896,-9.944794 6.38284,-14.436527 4.635017,-7.026546 10.758742,-12.500637 13.984141,-12.500637 2.763936,0 4.345777,3.860374 4.67464,11.408137 0.35952,8.251399 -1.022224,17.978074 -3.300873,23.236234 -2.027165,4.677842 -6.170152,9.392815 -9.85247,11.212715 -2.237071,1.10562 -4.595367,1.36918 -6.376848,0.71268 z"
       id="path901"
       inkscape:connector-curvature="0"
       transform="scale(0.26458333)" />
    <path
       style="fill:#ffcc00;fill-opacity:1;stroke:#000000;stroke-width:0.63472575;stroke-miterlimit:4;stroke-dasharray:none"
       d="m 122.56652,80.435964 c -2.08899,-0.18379 -5.30038,-0.84748 -5.89504,-1.218309 -0.27983,-0.174509 -0.26072,-0.460491 0.10926,-1.634177 0.27312,-0.866432 0.59132,-1.422651 0.81386,-1.422651 0.56068,0 5.95962,-1.227331 8.50745,-1.933983 3.31227,-0.91867 7.17737,-2.486186 8.941,-3.626074 1.85261,-1.197396 1.79975,-1.406922 0.91935,3.64438 -0.341,1.956447 -0.65351,3.894059 -0.69448,4.305807 -0.0855,0.859122 -0.16208,0.88458 -4.49391,1.493652 -3.5461,0.498596 -5.77862,0.605049 -8.20749,0.391355 z"
       id="path921"
       inkscape:connector-curvature="0"
       transform="scale(0.26458333)" />
    <path
       style="fill:#ffcc00;fill-opacity:1;stroke:#000000;stroke-width:0.63472575;stroke-miterlimit:4;stroke-dasharray:none"
       d="m 140.83777,103.92328 c -2.59159,-0.22549 -6.02315,-0.95026 -6.02315,-1.27213 0,-0.12541 0.42499,-1.37724 0.94443,-2.781841 0.66411,-1.795793 1.09512,-2.60924 1.4521,-2.740525 0.27921,-0.102687 1.8709,-0.262075 3.53709,-0.354196 8.28878,-0.458275 14.50095,-2.105263 18.39791,-4.877707 0.67336,-0.479054 1.27557,-0.819739 1.33823,-0.757076 0.314,0.314004 -1.63518,6.9512 -2.84444,9.685655 -0.64307,1.45414 -0.48276,1.37362 -4.1375,2.07811 -5.21624,1.00549 -9.16967,1.3238 -12.66467,1.01971 z"
       id="path923"
       inkscape:connector-curvature="0"
       transform="scale(0.26458333)" />
    <path
       style="fill:#ffcc00;fill-opacity:1;stroke:#000000;stroke-width:0.63472575;stroke-miterlimit:4;stroke-dasharray:none"
       d="m 160.32097,126.79906 c -3.16311,-0.53891 -4.08478,-0.85342 -3.9366,-1.34335 0.91119,-3.01273 1.45247,-4.54779 1.71939,-4.8762 0.24265,-0.29854 1.23558,-0.47466 3.98498,-0.70684 4.50328,-0.38029 9.98162,-1.29245 13.00571,-2.1655 2.81377,-0.81233 6.93298,-2.78781 8.66063,-4.15344 0.71487,-0.56508 1.3771,-1.02741 1.47162,-1.02741 0.27421,0 -0.0903,4.74422 -0.53406,6.95049 -0.43314,2.1536 -1.09027,4.41828 -1.37273,4.7309 -0.24787,0.27433 -8.14853,1.90291 -12.01353,2.47638 -3.73384,0.55401 -8.13793,0.6001 -10.98541,0.11497 z"
       id="path925"
       inkscape:connector-curvature="0"
       transform="scale(0.26458333)" />
    <path
       style="fill:#ffcc00;fill-opacity:1;stroke:#000000;stroke-width:0.63472575;stroke-miterlimit:4;stroke-dasharray:none"
       d="m 186.07986,152.64639 c -1.04172,-0.12098 -2.62767,-0.41898 -3.52433,-0.66222 -1.34243,-0.36417 -1.66127,-0.55361 -1.80573,-1.07283 -0.20546,-0.7385 -0.28879,-7.57537 -0.0923,-7.57537 0.75342,0 8.11672,-0.85819 9.96808,-1.16178 6.44748,-1.05726 11.19527,-2.81803 14.83661,-5.50233 l 1.57837,-1.16353 v 2.98938 c 0,2.77738 -0.60491,10.50864 -0.89451,11.43265 -0.13197,0.42104 -0.92421,0.61855 -7.43925,1.85463 -3.35095,0.63576 -7.99572,1.16919 -9.70345,1.1144 -0.56618,-0.0182 -1.88174,-0.13202 -2.92346,-0.253 z"
       id="path927"
       inkscape:connector-curvature="0"
       transform="scale(0.26458333)" />
    <path
       style="fill:#ffcc00;fill-opacity:1;stroke:#000000;stroke-width:0.63472575;stroke-miterlimit:4;stroke-dasharray:none"
       d="m 199.59065,178.82758 c -0.97227,-0.17777 -2.46433,-0.51957 -3.3157,-0.75956 l -1.54792,-0.43634 0.36858,-1.41146 c 0.70808,-2.71152 2.79621,-6.16642 4.00467,-6.62587 0.31413,-0.11944 2.88264,-0.39951 5.70779,-0.62239 11.6389,-0.91819 17.13894,-2.3233 21.67789,-5.53812 2.00307,-1.41871 1.86244,-1.54738 1.66063,1.51951 -0.1831,2.78242 -0.78365,8.38997 -1.05713,9.87073 -0.14637,0.79252 -0.18938,0.81442 -2.8383,1.44494 -3.65667,0.8704 -9.69508,2.05064 -12.9499,2.53113 -3.20224,0.47273 -9.19833,0.48678 -11.71061,0.0274 z"
       id="path929"
       inkscape:connector-curvature="0"
       transform="scale(0.26458333)" />
    <path
       style="fill:#ffcc00;fill-opacity:1;stroke:#000000;stroke-width:0.63472575;stroke-miterlimit:4;stroke-dasharray:none"
       d="m 224.97073,207.57603 c -2.70215,-0.52638 -5.63112,-1.97174 -6.99576,-3.45219 -1.4851,-1.61114 -1.90783,-2.57323 -2.04244,-4.64833 -0.11368,-1.75249 -0.0963,-1.82256 0.48266,-1.9457 0.33033,-0.0703 3.38483,-0.3641 6.78778,-0.65298 13.10941,-1.11287 17.46341,-2.2932 22.77912,-6.17522 1.05716,-0.77204 1.97868,-1.4037 2.04783,-1.4037 0.0691,0 0.2061,1.17928 0.30434,2.62062 0.3069,4.50267 -0.67793,8.01937 -2.81485,10.05145 -1.31486,1.25035 -6.71998,3.41072 -11.96238,4.78123 -2.82042,0.73734 -6.98278,1.13718 -8.5863,0.82482 z"
       id="path931"
       inkscape:connector-curvature="0"
       transform="scale(0.26458333)" />
    <path
       style="fill:#ffeeaa;fill-opacity:1;stroke:#000000;stroke-width:0.63472575;stroke-miterlimit:4;stroke-dasharray:none"
       d="M 55.643913,112.28396 C 45.531471,110.09663 41.412903,100.30654 44.440987,85.653915 45.849925,78.836191 50.091899,69.846338 55.686073,61.822638 61.412393,53.609401 68.690329,46.039172 73.70039,43.084833 c 2.316985,-1.366281 2.505358,-1.392556 3.804565,-0.530679 3.901828,2.588416 7.064177,11.023788 8.228188,21.948176 0.480454,4.50911 0.336825,13.190378 -0.284802,17.214336 -1.376755,8.912063 -4.548536,15.573481 -10.296258,21.624334 -5.813446,6.12005 -14.387482,10.05057 -19.50817,8.94296 z m 7.171218,-7.20052 c 3.755854,-0.51104 8.977129,-4.39934 12.077676,-8.994278 3.679857,-5.453455 5.218458,-10.642278 6.149849,-20.739914 0.444202,-4.815819 0.180537,-13.37641 -0.494177,-16.044644 -2.679624,-10.596891 -10.486199,-10.422803 -19.786602,0.441244 -5.56779,6.503883 -9.795665,14.571201 -11.171263,21.316173 -0.600088,2.942416 -0.871241,7.439569 -0.621747,10.311885 0.557366,6.416724 2.959782,10.767924 7.053854,12.775774 1.548315,0.75934 4.056864,1.32049 5.177031,1.15807 0.277792,-0.0403 1.004713,-0.14122 1.615379,-0.22431 z"
       id="path933"
       inkscape:connector-curvature="0"
       transform="scale(0.26458333)" />
    <path
       style="fill:#ffeeaa;fill-opacity:1;stroke:#000000;stroke-width:0.63472575;stroke-miterlimit:4;stroke-dasharray:none"
       d="m 7.4279164,260.70307 c -0.8032718,-1.22807 -1.1835102,-2.56949 -1.1883791,-4.19243 -0.00879,-2.93118 4.1412327,-26.44287 7.7573407,-43.9487 4.409905,-21.34865 7.62023,-35.25695 18.850761,-81.66837 6.807269,-28.13181 7.148421,-29.43912 7.413881,-28.41054 0.153048,0.593 0.589331,1.81686 0.969517,2.71968 0.380186,0.90283 0.697891,1.75514 0.70601,1.89404 0.0081,0.13889 -0.902758,3.43452 -2.024171,7.3236 -7.641769,26.50187 -13.408778,52.1904 -22.904445,102.02541 -4.101461,21.52523 -8.779161,44.82552 -8.999043,44.82552 -0.1153943,0 -0.3770565,-0.25569 -0.5814716,-0.56821 z"
       id="path935"
       inkscape:connector-curvature="0"
       transform="scale(0.26458333)" />
    <path
       style="fill:#ffeeaa;fill-opacity:1;stroke:#000000;stroke-width:0.63472575;stroke-miterlimit:4;stroke-dasharray:none"
       d="m 10.961216,262.81329 c -0.07674,-0.12416 1.105485,-6.45971 2.627164,-14.079 1.521679,-7.61928 3.855937,-19.53535 5.187241,-26.48015 8.199621,-42.77367 11.461563,-58.47528 16.289983,-78.41309 3.27829,-13.53692 8.752067,-33.6706 9.114737,-33.52588 0.08901,0.0355 0.874727,0.72748 1.746054,1.53769 l 1.584227,1.47311 -1.925651,6.73438 c -7.692685,26.90282 -12.228364,47.21671 -22.141155,99.16333 -3.315941,17.37674 -7.442148,38.40787 -8.336241,42.48954 l -0.290423,1.32583 h -1.858206 c -1.022013,0 -1.920992,-0.10159 -1.99773,-0.22576 z"
       id="path937"
       inkscape:connector-curvature="0"
       transform="scale(0.26458333)" />
    <path
       style="fill:#ffeeaa;fill-opacity:1;stroke:#000000;stroke-width:0.63472575;stroke-miterlimit:4;stroke-dasharray:none"
       d="m 17.986096,261.58695 c 0.276059,-0.93366 5.098002,-25.556 8.741364,-44.63611 9.282503,-48.61204 14.111826,-70.20829 21.261788,-95.08061 0.978234,-3.40295 1.837182,-6.39249 1.908771,-6.64341 0.08652,-0.30326 0.267213,-0.39996 0.538917,-0.28842 0.224814,0.0923 1.062195,0.39325 1.860847,0.66881 0.798652,0.27556 1.452094,0.59867 1.452094,0.71803 0,0.11936 -0.630312,2.35336 -1.400695,4.96444 -7.046362,23.88247 -12.44631,47.99114 -21.454816,95.78743 -2.868431,15.21898 -5.642022,29.5689 -7.126441,36.87056 l -1.206507,5.93465 -2.140653,1.07329 c -2.397988,1.20231 -2.620552,1.26002 -2.434669,0.63134 z"
       id="path939"
       inkscape:connector-curvature="0"
       transform="scale(0.26458333)" />
    <path
       style="fill:#ffeeaa;fill-opacity:1;stroke:#000000;stroke-width:0.63472575;stroke-miterlimit:4;stroke-dasharray:none"
       d="m 25.970682,257.15571 c 0,-0.18012 0.221758,-1.34495 0.492796,-2.58851 0.639984,-2.93635 3.72545,-18.94853 7.710776,-40.01547 8.772254,-46.37126 13.661952,-68.04297 21.011058,-93.12344 l 1.424481,-4.86136 h 1.47423 c 0.810826,0 1.474232,0.0888 1.474232,0.19741 0,0.10858 -0.515075,3.03486 -1.144609,6.50286 -2.248792,12.38817 -3.920329,20.48351 -11.730844,56.81307 -6.148661,28.59967 -10.268947,49.37922 -13.1446,66.29126 -1.03329,6.0769 -1.066223,6.19964 -1.847534,6.88566 -1.259034,1.10549 -5.354384,4.22602 -5.546179,4.22602 -0.09559,0 -0.173807,-0.14737 -0.173807,-0.3275 z"
       id="path941"
       inkscape:connector-curvature="0"
       transform="scale(0.26458333)" />
    <path
       style="fill:#ffeeaa;fill-opacity:1;stroke:#000000;stroke-width:0.63472575;stroke-miterlimit:4;stroke-dasharray:none"
       d="m 35.932706,248.24688 c 0.283195,-1.9176 2.495287,-14.18253 3.78426,-20.98179 2.277862,-12.01559 5.530957,-27.75537 11.016577,-53.30262 5.894051,-27.44936 8.892265,-42.10301 10.606681,-51.8397 0.574727,-3.26406 1.084232,-5.97548 1.132235,-6.02538 0.048,-0.0499 0.974524,-0.40182 2.058936,-0.78203 1.084411,-0.38022 2.464651,-0.94342 3.067194,-1.25158 1.000925,-0.51189 1.083656,-0.52068 0.957948,-0.10185 -0.995362,3.31638 -8.029428,39.26539 -12.912527,65.99207 -4.95865,27.14019 -7.734279,41.40594 -10.817751,55.59941 l -1.353051,6.2282 -2.584406,2.75405 c -1.421423,1.51473 -3.159372,3.24932 -3.862109,3.85465 l -1.277704,1.10058 z"
       id="path943"
       inkscape:connector-curvature="0"
       transform="scale(0.26458333)" />
    <path
       style="fill:#ffeeaa;fill-opacity:1;stroke:#000000;stroke-width:0.63472575;stroke-miterlimit:4;stroke-dasharray:none"
       d=""
       id="path945"
       inkscape:connector-curvature="0"
       transform="scale(0.26458333)" />
    <path
       style="fill:#ffeeaa;fill-opacity:1;stroke:#000000;stroke-width:0.63472575;stroke-miterlimit:4;stroke-dasharray:none"
       d="m 56.028336,225.4436 c -0.0031,-0.19034 0.388243,-1.83815 0.869626,-3.6618 2.452169,-9.2897 6.146173,-25.63705 8.852619,-39.17615 2.78905,-13.95233 4.843341,-25.40572 10.73502,-59.85154 l 3.066818,-17.9302 0.826415,-1.01016 c 0.454529,-0.55558 1.297024,-1.68243 1.87221,-2.50411 1.254213,-1.791693 1.248258,-1.844451 0.429564,3.80649 -0.338929,2.3394 -1.537343,11.75384 -2.663148,20.92098 -3.855675,31.39578 -5.502799,42.05708 -8.720083,56.44227 -2.823752,12.62563 -7.022475,26.66575 -10.558323,35.30602 -1.049569,2.56475 -4.697146,8.4946 -4.710718,7.6582 z"
       id="path947"
       inkscape:connector-curvature="0"
       transform="scale(0.26458333)" />
    <path
       style="fill:#ffeeaa;fill-opacity:1;stroke:#000000;stroke-width:0.63472575;stroke-miterlimit:4;stroke-dasharray:none"
       d="m 47.540154,236.64881 c 0.07075,-0.27779 0.975778,-4.59619 2.011169,-9.59645 2.572785,-12.42486 4.325661,-21.60485 9.377437,-49.11062 5.902092,-32.13554 12.611869,-65.91251 13.201998,-66.45875 0.09937,-0.092 1.072703,-0.87117 2.16296,-1.73153 1.890064,-1.49151 1.975301,-1.53091 1.832124,-0.84681 -0.08259,0.39461 -1.460587,8.38833 -3.062214,17.7638 -8.587111,50.26654 -11.773162,66.36836 -18.18888,91.92389 -3.507182,13.97004 -3.415252,13.66687 -4.606292,15.19077 -1.786256,2.28546 -2.870604,3.42442 -2.728302,2.8657 z"
       id="path949"
       inkscape:connector-curvature="0"
       transform="scale(0.26458333)" />
    <path
       style="fill:#ffeeaa;fill-opacity:1;stroke:#000000;stroke-width:0.63472575;stroke-miterlimit:4;stroke-dasharray:none"
       d="m 158.00262,250.15047 c -14.77492,-0.93284 -28.88548,-6.25657 -41.57432,-15.68545 -9.12752,-6.78251 -17.804917,-19.52988 -21.978876,-32.28766 -2.756004,-8.42378 -3.727998,-14.97873 -3.50133,-23.61232 0.290846,-11.07808 2.967872,-20.64485 8.299909,-29.66102 l 1.347697,-2.27888 1.05685,-0.003 c 0.58126,-0.002 1.36132,-0.11884 1.73346,-0.26033 0.55216,-0.20993 0.65108,-0.19071 0.53779,0.10451 -0.6356,1.65633 -2.4109,7.55756 -3.21932,10.70121 -2.336695,9.0866 -3.128388,15.68293 -2.942405,24.51591 0.140272,6.66204 0.455342,9.36739 1.69561,14.55936 1.048935,4.39101 2.297675,7.82489 4.408135,12.12183 4.83789,9.85006 11.61961,17.44105 21.22608,23.75904 19.53482,12.84766 44.91706,15.0723 63.89215,5.59985 4.1205,-2.05697 8.82556,-5.33809 11.08976,-7.73355 l 0.7357,-0.77835 0.71469,0.97183 c 0.78592,1.06868 2.68866,2.5963 4.6107,3.70169 l 1.24094,0.71369 -1.11467,0.98287 c -9.36128,8.25434 -23.67913,13.6052 -38.9954,14.57334 -4.36573,0.27595 -4.82503,0.27573 -9.26315,-0.004 z"
       id="path951"
       inkscape:connector-curvature="0"
       transform="scale(0.26458333)" />
    <path
       style="fill:#ffeeaa;fill-opacity:1;stroke:#000000;stroke-width:0.63472575;stroke-miterlimit:4;stroke-dasharray:none"
       d="m 157.20911,240.80373 c -16.00254,-1.67232 -30.71636,-8.59852 -41.08231,-19.33857 -8.27133,-8.56983 -13.01889,-18.11508 -15.18272,-30.52575 -0.67462,-3.86927 -0.93842,-13.76345 -0.48598,-18.22726 0.4271,-4.21376 1.37675,-9.66703 2.43092,-13.95929 0.75274,-3.06492 3.38113,-11.47719 4.35701,-13.94475 l 0.26673,-0.67443 1.97104,1.00372 c 2.13042,1.08489 5.73008,1.88855 7.43598,1.66015 l 0.91924,-0.12307 -0.76605,2.05568 c -2.82186,7.57239 -4.96139,16.14326 -5.88654,23.58127 -0.52038,4.18369 -0.51845,11.84978 0.004,15.76865 1.14434,8.58434 4.58276,17.29981 9.69632,24.57761 2.20896,3.14387 6.09463,7.66543 8.67421,10.09374 6.33743,5.96578 14.86587,9.69703 24.82785,10.86235 13.92607,1.62902 27.76704,-2.32495 37.40121,-10.68446 l 2.0483,-1.7773 0.59609,1.27266 c 0.76561,1.63462 2.14592,3.04844 3.78911,3.88111 l 1.30183,0.65968 -0.85121,0.88865 c -1.40361,1.46535 -4.74545,4.06433 -7.16466,5.57202 -5.58081,3.47807 -12.35655,5.87295 -19.82424,7.00688 -3.18796,0.48407 -11.38309,0.69394 -14.47608,0.37071 z"
       id="path953"
       inkscape:connector-curvature="0"
       transform="scale(0.26458333)" />
    <path
       style="fill:#ffeeaa;fill-opacity:1;stroke:#000000;stroke-width:0.63472575;stroke-miterlimit:4;stroke-dasharray:none"
       d="m 155.01767,231.19264 c -7.1665,-0.80826 -14.05919,-3.22583 -19.47273,-6.82995 -4.03123,-2.68384 -9.56723,-8.64401 -13.46975,-14.50181 -9.60409,-14.41606 -11.32342,-31.24805 -5.31203,-52.00397 0.94332,-3.25704 3.07068,-9.65444 3.30687,-9.94437 0.0427,-0.0525 0.64692,0.4164 1.34264,1.04191 1.51487,1.362 2.92522,2.06129 4.96772,2.46312 l 1.51722,0.2985 -1.32174,3.71502 c -2.4952,7.01329 -4.0468,13.08379 -4.78337,18.71453 -0.62271,4.76037 -0.40864,11.26543 0.50277,15.27856 1.27495,5.61381 3.99647,11.45484 8.58957,18.43529 3.55497,5.40272 8.69375,9.48507 15.33614,12.18334 10.19944,4.1432 20.71108,3.92173 29.88362,-0.62963 2.76975,-1.37433 5.81664,-3.3853 7.77713,-5.13295 0.80501,-0.71762 1.50161,-1.26262 1.54798,-1.21112 0.0464,0.0515 0.37454,0.6716 0.72926,1.37797 0.821,1.6349 2.62159,3.41404 4.22623,4.17587 0.68777,0.32654 1.2505,0.67045 1.2505,0.76425 0,0.36267 -3.34602,3.21188 -5.34777,4.55372 -8.59589,5.76215 -20.33654,8.48486 -31.27026,7.25172 z"
       id="path955"
       inkscape:connector-curvature="0"
       transform="scale(0.26458333)" />
    <path
       style="fill:#ffeeaa;fill-opacity:1;stroke:#000000;stroke-width:0.63472575;stroke-miterlimit:4;stroke-dasharray:none"
       d="m 157.29051,220.32566 c -8.00486,-0.81992 -16.3258,-4.78757 -21.4345,-10.22053 -3.26529,-3.47256 -8.36501,-12.35083 -10.066,-17.52422 -1.46653,-4.46035 -1.70831,-6.15853 -1.70783,-11.99556 3.3e-4,-3.96417 0.11741,-6.00476 0.4637,-8.08122 0.61694,-3.69943 2.13234,-9.527 3.63475,-13.97772 l 1.22322,-3.62365 0.7289,1.35081 c 0.99683,1.84734 3.47155,4.20376 5.47638,5.21459 l 1.65278,0.83332 -1.20412,2.95475 c -4.54104,11.14316 -5.06245,19.83901 -1.76253,29.39474 1.48553,4.30175 2.2981,5.91588 4.23772,8.41807 6.18795,7.98272 14.305,11.95135 22.53096,11.01596 5.55095,-0.63121 10.98467,-3.09255 15.60386,-7.06817 l 1.79949,-1.54877 0.58208,0.94316 c 0.90073,1.4595 2.13593,2.72273 3.54884,3.62939 l 1.28991,0.82774 -1.36638,1.23439 c -2.0608,1.86173 -6.23295,4.53069 -8.93464,5.71555 -2.96121,1.29869 -6.37645,2.18551 -9.74976,2.53167 -2.85589,0.29307 -3.4706,0.29079 -6.54683,-0.0243 z"
       id="path957"
       inkscape:connector-curvature="0"
       transform="scale(0.26458333)" />
    <path
       style="fill:#ffeeaa;fill-opacity:1;stroke:#000000;stroke-width:0.63472575;stroke-miterlimit:4;stroke-dasharray:none"
       d="m 155.91138,212.01295 c -6.04873,-0.9414 -11.53547,-4.56587 -16.10295,-10.6374 -2.58596,-3.43749 -4.9106,-10.20863 -5.5025,-16.02746 -0.52033,-5.11531 0.46994,-11.04192 2.94783,-17.64219 1.11872,-2.97992 1.04019,-2.93218 1.96774,-1.19615 0.44857,0.83956 1.1799,1.98647 1.62518,2.54868 l 0.80959,1.0222 -1.13577,2.34817 c -2.34548,4.84918 -3.05288,8.04381 -2.86212,12.92537 0.14848,3.79947 0.81633,6.49111 2.45105,9.87839 1.06291,2.20247 3.09616,5.42716 4.51303,7.15761 1.97925,2.41728 6.2875,5.04328 10.26894,6.25921 2.11905,0.64716 2.58042,0.69416 6.81853,0.69453 4.29413,5.1e-4 4.7064,-0.043 7.44988,-0.78394 1.5973,-0.4314 2.94118,-0.74744 2.98639,-0.70232 0.14071,0.14044 -3.10558,1.87705 -4.78279,2.55856 -3.58541,1.45688 -8.20876,2.10151 -11.45203,1.59674 z"
       id="path959"
       inkscape:connector-curvature="0"
       transform="scale(0.26458333)" />
    <path
       style="fill:#ffeeaa;fill-opacity:1;stroke:#000000;stroke-width:0.63472575;stroke-miterlimit:4;stroke-dasharray:none"
       d="m 104.76258,73.537667 c -4.51436,-1.001012 -4.963282,-3.573894 -1.31176,-7.517972 4.59046,-4.95825 15.42591,-9.201672 22.25103,-8.71404 3.68809,0.263502 6.04919,1.175235 8.16239,3.151888 1.46873,1.373825 2.21307,2.704325 2.21307,3.955843 0,2.014722 -3.30335,4.282291 -8.81917,6.053879 -8.46523,2.71889 -18.13109,4.038176 -22.49556,3.070402 z"
       id="path961"
       inkscape:connector-curvature="0"
       transform="scale(0.26458333)" />
    <path
       style="fill:#ffeeaa;fill-opacity:1;stroke:#000000;stroke-width:0.63472575;stroke-miterlimit:4;stroke-dasharray:none"
       d="m 124.71309,94.084705 c -4.85135,-0.56889 -8.25476,-2.687707 -9.08598,-5.656544 -0.30393,-1.085523 -0.28088,-5.510027 0.0303,-5.821231 0.0733,-0.07334 1.01903,0.09318 2.10153,0.370039 4.10327,1.04944 9.1782,1.13275 14.40401,0.236458 3.74893,-0.642988 8.15335,-1.551653 11.99556,-2.474769 8.28168,-1.989729 11.71743,-2.441246 13.1317,-1.725735 0.6563,0.332035 1.49347,1.855966 2.30473,4.195372 1.06131,3.060498 0.42661,4.320836 -3.3146,6.581878 -3.08712,1.865736 -7.44363,2.971534 -13.89545,3.52703 -12.5924,1.084193 -14.32824,1.159583 -17.67182,0.767502 z"
       id="path964"
       inkscape:connector-curvature="0"
       transform="scale(0.26458333)" />
    <path
       style="fill:#ffeeaa;fill-opacity:1;stroke:#000000;stroke-width:0.63472575;stroke-miterlimit:4;stroke-dasharray:none"
       d="m 143.64877,117.59081 c -4.79238,-0.49582 -7.73038,-2.10641 -8.58915,-4.70852 -0.3044,-0.92236 -0.22907,-5.57721 0.0989,-6.1078 0.081,-0.13099 0.81549,-0.0801 1.72934,0.11976 2.37947,0.52045 8.2261,0.69964 11.31132,0.34667 3.94018,-0.45079 9.55161,-1.5891 18.30902,-3.71411 8.75368,-2.1241 12.68255,-2.80276 14.18364,-2.45004 0.80823,0.18992 1.08245,0.4354 1.65586,1.4823 0.84177,1.53685 1.71223,4.03097 1.71095,4.90239 -0.002,1.01624 -0.868,2.18403 -2.52655,3.40499 -3.82617,2.81666 -8.91156,4.37411 -17.29675,5.29729 -13.56807,1.4938 -17.38446,1.75835 -20.58654,1.42707 z"
       id="path966"
       inkscape:connector-curvature="0"
       transform="scale(0.26458333)" />
    <path
       style="fill:#ffeeaa;fill-opacity:1;stroke:#000000;stroke-width:0.63472575;stroke-miterlimit:4;stroke-dasharray:none"
       d="m 163.8565,140.5423 c -3.32373,-0.58565 -5.39469,-1.64184 -6.5003,-3.31514 -0.66555,-1.00729 -0.69703,-1.19449 -0.69703,-4.14449 0,-1.69925 0.0724,-3.16182 0.16081,-3.25016 0.0885,-0.0883 1.16805,0.0398 2.39911,0.28469 3.02292,0.60138 9.08282,0.59622 12.8449,-0.011 4.20318,-0.67835 9.15239,-1.73823 16.60986,-3.55704 10.63101,-2.59279 13.46446,-2.94816 14.65434,-1.83793 0.70604,0.65878 1.80366,3.07594 2.22432,4.89837 0.42162,1.82655 -0.10975,2.80983 -2.38004,4.40419 -4.51853,3.17324 -9.94861,4.66077 -20.62814,5.65094 -2.43068,0.22536 -5.15809,0.52339 -6.06092,0.66228 -2.33377,0.35904 -10.97489,0.50634 -12.62691,0.21524 z"
       id="path968"
       inkscape:connector-curvature="0"
       transform="scale(0.26458333)" />
    <path
       style="fill:#ffeeaa;fill-opacity:1;stroke:#000000;stroke-width:0.63472575;stroke-miterlimit:4;stroke-dasharray:none"
       d="m 189.5645,166.3124 c -2.59455,-0.29607 -3.82432,-0.64474 -5.60702,-1.58977 -2.68605,-1.4239 -3.69115,-3.72077 -3.27,-7.47265 0.2509,-2.23515 -0.10437,-2.11313 4.12969,-1.41843 5.64804,0.9267 11.91259,0.14455 26.26397,-3.27913 9.08672,-2.16774 11.94127,-2.56201 13.47842,-1.86164 0.97861,0.44588 2.68402,4.51636 2.68402,6.40621 0,1.26333 -0.4906,1.97701 -2.24359,3.26383 -4.02814,2.95693 -9.68826,4.44808 -19.72723,5.19711 -2.01399,0.15027 -4.57094,0.37808 -5.68211,0.50624 -3.22936,0.37246 -7.91974,0.48859 -10.02615,0.24823 z"
       id="path972"
       inkscape:connector-curvature="0"
       transform="scale(0.26458333)" />
    <path
       style="fill:#ffeeaa;fill-opacity:1;stroke:#000000;stroke-width:0.63472575;stroke-miterlimit:4;stroke-dasharray:none"
       d="m 205.34033,194.10531 c -7.84067,-0.89808 -10.6254,-3.77711 -9.90103,-10.2363 0.12101,-1.07904 0.25225,-1.98962 0.29165,-2.02351 0.0394,-0.0339 1.09441,0.1647 2.34447,0.44131 2.78155,0.61549 10.20466,0.74548 13.38452,0.23439 4.74927,-0.76335 10.50838,-1.93859 16.28871,-3.32398 3.40295,-0.8156 7.34146,-1.71765 8.75224,-2.00456 2.74345,-0.55794 6.37266,-0.68924 7.17543,-0.25961 0.62043,0.33204 1.7843,2.62773 2.48694,4.90538 l 0.54239,1.75816 -0.77981,1.58401 c -0.60941,1.23789 -1.09406,1.80921 -2.21802,2.6147 -3.92836,2.81523 -9.50241,4.39469 -18.23201,5.1662 -2.43068,0.21482 -6.06723,0.55586 -8.08122,0.75787 -4.84225,0.48568 -9.79818,0.64435 -12.05426,0.38594 z"
       id="path974"
       inkscape:connector-curvature="0"
       transform="scale(0.26458333)" />
  </g>
</svg>
