<?xml version="1.0" encoding="UTF-8" standalone="no"?><!DOCTYPE svg PUBLIC "-//W3C//DTD SVG 1.1//EN" "http://www.w3.org/Graphics/SVG/1.1/DTD/svg11.dtd"><svg width="100%" height="100%" viewBox="0 0 304 169" version="1.1" xmlns="http://www.w3.org/2000/svg" xmlns:xlink="http://www.w3.org/1999/xlink" xml:space="preserve" xmlns:serif="http://www.serif.com/" style="fill-rule:evenodd;clip-rule:evenodd;stroke-linecap:round;"><g><path id="path815-7-9" d="M49.357,25.959c13.444,-7.895 62.647,-22.933 114.644,-17.254c45.244,4.94 41.601,81.045 48.251,114.468c9.744,48.97 -74.731,38.965 -119.443,30.693c-123.86,-22.917 -89.158,-101.066 -43.452,-127.907Z" style="fill:#ff865f;fill-rule:nonzero;stroke:#000;stroke-width:3.62px;"/><path id="path815-4" d="M291.606,145.052c-12.44,22.033 -42.94,23.329 -68.168,2.859c-25.229,-20.47 -40.9,-60.967 -23.192,-76.987c51.521,-46.607 38.984,-3.526 68.028,0.365c32.488,4.354 37.449,48.762 23.332,73.763Z" style="fill:#ff865f;fill-rule:nonzero;stroke:#000;stroke-width:2.35px;"/><path id="path916" d="M104.957,110.826c19.765,8.739 4.703,46.689 4.324,45.441" style="fill:none;stroke:#000;stroke-opacity:0.457;stroke-width:0.87px;"/><path id="path918" d="M112.904,111.348c6.666,3.885 8.503,21.81 8.262,45.777" style="fill:none;stroke:#000;stroke-opacity:0.457;stroke-width:0.97px;"/><path id="path922" d="M32.661,86.834c0,1.325 -0.672,2.4 -1.5,2.4c-0.828,0 -1.5,-1.075 -1.5,-2.4c-3.234,-4.097 0.835,-2.689 1.5,-2.4c1.45,0.63 1.5,1.075 1.5,2.4Z" style="fill-rule:nonzero;stroke:#000;stroke-width:2.35px;"/><path id="path924" d="M174.727,139.309c0,0.854 -0.89,1.547 -1.988,1.547c-1.098,0 -1.988,-0.693 -1.988,-1.547c0,-0.853 0.89,-1.546 1.988,-1.546c1.098,0 11.156,0.913 1.988,1.546Z" style="fill-rule:nonzero;stroke:#000;stroke-width:2.6px;"/><path id="path926" d="M27.262,88.274c0,1.457 -1.298,2.639 -2.899,2.639c-1.601,0 -3.399,-2.681 -3.399,-4.139c0,-1.458 1.798,-1.14 3.399,-1.14c1.601,0 2.899,1.182 2.899,2.64Z" style="fill-rule:nonzero;stroke:#000;stroke-width:2.35px;"/><path id="path924-1" d="M229.965,70.95c-2.102,6.177 -2.148,1.031 -3.067,0.358c-0.937,-0.686 -1.988,-0.692 -1.988,-1.546c0,-0.854 0.891,-1.546 1.988,-1.546c1.098,0 4.07,-0.233 3.067,2.734l0,0Z" style="fill-rule:nonzero;stroke:#000;stroke-width:2.6px;"/><path id="path946" d="M255.494,88.277c-3.439,-9.702 -5.937,-19.154 -5.998,-27.956" style="fill:none;stroke:#000;stroke-opacity:0.574;stroke-width:1.21px;"/></g></svg>