<?xml version="1.0" encoding="UTF-8" standalone="no"?><!DOCTYPE svg PUBLIC "-//W3C//DTD SVG 1.1//EN" "http://www.w3.org/Graphics/SVG/1.1/DTD/svg11.dtd"><svg width="100%" height="100%" viewBox="0 0 195 260" version="1.1" xmlns="http://www.w3.org/2000/svg" xmlns:xlink="http://www.w3.org/1999/xlink" xml:space="preserve" xmlns:serif="http://www.serif.com/" style="fill-rule:evenodd;clip-rule:evenodd;"><g><path id="path817" d="M85.896,68.17c-4.852,-8.816 -6.571,-23.205 -4.279,-35.828c2.291,-12.624 8.124,-20.897 14.523,-20.6c6.399,0.296 12.054,9.101 14.082,21.924c2.027,12.824 0.011,27.039 -5.019,35.398" style="fill:#f04;fill-rule:nonzero;stroke:#000;stroke-width:5.69px;"/><path id="path817-9-2" d="M81.151,67.219c0.795,-7.072 -1.939,-16.961 -6.809,-24.624c-4.869,-7.663 -10.877,-11.531 -14.959,-9.631c-4.082,1.9 -5.402,9.178 -3.288,18.123c2.115,8.945 7.232,17.725 12.741,21.863" style="fill:#f04;fill-rule:nonzero;stroke:#000;stroke-width:5.74px;"/><path id="path817-9-2-6" d="M109.786,66.888c-0.795,-7.072 1.939,-16.96 6.809,-24.623c4.869,-7.663 10.877,-11.531 14.959,-9.632c4.082,1.9 5.402,9.178 3.287,18.123c-2.114,8.945 -7.231,17.726 -12.74,21.863" style="fill:#f04;fill-rule:nonzero;stroke:#000;stroke-width:5.74px;"/><path id="path815-0" d="M74.709,231.832c-40.343,-11.214 -66.474,-50.593 -60.895,-91.769c5.579,-41.177 41.263,-72.321 83.161,-72.579c41.898,-0.258 77.97,30.443 84.065,71.548c6.094,41.104 -19.54,80.802 -59.74,92.512" style="fill:#ffcb00;fill-rule:nonzero;stroke:#000;stroke-width:6.34px;"/><path id="path884" d="M87.372,187.78c-7.359,19.867 -19.144,55.41 -5.519,58.112c8.248,-0.122 9.612,-14.693 16.869,-15.756c6.577,0.783 6.426,16.016 14.489,17.378c17.959,0.298 -0.898,-49.363 -4.216,-61.104" style="fill:#f04;fill-rule:nonzero;stroke:#000;stroke-width:5.96px;"/><path id="path882" d="M77.278,166.112c-1.699,15.426 8.875,20.03 21.067,29.447c11.454,-9.435 22.358,-17.986 19.146,-28.738" style="fill:#ffc9b9;fill-rule:nonzero;stroke:#000;stroke-width:4.99px;"/><path id="path864" d="M117.491,166.821c0,7.514 -10.038,14.193 -19.459,19.281c-11.297,-4.612 -20.168,-11.767 -20.168,-19.281c0,-7.513 8.871,-10.056 19.813,-10.056c10.943,0 19.814,2.543 19.814,10.056Z" style="fill:#ffc9b9;fill-rule:nonzero;stroke:#000;stroke-width:6.2px;"/><ellipse id="path899-7" cx="77.337" cy="131.488" rx="5.727" ry="8.988" style="stroke:#000;stroke-width:4.32px;"/><ellipse id="path899-1-8" cx="114.968" cy="131.237" rx="5.727" ry="8.988" style="stroke:#000;stroke-width:4.32px;"/></g></svg>