<?xml version="1.0" encoding="UTF-8" standalone="no"?><!DOCTYPE svg PUBLIC "-//W3C//DTD SVG 1.1//EN" "http://www.w3.org/Graphics/SVG/1.1/DTD/svg11.dtd"><svg width="100%" height="100%" viewBox="0 0 222 356" version="1.1" xmlns="http://www.w3.org/2000/svg" xmlns:xlink="http://www.w3.org/1999/xlink" xml:space="preserve" xmlns:serif="http://www.serif.com/" style="fill-rule:evenodd;clip-rule:evenodd;"><g><path id="rect831" d="M9.645,77.592l154.86,10.381l-0.718,258.106l-153.087,-11.777l-1.055,-256.71Z" style="fill:#fff;fill-rule:nonzero;stroke:#000;stroke-width:4.68px;"/><path id="path834" d="M164.798,346.642c2.576,-1.71 36.994,-23.824 47.004,-25.676" style="fill:none;stroke:#000;stroke-width:4.46px;"/><path id="path834-1" d="M164.505,87.973l48.011,-22.088" style="fill:none;stroke:#000;stroke-width:4.46px;"/><path id="path851" d="M211.421,65.236l-0.717,258.106" style="fill:none;stroke:#000;stroke-width:4.46px;"/><path id="path853-5" d="M184.945,35.661l-20.44,52.312" style="fill:none;stroke:#000;stroke-width:4.46px;"/><path id="path853-5-1" d="M30.085,25.28l-20.44,52.312" style="fill:none;stroke:#000;stroke-width:4.46px;"/><path id="path853-5-0" d="M184.945,35.661l27.571,30.224" style="fill:none;stroke:#000;stroke-width:4.46px;"/><path id="path900" d="M30.085,25.28l154.86,10.381" style="fill:none;stroke:#000;stroke-width:4.46px;"/><path id="path902" d="M31.279,8.139l-1.194,17.141" style="fill:none;stroke:#000;stroke-width:3.95px;"/><path id="path902-5" d="M184.552,17.718l0.393,17.943" style="fill:none;stroke:#000;stroke-width:3.95px;"/><path id="path900-9" d="M29.213,9.476l154.86,10.38" style="fill:none;stroke:#000;stroke-width:4.46px;"/><path id="path949" d="M211.421,65.236l-31.76,-15.652" style="fill:none;stroke:#000;stroke-width:3.43px;"/><path id="path953" d="M87.033,312.853c-6.485,16.725 -23.634,22.431 -36.924,22.415c-13.29,-0.016 -16.807,-30.931 -32.848,-32.124c-9.25,-2.929 -3.656,-29.991 7.829,-42.823c13.557,-15.145 65.058,-20.454 47.048,8.746c-6.234,9.685 -25.063,14.426 -17.571,27.705c15.616,16.527 31.851,-4.317 32.466,16.081Z" style="fill-rule:nonzero;stroke:#000;stroke-width:4.03px;"/><path id="path953-3" d="M106.303,326.374c-14.847,0.256 -24.114,-10.59 -27.84,-20.322c-3.725,-9.732 19.358,-21.553 15.776,-33.651c-0.321,-7.646 22.326,-11.646 35.548,-7.077c15.606,5.393 34.225,41.501 6.422,37.052c-9.295,-1.666 -18.282,-14.03 -26.515,-4.575c-8.478,16.373 12.319,22.022 -3.391,28.573Z" style="fill-rule:nonzero;stroke:#000;stroke-width:3.26px;"/><path id="path971-3" d="M120.869,129.227c-4.166,-15.5 -14.905,-37.96 -0.652,-37.943c14.254,0.017 42.063,18.234 42.045,33.303c-0.018,15.068 -4.628,40.493 -18.882,40.476c-14.254,-0.017 -18.577,-21.205 -22.511,-35.836l0,0Z" style="fill-rule:nonzero;stroke:#000;stroke-width:4.48px;"/><path id="path953-5" d="M115.01,158.761c-7.014,18.272 -25.561,24.507 -39.933,24.49c-14.373,-0.017 -18.177,-33.792 -35.525,-35.096c-10.003,-3.2 -3.953,-32.766 8.468,-46.784c14.661,-16.548 70.359,-22.349 50.881,9.553c-6.742,10.582 -27.105,15.761 -19.003,30.269c16.888,18.056 34.446,-4.716 35.112,17.568Z" style="fill-rule:nonzero;stroke:#000;stroke-width:4.38px;"/><g id="flowRoot1014"><path id="path7035" d="M22.719,206.791l8.182,0.32l5.155,13.563l6.233,-13.118l8.165,0.319l-0.975,24.93l-6.078,-0.238l0.713,-18.234l-6.269,13.218l-4.075,-0.16l-5.218,-13.666l-0.713,18.234l-6.095,-0.238l0.975,-24.93Z" style="fill-rule:nonzero;"/><path id="path7037" d="M56.782,208.122l6.429,0.252l-0.784,20.071l11.288,0.441l-0.19,4.859l-17.717,-0.693l0.974,-24.93Z" style="fill-rule:nonzero;"/><path id="path7039" d="M78.557,208.973l17.349,0.679l-0.19,4.859l-10.92,-0.427l-0.182,4.642l10.269,0.401l-0.19,4.859l-10.269,-0.401l-0.223,5.711l11.288,0.441l-0.19,4.859l-17.717,-0.692l0.975,-24.931Zm9.532,-6.417l4.726,0.185l-4.932,4.222l-3.272,-0.128l3.478,-4.279Z" style="fill-rule:nonzero;"/><path id="path7041" d="M101.934,209.887l6.429,0.252l-0.356,9.1l9.623,-8.738l7.464,0.292l-12.467,11.336l12.728,13.642l-8.048,-0.315l-9.535,-10.206l-0.384,9.819l-6.429,-0.252l0.975,-24.93Z" style="fill-rule:nonzero;"/><path id="path7043" d="M138.138,215.517c-1.959,-0.077 -3.507,0.587 -4.644,1.992c-1.136,1.405 -1.756,3.421 -1.858,6.049c-0.103,2.616 0.358,4.668 1.381,6.158c1.023,1.489 2.515,2.272 4.474,2.349c1.97,0.077 3.524,-0.587 4.66,-1.992c1.136,-1.405 1.756,-3.416 1.858,-6.032c0.103,-2.627 -0.358,-4.685 -1.381,-6.175c-1.023,-1.489 -2.52,-2.272 -4.49,-2.349Zm0.182,-4.659c4.007,0.157 7.102,1.426 9.283,3.808c2.181,2.382 3.193,5.593 3.035,9.634c-0.157,4.03 -1.417,7.147 -3.777,9.352c-2.361,2.204 -5.545,3.228 -9.552,3.071c-3.997,-0.156 -7.091,-1.425 -9.283,-3.808c-2.182,-2.382 -3.194,-5.587 -3.036,-9.617c0.158,-4.041 1.417,-7.164 3.778,-9.368c2.371,-2.204 5.555,-3.228 9.552,-3.072Z" style="fill-rule:nonzero;"/></g><path id="path971-3-6" d="M158.159,311.058c3.297,11.43 11.795,27.994 0.518,27.981c-11.277,-0.013 -33.28,-13.45 -33.267,-24.562c0.014,-11.113 3.66,-29.863 14.937,-29.849c11.277,0.013 14.699,15.639 17.812,26.43l0,0Z" style="fill-rule:nonzero;stroke:#000;stroke-width:3.42px;"/><path id="path971-3-7" d="M13.744,179.338c-6.544,-10.318 -3.746,-24.008 7.706,-27.242c11.451,-3.233 19.178,8.861 22.272,19.818c3.094,10.957 0.204,17.255 -11.247,20.488c-11.759,1.775 -10.331,-6.701 -18.731,-13.064Z" style="fill-rule:nonzero;stroke:#000;stroke-width:3.56px;"/><path id="path971-3-7-8" d="M23.582,88.251c6.465,-4.933 15.041,-2.826 17.065,5.803c2.024,8.63 -5.554,14.455 -12.419,16.788c-6.864,2.333 -19.235,3.555 -17.448,-6.474c-1.11,-8.861 8.815,-9.786 12.802,-16.117Z" style="fill-rule:nonzero;stroke:#000;stroke-width:2.44px;"/><path id="path971-3-7-7" d="M129.657,158.912c-2.717,-15.918 28.179,0.975 31.412,12.426c3.234,11.452 -12.463,12.757 -23.419,15.851c-10.957,3.094 -17.255,0.204 -20.489,-11.247c-1.774,-11.759 12.653,-6.921 12.496,-17.03Z" style="fill-rule:nonzero;stroke:#000;stroke-width:3.56px;"/><path id="path843" d="M166.471,309.914c0,-17.878 0.17,-74.784 0.377,-126.459l0.378,-93.954l20.623,-9.494c11.343,-5.222 20.726,-9.392 20.851,-9.267c0.125,0.125 0.078,56.127 -0.105,124.448l-0.333,124.221l-3.756,1.539c-4.479,1.836 -19.642,10.202 -29.527,16.292c-3.9,2.402 -7.409,4.55 -7.799,4.773c-0.564,0.323 -0.709,-6.257 -0.709,-32.099l0,0Z" style="fill:#fff;fill-rule:nonzero;stroke:#000;stroke-width:0.97px;stroke-linecap:round;"/><path id="path845" d="M167.376,332.846c-0.561,-12.265 0.491,-242.246 1.111,-242.858c0.295,-0.291 9.214,-4.479 19.82,-9.308l19.285,-8.779l0.176,95.097c0.098,52.304 0.004,107.907 -0.208,123.563l-0.386,28.467l-2.343,0.928c-3.376,1.338 -16.766,8.646 -27.3,14.9c-4.991,2.963 -9.238,5.476 -9.437,5.585c-0.199,0.109 -0.522,-3.309 -0.718,-7.595Z" style="fill:#fff;fill-rule:nonzero;stroke:#000;stroke-width:0.97px;stroke-linecap:round;"/><path id="path847" d="M169.307,82.843c0,-0.221 9.774,-25.36 10.966,-28.205l0.896,-2.138l12.786,6.386c7.032,3.512 12.781,6.516 12.776,6.675c-0.011,0.304 -37.424,17.582 -37.424,17.282Z" style="fill:#fff;fill-rule:nonzero;stroke:#000;stroke-width:0.97px;stroke-linecap:round;"/><path id="path849" d="M191.569,53.206c-4.757,-2.395 -8.65,-4.634 -8.65,-4.975c0,-1.207 2.655,-7.129 3.168,-7.065c0.549,0.068 14.982,15.63 14.982,16.154c0,0.602 -0.961,0.185 -9.5,-4.114Z" style="fill:#fff;fill-rule:nonzero;stroke:#000;stroke-width:0.97px;stroke-linecap:round;"/><path id="path852" d="M87.708,80.277c-40.668,-2.756 -74.026,-5.096 -74.128,-5.199c-0.103,-0.102 3.924,-10.707 8.949,-23.566l9.137,-23.379l2.035,-0.005c2.764,-0.005 147.187,9.695 147.392,9.9c0.394,0.395 -18.324,47.383 -18.853,47.325c-0.324,-0.035 -33.864,-2.32 -74.532,-5.076l0,0Z" style="fill:#fff;fill-rule:nonzero;stroke:#000;stroke-width:0.97px;stroke-linecap:round;"/><path id="path854" d="M108.902,28.099c-40.242,-2.75 -73.905,-5.016 -74.808,-5.036l-1.641,-0.035l0.395,-5.229c0.217,-2.876 0.476,-5.311 0.577,-5.411c0.1,-0.1 19.165,1.098 42.367,2.661c23.202,1.564 56.095,3.756 73.096,4.872c17.002,1.115 31.469,2.144 32.149,2.285c1.151,0.239 1.25,0.635 1.418,5.645c0.099,2.964 0.053,5.357 -0.103,5.318c-0.156,-0.039 -33.208,-2.32 -73.45,-5.07l0,0Z" style="fill:#fff;fill-rule:nonzero;stroke:#000;stroke-width:0.97px;stroke-linecap:round;"/></g></svg>