<?xml version="1.0" encoding="UTF-8" standalone="no"?><!DOCTYPE svg PUBLIC "-//W3C//DTD SVG 1.1//EN" "http://www.w3.org/Graphics/SVG/1.1/DTD/svg11.dtd"><svg width="100%" height="100%" viewBox="0 0 263 361" version="1.1" xmlns="http://www.w3.org/2000/svg" xmlns:xlink="http://www.w3.org/1999/xlink" xml:space="preserve" xmlns:serif="http://www.serif.com/" style="fill-rule:evenodd;clip-rule:evenodd;"><g><g id="kresba"><path id="path827" d="M11.012,316.711c11.803,13.258 28.077,38.95 35.41,39.776c59.072,-3.696 172.144,-19.226 210.595,-32.789c1.37,-0.483 1.454,-1.59 1.299,-2.177c-8.748,-33.168 -4.647,-181.051 -9.375,-272.494c-0.43,-8.319 -6.506,-18.939 -10.191,-23.205c2.022,-0.672 7.994,-2.665 5.842,-5.283c-6.452,-7.853 -21.864,-13.84 -31.061,-16.663c-50.272,2.399 -145.188,6.761 -209.352,28.488c-0.813,0.275 0.247,2.105 0.416,2.883c9.117,42.072 -1.05,196.394 6.417,281.464Z" style="fill:#fff;fill-rule:nonzero;stroke:#000;stroke-width:1.88px;"/><path id="path829" d="M4.687,33.18c10.829,10.526 30.063,8.867 26.741,15.536c-3.313,2.658 -8.469,-1.615 -12.3,-2.755" style="fill:none;stroke:#000;stroke-width:1.66px;stroke-linecap:round;"/><path id="path831" d="M30.879,49.096c9.925,-5.824 138.231,-3.861 208.434,-23.422" style="fill:none;stroke:#000;stroke-width:1.66px;stroke-linecap:round;"/><path id="path837" d="M35.939,179.879c6.755,103.564 -1.162,133.431 7.605,175.027" style="fill:none;stroke:#232323;stroke-opacity:0.326;stroke-width:1.88px;stroke-linecap:round;"/><path id="rect839" d="M65.775,170.131c234.27,13.843 129.973,-3.069 165.342,-7.293l4.217,69.253c6.481,12.103 -17.319,4.705 -25.221,3.781c-26.066,-3.05 -77.654,-7.986 -140.432,0.556l-3.906,-66.297Z" style="fill:#ffaecd;fill-rule:nonzero;stroke:#000;stroke-width:1.01px;stroke-linecap:round;"/><g id="flowRoot852"><path id="path7046" d="M103.244,212.84l-5.741,-18.436l-0.141,-0.002c0.246,3.74 0.376,6.234 0.392,7.483l0.136,10.89l-4.336,-0.053l-0.293,-23.414l6.605,0.081l5.641,17.971l0.094,0.001l5.521,-17.835l6.606,0.081l0.293,23.413l-4.524,-0.055l-0.139,-11.082c-0.006,-0.523 -0.009,-1.126 -0.007,-1.81c0.012,-0.683 0.063,-2.497 0.151,-5.442l-0.141,-0.002l-5.672,18.265l-4.445,-0.054Z" style="fill-rule:nonzero;"/><path id="path7048" d="M144.423,201.605c0.048,3.875 -0.854,6.843 -2.706,8.902c-1.852,2.059 -4.532,3.067 -8.038,3.024c-3.507,-0.042 -6.212,-1.116 -8.117,-3.221c-1.904,-2.105 -2.881,-5.106 -2.93,-9.003c-0.049,-3.897 0.853,-6.859 2.706,-8.886c1.863,-2.037 4.553,-3.035 8.07,-2.992c3.517,0.043 6.217,1.111 8.101,3.205c1.894,2.094 2.865,5.085 2.914,8.971Zm-16.703,-0.204c0.033,2.616 0.543,4.592 1.53,5.928c0.987,1.335 2.446,2.015 4.377,2.038c3.871,0.048 5.774,-2.561 5.708,-7.824c-0.066,-5.274 -2.024,-7.935 -5.875,-7.982c-1.931,-0.023 -3.378,0.626 -4.342,1.949c-0.965,1.312 -1.431,3.276 -1.398,5.891Z" style="fill-rule:nonzero;"/><path id="path7050" d="M167.679,190.215l0.19,15.15c0.022,1.73 -0.34,3.241 -1.086,4.534c-0.735,1.294 -1.813,2.279 -3.234,2.955c-1.421,0.677 -3.107,1.003 -5.059,0.98c-2.943,-0.036 -5.238,-0.833 -6.885,-2.39c-1.648,-1.568 -2.488,-3.692 -2.522,-6.372l-0.189,-15.086l4.837,0.059l0.18,14.333c0.023,1.805 0.394,3.133 1.114,3.985c0.72,0.852 1.9,1.288 3.538,1.308c1.586,0.02 2.729,-0.388 3.428,-1.223c0.71,-0.845 1.053,-2.176 1.03,-3.991l-0.179,-14.301l4.837,0.059Z" style="fill-rule:nonzero;"/><path id="path7052" d="M191.985,213.921l-5.51,-0.067l-6.119,-9.938l-2.032,1.48l0.105,8.36l-4.853,-0.059l-0.293,-23.414l4.853,0.059l0.134,10.714l1.875,-2.731l6.099,-7.884l5.385,0.066l-7.853,10.264l8.209,13.15Z" style="fill-rule:nonzero;"/><path id="path7054" d="M208.876,214.127l-1.729,-5.593l-8.344,-0.102l-1.589,5.553l-5.229,-0.064l7.783,-23.411l5.933,0.072l8.403,23.609l-5.228,-0.064Zm-2.94,-9.771c-1.597,-5.069 -2.499,-7.935 -2.706,-8.6c-0.196,-0.664 -0.338,-1.189 -0.426,-1.574c-0.328,1.362 -1.271,4.729 -2.832,10.101l5.964,0.073Z" style="fill-rule:nonzero;"/></g><path id="path860" d="M28.484,49.8c7.417,10.459 3.503,40.653 5.591,63.158" style="fill:none;stroke:#232323;stroke-opacity:0.321;stroke-width:1.88px;stroke-linecap:round;"/></g></g></svg>