<?xml version="1.0" encoding="UTF-8" standalone="no"?><!DOCTYPE svg PUBLIC "-//W3C//DTD SVG 1.1//EN" "http://www.w3.org/Graphics/SVG/1.1/DTD/svg11.dtd"><svg width="100%" height="100%" viewBox="0 0 254 265" version="1.1" xmlns="http://www.w3.org/2000/svg" xmlns:xlink="http://www.w3.org/1999/xlink" xml:space="preserve" xmlns:serif="http://www.serif.com/" style="fill-rule:evenodd;clip-rule:evenodd;"><g><path id="path862" d="M39.991,84.74c-23.277,-8.406 -24.94,-55 -14.162,-64.319c24.873,-9.286 63.149,10.817 60.886,32.171" style="fill:#ffaecd;fill-rule:nonzero;stroke:#000;stroke-width:7.46px;"/><path id="path862-4" d="M210.503,82.014c23.277,-8.406 24.94,-55 14.162,-64.318c-24.873,-9.287 -63.149,10.817 -60.886,32.17" style="fill:#ffaecd;fill-rule:nonzero;stroke:#000;stroke-width:7.46px;"/><ellipse id="path815-5" cx="126.566" cy="146.528" rx="110.139" ry="101.175" style="fill:#ffaecd;stroke:#000;stroke-width:7.97px;"/><ellipse id="path821" cx="126.9" cy="186.094" rx="44.981" ry="31.947" style="fill:none;stroke:#000;stroke-width:8.44px;"/><ellipse id="path899" cx="115.023" cy="186.837" rx="5.935" ry="8.629" style="stroke:#000;stroke-width:4.32px;"/><ellipse id="path899-2" cx="139.531" cy="186.346" rx="5.935" ry="8.629" style="stroke:#000;stroke-width:4.32px;"/><ellipse id="path899-5" cx="93.71" cy="129.425" rx="7.47" ry="10.861" style="stroke:#000;stroke-width:5.44px;"/><ellipse id="path899-1" cx="152.695" cy="129.126" rx="7.47" ry="10.861" style="stroke:#000;stroke-width:5.44px;"/><path id="path889" d="M42.805,43.834l17.586,21.006" style="fill:none;stroke:#000;stroke-width:6.28px;stroke-linecap:round;"/><path id="path889-8" d="M205.701,41.476l-17.586,21.007" style="fill:none;stroke:#000;stroke-width:6.28px;stroke-linecap:round;"/></g></svg>