<?xml version="1.0" encoding="UTF-8" standalone="no"?><!DOCTYPE svg PUBLIC "-//W3C//DTD SVG 1.1//EN" "http://www.w3.org/Graphics/SVG/1.1/DTD/svg11.dtd"><svg width="100%" height="100%" viewBox="0 0 256 318" version="1.1" xmlns="http://www.w3.org/2000/svg" xmlns:xlink="http://www.w3.org/1999/xlink" xml:space="preserve" xmlns:serif="http://www.serif.com/" style="fill-rule:evenodd;clip-rule:evenodd;stroke-linecap:round;"><g><ellipse id="path815-76" cx="127.889" cy="18.364" rx="122.459" ry="12.934" style="stroke:#000;stroke-width:2.63px;"/><path id="path815-7" d="M218.77,291.201c0,7.252 -17.349,13.974 -45.42,17.6c-28.07,3.625 -62.768,3.625 -90.839,0c-28.071,-3.626 -45.42,-10.348 -45.42,-17.6" style="fill:none;stroke:#000;stroke-width:2.84px;"/><path id="path832" d="M6.595,19.819l30.796,273.212l-0.44,0.439" style="fill:none;stroke:#000;stroke-width:2.52px;stroke-linecap:butt;"/><path id="path834-5" d="M249.889,19.379l-31.237,273.652" style="fill:none;stroke:#000;stroke-width:2.52px;stroke-linecap:butt;"/><path id="path815-7-0" d="M242.864,78.381c0,9.134 -21.853,17.601 -57.212,22.168c-35.36,4.567 -79.066,4.567 -114.425,0c-35.359,-4.567 -57.212,-13.034 -57.212,-22.168" style="fill:none;stroke:#000;stroke-width:3.58px;"/><path id="path815-7-7" d="M234.552,159.218c0,9.951 -20.266,19.175 -53.056,24.151c-32.791,4.975 -73.322,4.975 -106.113,0c-32.791,-4.976 -53.056,-14.2 -53.056,-24.151" style="fill:none;stroke:#000;stroke-width:3.6px;"/><path id="path942" d="M16.246,140.308c76.404,33.379 156.464,34.492 223.551,3.719" style="fill:none;"/><g id="text962"><path id="path7057" d="M58.436,124.281l-2.129,5.208c-1.197,-1.121 -2.42,-2.082 -3.668,-2.881c-1.247,-0.8 -2.482,-1.418 -3.703,-1.856c-1.62,-0.58 -2.903,-0.8 -3.849,-0.66c-0.945,0.14 -1.598,0.649 -1.957,1.528c-0.27,0.66 -0.223,1.268 0.141,1.827c0.38,0.552 1.203,1.205 2.469,1.961l2.666,1.578c2.699,1.596 4.435,3.176 5.21,4.738c0.774,1.562 0.739,3.376 -0.106,5.441c-1.109,2.714 -2.799,4.426 -5.069,5.138c-2.253,0.704 -5.147,0.424 -8.681,-0.842c-1.667,-0.597 -3.279,-1.344 -4.837,-2.242c-1.557,-0.898 -3.057,-1.939 -4.497,-3.122l2.19,-5.356c1.338,1.436 2.699,2.648 4.086,3.636c1.402,0.981 2.831,1.732 4.287,2.253c1.48,0.53 2.707,0.705 3.682,0.525c0.976,-0.18 1.638,-0.698 1.989,-1.555c0.314,-0.769 0.287,-1.459 -0.082,-2.07c-0.358,-0.607 -1.268,-1.361 -2.73,-2.262l-2.401,-1.484c-2.415,-1.469 -3.996,-2.999 -4.746,-4.59c-0.737,-1.586 -0.706,-3.358 0.094,-5.313c1.002,-2.45 2.618,-4.032 4.848,-4.745c2.229,-0.713 4.929,-0.502 8.099,0.634c1.444,0.517 2.887,1.153 4.328,1.908c1.445,0.745 2.901,1.612 4.366,2.603l0,0Z" style="fill-rule:nonzero;"/><path id="path7059" d="M63.405,125.289l8.953,2.138l2.487,15.145l9.974,-12.169l8.935,2.133l-6.961,25.527l-6.651,-1.588l5.091,-18.671l-10.038,12.263l-4.458,-1.064l-2.532,-15.265l-5.092,18.671l-6.669,-1.593l6.961,-25.527Z" style="fill-rule:nonzero;"/><path id="path7061" d="M97.529,132.902l19.428,2.364l-0.707,5.092l-12.23,-1.488l-0.676,4.864l11.5,1.4l-0.707,5.092l-11.5,-1.4l-0.832,5.985l12.641,1.538l-0.708,5.092l-19.839,-2.414l3.63,-26.125Z" style="fill-rule:nonzero;"/><path id="path7063" d="M117.657,135.403l25.934,0.761l-0.172,5.132l-9.329,-0.274l-0.71,21.2l-7.257,-0.213l0.711,-21.2l-9.348,-0.274l0.171,-5.132Z" style="fill-rule:nonzero;"/><path id="path7065" d="M160.075,156.293l-11.317,0.836l-1.382,4.917l-7.275,0.538l8.18,-27.032l8.628,-0.637l12.611,25.495l-7.275,0.537l-2.17,-4.654Zm-9.923,-4.17l7.688,-0.568l-4.716,-10.165l-2.972,10.733Z" style="fill-rule:nonzero;"/><path id="path7067" d="M167.24,134.042l7.924,-1.61l14.105,15.623l-4.099,-17.657l6.725,-1.367l5.977,25.744l-7.924,1.611l-14.105,-15.624l4.099,17.658l-6.725,1.367l-5.977,-25.745Z" style="fill-rule:nonzero;"/><path id="path7069" d="M218.97,142.787l-10.647,3.686l0.1,5.083l-6.844,2.37l0.009,-28.094l8.117,-2.811l19.55,21.321l-6.844,2.37l-3.441,-3.925Zm-10.762,-1.486l7.233,-2.505l-7.494,-8.58l0.261,11.085Z" style="fill-rule:nonzero;"/></g><path id="path973" d="M35.192,26.859c-1.8,41.66 39.978,34.541 36.956,2.639" style="fill-rule:nonzero;stroke:#000;stroke-width:0.87px;stroke-linecap:butt;"/><path id="path977" d="M100.974,101.653c-56.187,-3.014 -66.683,-10.39 -79.627,-16.281c-9.383,-4.271 -6.862,-7.413 -10.168,-36.249c-1.636,-14.275 -3.713,-28.367 -3.112,-27.338c4.736,1.131 11.878,3.581 16.871,4.413l9.814,1.541l-0.054,4.468c1.585,14.824 7.993,23.181 18.455,23.958c5.575,-0.052 7.385,-1.488 12.274,-4.82c4.549,-4.53 6.577,-14.015 6.577,-14.015l0.889,-6.373l52.78,1.011c29.635,0.568 66.743,-1.482 95.996,-4.153c12.08,-2.017 21.665,-4.174 26.747,-6.268c0.677,2.157 0.212,6.919 -0.203,11.654c-2.356,16.604 -4.723,45.23 -7.409,47.404c-6.224,14.897 -74.305,24.562 -139.83,21.048l0,0Z" style="fill:#00c9d6;"/><path id="path979" d="M95.291,309.647c-21.292,-2.268 -39.794,-6.279 -49.343,-10.695c-7.766,-3.592 -7.313,-2.366 -10.507,-28.411c-2.335,-19.047 -11.013,-100.86 -11.013,-102.769c0,-0.618 3.315,2.599 8.132,4.902c42.716,20.423 151.751,20.223 192.314,-0.352l7.047,-4.563l-0.778,6.594c-1.872,18.444 -8.91,80.652 -11.109,98.195c-2.929,23.374 -1.382,20.483 -10.808,26.813c-6.67,2.896 -19.619,6.098 -33.464,8.273c-10.87,1.708 -15.874,2.655 -43.826,2.84c-17.704,0.118 -34.678,-0.618 -36.645,-0.827Z" style="fill:#00c9d6;"/></g></svg>