<?xml version="1.0" encoding="UTF-8" standalone="no"?><!DOCTYPE svg PUBLIC "-//W3C//DTD SVG 1.1//EN" "http://www.w3.org/Graphics/SVG/1.1/DTD/svg11.dtd"><svg width="100%" height="100%" viewBox="0 0 281 270" version="1.1" xmlns="http://www.w3.org/2000/svg" xmlns:xlink="http://www.w3.org/1999/xlink" xml:space="preserve" xmlns:serif="http://www.serif.com/" style="fill-rule:evenodd;clip-rule:evenodd;"><g><g id="KRESBA"><path id="path831-0" d="M11.776,264.291c86.394,-20.531 171.88,-50.131 257.513,-78.269c1.711,-29.174 2.289,-57.335 3.421,-84.77c-22.18,8.528 -27.239,-21.599 0.494,-13.197c0.003,-14.669 0.899,-29.337 1.463,-44.233c-34.58,-16.814 -81.417,-26.273 -123.081,-38.836c-4.982,3.514 -4.381,19.556 -21.18,17.206c-6.728,13.938 -14.638,17.624 -22.222,12.993c-15.972,9.538 -30.455,20.995 -30.455,20.995c0,0 9.026,18.147 -24.995,17.299c-20.631,15.754 -25.552,21.12 -44.543,32.481c-8.975,7.499 3.801,47.46 3.286,71.996c42.61,-9.918 34.558,36.62 -0.896,52.279l1.195,34.056Z" style="fill:#ffcb00;fill-rule:nonzero;stroke:#000;stroke-width:2.42px;"/><path id="path833" d="M156.366,155.102c0,11.962 -10.323,19.62 -20.106,22.61c-11.309,3.455 -20.699,-0.222 -18.522,-21.659c1.341,-13.207 9.856,-22.651 20.106,-22.609c10.229,0.041 18.522,9.697 18.522,21.658Z" style="fill:#ffdd34;fill-rule:nonzero;stroke:#000;stroke-width:2.1px;stroke-linecap:round;"/><path id="path833-2" d="M187.708,118.675c-9.391,0 -20.49,9.311 -20.49,20.796c-0.739,13.281 8.248,21.957 17.639,21.957c5.22,0 9.887,-2.878 13.007,-7.404c2.253,3.18 5.622,5.028 9.173,5.032c0,0 0.001,0 0.001,0c6.52,0 11.886,-6.218 11.886,-13.775l0,-0.001c0,-7.557 -5.366,-13.775 -11.886,-13.775c0,0 -0.001,0 -0.001,0c-2.061,0.007 -4.086,0.634 -5.875,1.822c-1.626,-8.262 -6.123,-14.652 -13.454,-14.652Z" style="fill:#ffdd34;fill-rule:nonzero;stroke:#000;stroke-width:2.03px;stroke-linecap:round;"/><path id="path833-3" d="M73.12,207.332c-0.756,9.157 -4.888,15.468 -12.853,15.468c-7.965,0 -13.451,-8.44 -14.198,-15.468c-1.129,-10.627 7.043,-17.228 12.704,-18.23c8.566,-1.518 15.519,4.049 14.347,18.23Z" style="fill:#ffdd34;fill-rule:nonzero;stroke:#000;stroke-width:1.96px;stroke-linecap:round;"/><path id="path876" d="M8.191,105.96c103.408,-17.623 147.101,-26.346 267.03,-62.428" style="fill:none;stroke:#000;stroke-width:2.73px;stroke-linecap:round;"/><ellipse id="path833-9" cx="58.081" cy="127.768" rx="8.38" ry="12.413" style="fill:#ffdd34;stroke:#000;stroke-width:2.1px;stroke-linecap:round;"/><path id="path910" d="M235.531,44.696c0,4.621 -12.016,15.167 -18.528,15.167c-6.511,0 -10.259,-8.192 -10.259,-12.814c0,-4.622 5.279,-8.368 11.791,-8.368c6.511,0 16.996,1.393 16.996,6.015Z" style="fill:#ffdd34;fill-rule:nonzero;stroke:#000;stroke-width:1.83px;stroke-linecap:round;"/><path id="path910-8" d="M168.356,36.246c8.217,18.228 -11.583,31.947 -26.132,23.194c-4.688,-2.82 -10.259,-13.262 -10.259,-17.883c0,-4.622 9.504,-10.058 16.015,-10.058c6.512,0 17.51,-1.611 20.376,4.747Z" style="fill:#ffdd34;fill-rule:nonzero;stroke:#000;stroke-width:1.83px;stroke-linecap:round;"/></g></g></svg>