<?xml version="1.0" encoding="UTF-8" standalone="no"?><!DOCTYPE svg PUBLIC "-//W3C//DTD SVG 1.1//EN" "http://www.w3.org/Graphics/SVG/1.1/DTD/svg11.dtd"><svg width="100%" height="100%" viewBox="0 0 258 240" version="1.1" xmlns="http://www.w3.org/2000/svg" xmlns:xlink="http://www.w3.org/1999/xlink" xml:space="preserve" xmlns:serif="http://www.serif.com/" style="fill-rule:evenodd;clip-rule:evenodd;"><g><g id="g1321"><path id="path854-4" d="M79.923,51.471c-2.084,12.733 -11.957,21.715 -18.933,20.573c-6.977,-1.143 -10.564,-8.761 -8.48,-21.494c2.085,-12.732 15.931,-30.144 22.908,-29.001c6.977,1.142 6.59,17.19 4.505,29.922Z" style="fill:none;stroke:#000;stroke-width:3.03px;"/><path id="path854-9" d="M88.087,55.196c-4.283,18.278 -21.682,29.832 -31.698,27.485c-10.015,-2.347 -16.539,-11.945 -12.256,-30.223c4.283,-18.278 24.087,-42.002 33.566,-44.382c10.015,2.347 14.671,28.842 10.388,47.12Z" style="fill:none;stroke:#000;stroke-width:3.92px;"/><path id="path872" d="M43.059,56.11c-12.708,54.608 -28.991,114.593 -37.012,168.086c-0.136,3.846 1.574,7.29 4.506,8.122c14.322,7.042 47.619,-32.053 53.318,-45.856c18.008,-47.039 16.869,-90.516 25.568,-135.589" style="fill:none;stroke:#000;stroke-width:2.93px;"/><path id="path874" d="M45.271,74.665c-16.29,53.449 -23.622,105.193 -34.718,157.653" style="fill:none;stroke:#000;stroke-width:2.59px;"/><path id="path874-2" d="M51.141,79.635c-15.955,52 -22.965,102.395 -33.734,153.464" style="fill:none;stroke:#000;stroke-width:2.56px;"/><path id="path874-5" d="M79.86,72.105c-9.651,55.821 -13.852,84.943 -25.766,129.169" style="fill:none;stroke:#000;stroke-width:2.47px;"/><path id="path874-2-9" d="M57.465,82.398c-15.515,50.095 -22.1,98.713 -32.438,147.951" style="fill:none;stroke:#000;stroke-width:2.51px;"/><path id="path874-5-5" d="M72.275,78.647c-12.417,57.461 -15.941,87.19 -25.967,132.052" style="fill:none;stroke:#000;stroke-width:2.63px;"/><path id="path874-2-9-7" d="M62.963,81.718c-5.816,36.846 -18.544,84.253 -27.772,139.97" style="fill:none;stroke:#000;stroke-width:2.44px;"/></g><g id="g1310"><path id="path963" d="M136.947,28.049c4.424,4.857 4.061,10.244 -15.126,14.384c-11.153,2.407 -20.065,2.148 -20.883,-2.696c-0.759,-4.498 5.319,-10.217 15.022,-13.729c10.263,-3.715 17.684,-1.583 20.987,2.041Z" style="fill:none;stroke:#000;stroke-width:2.99px;"/><path id="path963-1-5-3" d="M247.94,146.082c2.398,4.885 2.706,7.444 0.505,9.899c-5.65,5.23 -13.114,6.959 -28.018,7.791c-31.387,4.338 -25.064,-10.818 -24.81,-16.001c9.713,3.177 16.361,1.716 28.735,-0.84c15.523,-3.75 21.928,-5.834 23.588,-0.849Z" style="fill:none;stroke:#000;stroke-width:3.44px;"/><path id="path1041" d="M117.524,43.285c-0.878,3.861 -2.635,7.214 -2.63,11.587" style="fill:none;stroke:#000;stroke-width:2.63px;"/><path id="path1043" d="M139.195,31.574c1.571,5.873 -0.744,10.94 -1.1,16.417" style="fill:none;stroke:#000;stroke-width:2.63px;"/><path id="path1041-3" d="M137.476,63.866c-4.333,9.717 -4.064,13.915 -2.408,18.033" style="fill:none;stroke:#000;stroke-width:2.63px;"/><path id="path1041-3-0" d="M162.532,51.54c3.339,4.96 -1.187,16.824 -2.934,20.112" style="fill:none;stroke:#000;stroke-width:2.63px;"/><path id="path1041-3-6" d="M158.763,87.01c-4.334,9.717 -2.89,15.661 -2.218,18.248" style="fill:none;stroke:#000;stroke-width:2.63px;"/><path id="path1041-3-0-4" d="M187.122,75.655c2.494,4.025 0.413,15.265 -1.334,18.553" style="fill:none;stroke:#000;stroke-width:2.63px;"/><path id="path1041-3-0-4-9" d="M180.445,110.141c0.216,10.51 0.719,13.143 -0.21,16.986" style="fill:none;stroke:#000;stroke-width:2.63px;"/><path id="path1041-3-0-4-9-4" d="M208.754,96.929c2.333,5.137 0.847,19.78 -0.082,23.623" style="fill:none;stroke:#000;stroke-width:2.63px;"/><path id="path1041-3-6-1" d="M199.628,136.755c-6.788,5.738 -5.988,18.954 -3.553,22.883" style="fill:none;stroke:#000;stroke-width:2.63px;"/><path id="path1041-3-0-4-9-4-7" d="M230.577,124.573c1.63,0.658 -0.068,17.325 -0.996,21.168" style="fill:none;stroke:#000;stroke-width:2.63px;"/><path id="path1186" d="M215.912,164.582c-0.332,5.838 0.061,7.081 3.88,10.457c7.581,4.807 14.941,2.571 26.753,-2.221c7.42,-4.774 4.549,-15.343 3.429,-21.717c-2.956,13.039 -18.527,11.653 -34.062,13.481Z" style="fill:none;stroke:#000;stroke-width:2.9px;"/><path id="path963-1-5-3-0" d="M228.676,119.782c2.184,4.449 2.465,6.781 0.46,9.017c-5.147,4.764 -11.946,6.34 -25.523,7.098c-28.593,3.952 -22.833,-9.856 -22.601,-14.577c8.848,2.894 14.904,1.564 26.176,-0.765c14.141,-3.416 19.975,-5.314 21.488,-0.773Z" style="fill:none;stroke:#000;stroke-width:3.13px;"/><path id="path963-1-5-3-0-3" d="M207.126,93.426c2.212,4.439 2.462,6.782 0.31,9.073c-5.508,4.898 -12.692,6.616 -26.991,7.642c-30.159,4.533 -23.832,-9.484 -23.496,-14.244c9.253,2.744 15.65,1.287 27.555,-1.277c14.944,-3.714 21.118,-5.739 22.622,-1.194Z" style="fill:none;stroke:#000;stroke-width:3.22px;"/><path id="path963-1-5-3-0-3-9" d="M185.444,70.295c2.212,4.44 2.462,6.783 0.31,9.073c-5.508,4.898 -12.692,6.617 -26.991,7.642c-30.159,4.534 -23.832,-9.484 -23.497,-14.243c9.253,2.743 15.65,1.286 27.555,-1.278c14.944,-3.713 21.119,-5.738 22.623,-1.194Z" style="fill:none;stroke:#000;stroke-width:3.22px;"/><path id="path963-1-5-3-0-3-90" d="M161.422,48.166c2.164,4.457 2.466,6.781 0.563,8.979c-4.898,4.672 -11.431,6.149 -24.509,6.721c-27.51,3.551 -22.395,-11.977 -21.339,-15.078c8.568,2.998 13.745,2.027 24.581,-0.14c13.586,-3.21 19.184,-5.021 20.704,-0.482l0,0Z" style="fill:none;stroke:#000;stroke-width:3.06px;"/></g><g id="g1291"><path id="path1250" d="M145.686,138.22c-4.115,-3.991 -4.076,-6.649 -5.123,-8.931c-4.002,-1.617 -7.599,-3.416 -9.07,-10.976c-4.679,-0.39 -6.497,-0.649 -9.909,-5.518c-6.372,1.294 -9.386,-0.551 -12.907,-2.875c-1.848,1.603 -3.177,3.627 -7.619,3.12c-19.333,28.667 -10.99,66.344 11.812,88.402c38.673,32.587 85.33,17.674 99.407,0.78c0,0 -8.715,-2.955 -8.804,-7.609c-2.584,-2.254 -5.129,-0.749 -7.058,-8.256c-5.771,-0.763 -7.434,-4.137 -8.299,-8.019c-2.929,-1.261 -5.758,-2.79 -7.327,-7.653c-7.291,4.048 -21.078,9.818 -32.566,-0.411c-12.306,-15.006 -6,-25.971 -2.537,-32.054Z" style="fill:none;stroke:#000;stroke-width:3.76px;"/><path id="path1252" d="M108.677,109.92c-13.169,32.679 -11.519,62.689 10.263,83.2c26.54,23.886 66.485,22.648 84.533,1.493" style="fill:none;stroke:#000;stroke-width:2.29px;"/><path id="path1252-0" d="M121.584,112.795c-13.169,32.678 -10.688,56.328 9.607,76.827c15.286,15.633 48.821,16.234 65.224,-3.265" style="fill:none;stroke:#000;stroke-width:2.29px;"/><path id="path1252-0-4" d="M131.493,118.313c-13.169,32.679 -6.49,44.172 2.393,58.085c7.609,11.635 34.384,23.279 54.23,1.94" style="fill:none;stroke:#000;stroke-width:2.29px;"/><path id="path1284" d="M140.563,129.289c-7.316,15.504 -7.91,25.537 -1.617,39.019c16.95,25.318 39.497,7.871 41.843,2.377" style="fill:none;stroke:#000;stroke-width:1.79px;"/></g><path id="path1492" d="M60.945,70.413c-0.442,-0.091 -1.381,-0.45 -2.088,-0.798c-4.503,-2.219 -6.311,-9.229 -4.792,-18.575c1.221,-7.513 6.745,-17.27 13.341,-23.568c3.069,-2.929 5.289,-4.239 7.231,-4.268c1.258,-0.018 1.739,0.246 2.677,1.468c1.785,2.326 2.646,8.314 2.228,15.493c-0.434,7.439 -1.297,12.79 -2.649,16.416c-3.161,8.481 -10.595,14.929 -15.948,13.832Z" style="fill:#ffcb00;fill-opacity:0.117647;fill-rule:nonzero;"/><path id="path1494" d="M60.608,70.317c-4.163,-1.12 -6.434,-4.692 -6.991,-10.995c-0.296,-3.353 0.191,-8.096 1.183,-11.533c2.645,-9.157 11.115,-20.822 17.363,-23.908c1.656,-0.819 3.238,-0.942 4.081,-0.319c1.885,1.395 2.883,4.4 3.302,9.947c0.398,5.263 -0.462,15.106 -1.765,20.215c-1.181,4.631 -3.604,8.999 -6.743,12.155c-2.461,2.476 -5.137,4.092 -7.492,4.525c-1.335,0.246 -1.745,0.234 -2.938,-0.087l0,0Z" style="fill:#ffcb00;fill-opacity:0.117647;fill-rule:nonzero;"/><path id="path1496" d="M60.829,70.346c-3.373,-0.819 -5.616,-3.392 -6.706,-7.693c-0.363,-1.436 -0.407,-2.036 -0.408,-5.625c-0.002,-4.235 0.116,-5.307 0.931,-8.483c1.759,-6.855 6.559,-14.865 12.364,-20.633c2.084,-2.071 4.373,-3.766 5.859,-4.34c0.899,-0.347 2.625,-0.382 3.249,-0.066c0.716,0.362 1.704,1.84 2.214,3.311c0.657,1.898 0.958,3.632 1.194,6.878c0.39,5.371 -0.468,14.899 -1.818,20.208c-1.138,4.471 -3.49,8.637 -6.733,11.926c-2.454,2.488 -4.755,3.921 -7.238,4.506c-1.295,0.306 -1.685,0.307 -2.908,0.011l0,0Z" style="fill:#ffcb00;fill-opacity:0.117647;fill-rule:nonzero;"/><path id="path1498" d="M61.143,70.41c-1.251,-0.252 -2.972,-1.148 -3.936,-2.049c-2.268,-2.122 -3.346,-5.198 -3.533,-10.088c-0.235,-6.154 0.807,-10.801 3.783,-16.87c4.562,-9.302 12.475,-17.772 16.902,-18.092c1.295,-0.094 1.968,0.165 2.637,1.016c1.766,2.244 2.522,6.022 2.519,12.576c-0.003,5.304 -0.456,10.239 -1.357,14.767c-1.337,6.716 -4.487,12.196 -9.157,15.93c-2.637,2.109 -5.771,3.23 -7.858,2.81Z" style="fill:#ffcb00;fill-opacity:0.117647;fill-rule:nonzero;"/><path id="path1500" d="M60.32,70.17c-2.873,-0.911 -4.978,-3.346 -5.984,-6.924c-0.908,-3.228 -0.875,-9.409 0.072,-13.548c1.643,-7.182 6.355,-15.377 12.301,-21.392c4.038,-4.085 7.249,-5.734 9.285,-4.768c1.336,0.634 2.455,2.961 3.098,6.439c0.272,1.471 0.33,2.703 0.332,7.051c0.005,8.279 -0.932,15.123 -2.702,19.732c-2.131,5.547 -6.225,10.469 -10.509,12.634c-1.959,0.99 -4.262,1.293 -5.893,0.776Z" style="fill:#ffcb00;fill-opacity:0.117647;fill-rule:nonzero;"/><path id="path1502" d="M60.059,70.057c-3.629,-1.305 -5.813,-4.855 -6.253,-10.161c-0.202,-2.439 -0.035,-6.557 0.358,-8.87c1.011,-5.935 4.467,-12.99 9.438,-19.266c1.521,-1.92 4.595,-5.007 6.183,-6.208c2.072,-1.568 3.455,-2.178 4.945,-2.182c1.124,-0.003 1.233,0.034 1.846,0.622c1.406,1.349 2.392,4.28 2.744,8.156c0.631,6.968 -0.346,17.567 -2.144,23.231c-2.606,8.214 -9.465,15.056 -15.07,15.033c-0.604,-0.002 -1.497,-0.157 -2.047,-0.355Z" style="fill:#ffcb00;fill-opacity:0.117647;fill-rule:nonzero;"/><path id="path1504" d="M60.127,70.083c-3.318,-1.224 -5.434,-4.227 -6.154,-8.731c-0.247,-1.546 -0.242,-7.31 0.008,-9.187c0.455,-3.413 1.644,-7.012 3.645,-11.03c4.382,-8.8 12.159,-17.166 16.514,-17.765c1.716,-0.236 2.786,0.518 3.796,2.675c1.818,3.885 2.071,13.645 0.6,23.125c-0.548,3.529 -1.13,5.795 -2.106,8.198c-2.316,5.702 -6.821,10.693 -11.182,12.39c-1.772,0.689 -3.788,0.817 -5.121,0.325l0,0Z" style="fill:#ffcb00;fill-opacity:0.117647;fill-rule:nonzero;"/><path id="path1506" d="M60.318,70.099c-3.368,-1.164 -5.486,-4.001 -6.247,-8.366c-0.359,-2.056 -0.357,-7.584 0.003,-9.973c0.712,-4.732 2.916,-10.142 6.261,-15.374c3.654,-5.716 8.915,-11.088 12.335,-12.595c1.201,-0.53 2.892,-0.555 3.575,-0.054c1.275,0.935 2.348,3.445 2.821,6.593c0.988,6.588 0.053,18.986 -1.883,24.965c-0.293,0.904 -1.004,2.608 -1.58,3.786c-3.715,7.593 -10.677,12.612 -15.285,11.018l0,0Z" style="fill:#ffcb00;fill-opacity:0.117647;fill-rule:nonzero;"/><path id="path1508" d="M60.699,70.222c-2.896,-0.68 -5.351,-3.492 -6.401,-7.332c-0.374,-1.37 -0.406,-1.845 -0.4,-6.041c0.007,-5.217 0.152,-6.24 1.431,-10.138c3.077,-9.378 11.713,-20.662 17.581,-22.974c1.06,-0.418 2.686,-0.434 3.299,-0.032c0.592,0.388 1.539,1.87 2.01,3.144c1.999,5.41 1.435,20.584 -1.056,28.382c-1.224,3.829 -3.383,7.503 -6.02,10.241c-3.635,3.774 -7.369,5.472 -10.444,4.75Z" style="fill:#ffcb00;fill-opacity:0.117647;fill-rule:nonzero;"/><path id="path1510" d="M60.699,70.222c-2.151,-0.505 -4.281,-2.402 -5.451,-4.856c-1.236,-2.592 -1.356,-3.352 -1.344,-8.517c0.009,-4.019 0.057,-4.774 0.411,-6.429c1.601,-7.49 6.428,-16.024 12.519,-22.133c3.323,-3.333 5.737,-4.831 7.785,-4.831c1.558,0 2.108,0.416 3.075,2.326c1.007,1.986 1.417,4.027 1.636,8.133c0.285,5.342 -0.179,12.165 -1.178,17.309c-1.177,6.061 -3.487,10.653 -7.288,14.489c-3.589,3.622 -7.173,5.211 -10.165,4.509Z" style="fill:#ffcb00;fill-opacity:0;fill-rule:nonzero;"/><path id="path1512" d="M57.588,80.852c-3.826,-0.923 -6.198,-2.206 -8.32,-4.502c-1.997,-2.162 -3.191,-4.616 -3.934,-8.086c-0.33,-1.544 -0.399,-2.44 -0.405,-5.254c-0.018,-8.098 2.217,-15.751 7.25,-24.822c6.512,-11.737 17.035,-23.706 23.956,-27.25l1.514,-0.776l0.655,0.312c2.279,1.087 4.78,4.921 6.398,9.807c1.956,5.907 2.852,12.158 2.86,19.961c0.009,7.32 -0.763,12.884 -2.5,18.036c-1.013,3.001 -3.455,7.498 -5.576,10.267c-4.364,5.698 -10.865,10.381 -16.382,11.803c-1.679,0.433 -4.677,0.707 -5.516,0.504Zm5.914,-7.231c7.491,-1.042 14.868,-9.177 17.397,-19.184c1.14,-4.51 1.835,-11.087 1.85,-17.499c0.011,-5.115 -0.198,-7.28 -0.973,-10.077c-1.433,-5.173 -4.77,-7.737 -8.744,-6.723c-2.516,0.643 -4.92,2.199 -8.008,5.186c-4.213,4.075 -7.981,9.344 -10.72,14.989c-2.64,5.441 -3.696,9.735 -3.892,15.822c-0.212,6.585 1.161,11.228 4.225,14.289c1.869,1.867 3.753,2.821 6.344,3.21c0.491,0.074 0.947,0.145 1.014,0.157c0.066,0.012 0.745,-0.064 1.507,-0.17Z" style="fill:#ffcb00;fill-opacity:0;fill-rule:nonzero;"/><path id="path1514" d="M57.588,80.852c-3.826,-0.923 -6.198,-2.206 -8.32,-4.502c-1.997,-2.162 -3.191,-4.616 -3.934,-8.086c-0.33,-1.544 -0.399,-2.44 -0.405,-5.254c-0.018,-8.098 2.217,-15.751 7.25,-24.822c6.512,-11.737 17.035,-23.706 23.956,-27.25l1.514,-0.776l0.655,0.312c2.279,1.087 4.78,4.921 6.398,9.807c1.956,5.907 2.852,12.158 2.86,19.961c0.009,7.32 -0.763,12.884 -2.5,18.036c-1.013,3.001 -3.455,7.498 -5.576,10.267c-4.364,5.698 -10.865,10.381 -16.382,11.803c-1.679,0.433 -4.677,0.707 -5.516,0.504Zm5.914,-7.231c7.491,-1.042 14.868,-9.177 17.397,-19.184c1.14,-4.51 1.835,-11.087 1.85,-17.499c0.011,-5.115 -0.198,-7.28 -0.973,-10.077c-1.433,-5.173 -4.77,-7.737 -8.744,-6.723c-2.516,0.643 -4.92,2.199 -8.008,5.186c-4.213,4.075 -7.981,9.344 -10.72,14.989c-2.64,5.441 -3.696,9.735 -3.892,15.822c-0.212,6.585 1.161,11.228 4.225,14.289c1.869,1.867 3.753,2.821 6.344,3.21c0.491,0.074 0.947,0.145 1.014,0.157c0.066,0.012 0.745,-0.064 1.507,-0.17Z" style="fill:#ffcb00;fill-opacity:0;fill-rule:nonzero;"/><path id="path1516" d="M57.588,80.852c-3.826,-0.923 -6.198,-2.206 -8.32,-4.502c-1.997,-2.162 -3.191,-4.616 -3.934,-8.086c-0.33,-1.544 -0.399,-2.44 -0.405,-5.254c-0.018,-8.098 2.217,-15.751 7.25,-24.822c6.512,-11.737 17.035,-23.706 23.956,-27.25l1.514,-0.776l0.655,0.312c2.279,1.087 4.78,4.921 6.398,9.807c1.956,5.907 2.852,12.158 2.86,19.961c0.009,7.32 -0.763,12.884 -2.5,18.036c-1.013,3.001 -3.455,7.498 -5.576,10.267c-4.364,5.698 -10.865,10.381 -16.382,11.803c-1.679,0.433 -4.677,0.707 -5.516,0.504Zm5.914,-7.231c7.491,-1.042 14.868,-9.177 17.397,-19.184c1.14,-4.51 1.835,-11.087 1.85,-17.499c0.011,-5.115 -0.198,-7.28 -0.973,-10.077c-1.433,-5.173 -4.77,-7.737 -8.744,-6.723c-2.516,0.643 -4.92,2.199 -8.008,5.186c-4.213,4.075 -7.981,9.344 -10.72,14.989c-2.64,5.441 -3.696,9.735 -3.892,15.822c-0.212,6.585 1.161,11.228 4.225,14.289c1.869,1.867 3.753,2.821 6.344,3.21c0.491,0.074 0.947,0.145 1.014,0.157c0.066,0.012 0.745,-0.064 1.507,-0.17Z" style="fill:#ffcb00;fill-opacity:0;fill-rule:nonzero;"/><path id="path1518" d="M57.588,80.852c-3.826,-0.923 -6.198,-2.206 -8.32,-4.502c-1.997,-2.162 -3.191,-4.616 -3.934,-8.086c-0.33,-1.544 -0.399,-2.44 -0.405,-5.254c-0.018,-8.098 2.217,-15.751 7.25,-24.822c6.512,-11.737 17.035,-23.706 23.956,-27.25l1.514,-0.776l0.655,0.312c2.279,1.087 4.78,4.921 6.398,9.807c1.956,5.907 2.852,12.158 2.86,19.961c0.009,7.32 -0.763,12.884 -2.5,18.036c-1.013,3.001 -3.455,7.498 -5.576,10.267c-4.364,5.698 -10.865,10.381 -16.382,11.803c-1.679,0.433 -4.677,0.707 -5.516,0.504Zm5.914,-7.231c7.491,-1.042 14.868,-9.177 17.397,-19.184c1.14,-4.51 1.835,-11.087 1.85,-17.499c0.011,-5.115 -0.198,-7.28 -0.973,-10.077c-1.433,-5.173 -4.77,-7.737 -8.744,-6.723c-2.516,0.643 -4.92,2.199 -8.008,5.186c-4.213,4.075 -7.981,9.344 -10.72,14.989c-2.64,5.441 -3.696,9.735 -3.892,15.822c-0.212,6.585 1.161,11.228 4.225,14.289c1.869,1.867 3.753,2.821 6.344,3.21c0.491,0.074 0.947,0.145 1.014,0.157c0.066,0.012 0.745,-0.064 1.507,-0.17Z" style="fill:#ffcb00;fill-opacity:0;fill-rule:nonzero;"/><path id="path1520" d="M57.588,80.852c-3.826,-0.923 -6.198,-2.206 -8.32,-4.502c-1.997,-2.162 -3.191,-4.616 -3.934,-8.086c-0.33,-1.544 -0.399,-2.44 -0.405,-5.254c-0.018,-8.098 2.217,-15.751 7.25,-24.822c6.512,-11.737 17.035,-23.706 23.956,-27.25l1.514,-0.776l0.655,0.312c2.279,1.087 4.78,4.921 6.398,9.807c1.956,5.907 2.852,12.158 2.86,19.961c0.009,7.32 -0.763,12.884 -2.5,18.036c-1.013,3.001 -3.455,7.498 -5.576,10.267c-4.364,5.698 -10.865,10.381 -16.382,11.803c-1.679,0.433 -4.677,0.707 -5.516,0.504Zm5.914,-7.231c7.491,-1.042 14.868,-9.177 17.397,-19.184c1.14,-4.51 1.835,-11.087 1.85,-17.499c0.011,-5.115 -0.198,-7.28 -0.973,-10.077c-1.433,-5.173 -4.77,-7.737 -8.744,-6.723c-2.516,0.643 -4.92,2.199 -8.008,5.186c-4.213,4.075 -7.981,9.344 -10.72,14.989c-2.64,5.441 -3.696,9.735 -3.892,15.822c-0.212,6.585 1.161,11.228 4.225,14.289c1.869,1.867 3.753,2.821 6.344,3.21c0.491,0.074 0.947,0.145 1.014,0.157c0.066,0.012 0.745,-0.064 1.507,-0.17Z" style="fill:#ffcb00;fill-opacity:0;fill-rule:nonzero;"/><path id="path1522" d="M57.588,80.852c-3.826,-0.923 -6.198,-2.206 -8.32,-4.502c-1.997,-2.162 -3.191,-4.616 -3.934,-8.086c-0.33,-1.544 -0.399,-2.44 -0.405,-5.254c-0.018,-8.098 2.217,-15.751 7.25,-24.822c6.512,-11.737 17.035,-23.706 23.956,-27.25l1.514,-0.776l0.655,0.312c2.279,1.087 4.78,4.921 6.398,9.807c1.956,5.907 2.852,12.158 2.86,19.961c0.009,7.32 -0.763,12.884 -2.5,18.036c-1.013,3.001 -3.455,7.498 -5.576,10.267c-4.364,5.698 -10.865,10.381 -16.382,11.803c-1.679,0.433 -4.677,0.707 -5.516,0.504Zm5.914,-7.231c7.491,-1.042 14.868,-9.177 17.397,-19.184c1.14,-4.51 1.835,-11.087 1.85,-17.499c0.011,-5.115 -0.198,-7.28 -0.973,-10.077c-1.433,-5.173 -4.77,-7.737 -8.744,-6.723c-2.516,0.643 -4.92,2.199 -8.008,5.186c-4.213,4.075 -7.981,9.344 -10.72,14.989c-2.64,5.441 -3.696,9.735 -3.892,15.822c-0.212,6.585 1.161,11.228 4.225,14.289c1.869,1.867 3.753,2.821 6.344,3.21c0.491,0.074 0.947,0.145 1.014,0.157c0.066,0.012 0.745,-0.064 1.507,-0.17Z" style="fill:#ffcb00;fill-opacity:0;fill-rule:nonzero;"/><path id="path1524" d="M57.588,80.852c-3.826,-0.923 -6.198,-2.206 -8.32,-4.502c-1.997,-2.162 -3.191,-4.616 -3.934,-8.086c-0.33,-1.544 -0.399,-2.44 -0.405,-5.254c-0.018,-8.098 2.217,-15.751 7.25,-24.822c6.512,-11.737 17.035,-23.706 23.956,-27.25l1.514,-0.776l0.655,0.312c2.279,1.087 4.78,4.921 6.398,9.807c1.956,5.907 2.852,12.158 2.86,19.961c0.009,7.32 -0.763,12.884 -2.5,18.036c-1.013,3.001 -3.455,7.498 -5.576,10.267c-4.364,5.698 -10.865,10.381 -16.382,11.803c-1.679,0.433 -4.677,0.707 -5.516,0.504Zm5.914,-7.231c7.491,-1.042 14.868,-9.177 17.397,-19.184c1.14,-4.51 1.835,-11.087 1.85,-17.499c0.011,-5.115 -0.198,-7.28 -0.973,-10.077c-1.433,-5.173 -4.77,-7.737 -8.744,-6.723c-2.516,0.643 -4.92,2.199 -8.008,5.186c-4.213,4.075 -7.981,9.344 -10.72,14.989c-2.64,5.441 -3.696,9.735 -3.892,15.822c-0.212,6.585 1.161,11.228 4.225,14.289c1.869,1.867 3.753,2.821 6.344,3.21c0.491,0.074 0.947,0.145 1.014,0.157c0.066,0.012 0.745,-0.064 1.507,-0.17Z" style="fill:#ffcb00;fill-opacity:0;fill-rule:nonzero;"/><path id="path1526" d="M57.588,80.852c-3.826,-0.923 -6.198,-2.206 -8.32,-4.502c-1.997,-2.162 -3.191,-4.616 -3.934,-8.086c-0.33,-1.544 -0.399,-2.44 -0.405,-5.254c-0.018,-8.098 2.217,-15.751 7.25,-24.822c6.512,-11.737 17.035,-23.706 23.956,-27.25l1.514,-0.776l0.655,0.312c2.279,1.087 4.78,4.921 6.398,9.807c1.956,5.907 2.852,12.158 2.86,19.961c0.009,7.32 -0.763,12.884 -2.5,18.036c-1.013,3.001 -3.455,7.498 -5.576,10.267c-4.364,5.698 -10.865,10.381 -16.382,11.803c-1.679,0.433 -4.677,0.707 -5.516,0.504Zm5.914,-7.231c7.491,-1.042 14.868,-9.177 17.397,-19.184c1.14,-4.51 1.835,-11.087 1.85,-17.499c0.011,-5.115 -0.198,-7.28 -0.973,-10.077c-1.433,-5.173 -4.77,-7.737 -8.744,-6.723c-2.516,0.643 -4.92,2.199 -8.008,5.186c-4.213,4.075 -7.981,9.344 -10.72,14.989c-2.64,5.441 -3.696,9.735 -3.892,15.822c-0.212,6.585 1.161,11.228 4.225,14.289c1.869,1.867 3.753,2.821 6.344,3.21c0.491,0.074 0.947,0.145 1.014,0.157c0.066,0.012 0.745,-0.064 1.507,-0.17Z" style="fill:#ffcb00;fill-opacity:0;fill-rule:nonzero;"/><path id="path1528" d="M57.588,80.852c-3.826,-0.923 -6.198,-2.206 -8.32,-4.502c-1.997,-2.162 -3.191,-4.616 -3.934,-8.086c-0.33,-1.544 -0.399,-2.44 -0.405,-5.254c-0.018,-8.098 2.217,-15.751 7.25,-24.822c6.512,-11.737 17.035,-23.706 23.956,-27.25l1.514,-0.776l0.655,0.312c2.279,1.087 4.78,4.921 6.398,9.807c1.956,5.907 2.852,12.158 2.86,19.961c0.009,7.32 -0.763,12.884 -2.5,18.036c-1.013,3.001 -3.455,7.498 -5.576,10.267c-4.364,5.698 -10.865,10.381 -16.382,11.803c-1.679,0.433 -4.677,0.707 -5.516,0.504Zm5.914,-7.231c7.491,-1.042 14.868,-9.177 17.397,-19.184c1.14,-4.51 1.835,-11.087 1.85,-17.499c0.011,-5.115 -0.198,-7.28 -0.973,-10.077c-1.433,-5.173 -4.77,-7.737 -8.744,-6.723c-2.516,0.643 -4.92,2.199 -8.008,5.186c-4.213,4.075 -7.981,9.344 -10.72,14.989c-2.64,5.441 -3.696,9.735 -3.892,15.822c-0.212,6.585 1.161,11.228 4.225,14.289c1.869,1.867 3.753,2.821 6.344,3.21c0.491,0.074 0.947,0.145 1.014,0.157c0.066,0.012 0.745,-0.064 1.507,-0.17Z" style="fill:#ffcb00;fill-opacity:0;fill-rule:nonzero;"/><path id="path1530" d="M57.588,80.852c-3.826,-0.923 -6.198,-2.206 -8.32,-4.502c-1.997,-2.162 -3.191,-4.616 -3.934,-8.086c-0.33,-1.544 -0.399,-2.44 -0.405,-5.254c-0.018,-8.098 2.217,-15.751 7.25,-24.822c6.512,-11.737 17.035,-23.706 23.956,-27.25l1.514,-0.776l0.655,0.312c2.279,1.087 4.78,4.921 6.398,9.807c1.956,5.907 2.852,12.158 2.86,19.961c0.009,7.32 -0.763,12.884 -2.5,18.036c-1.013,3.001 -3.455,7.498 -5.576,10.267c-4.364,5.698 -10.865,10.381 -16.382,11.803c-1.679,0.433 -4.677,0.707 -5.516,0.504Zm5.914,-7.231c7.491,-1.042 14.868,-9.177 17.397,-19.184c1.14,-4.51 1.835,-11.087 1.85,-17.499c0.011,-5.115 -0.198,-7.28 -0.973,-10.077c-1.433,-5.173 -4.77,-7.737 -8.744,-6.723c-2.516,0.643 -4.92,2.199 -8.008,5.186c-4.213,4.075 -7.981,9.344 -10.72,14.989c-2.64,5.441 -3.696,9.735 -3.892,15.822c-0.212,6.585 1.161,11.228 4.225,14.289c1.869,1.867 3.753,2.821 6.344,3.21c0.491,0.074 0.947,0.145 1.014,0.157c0.066,0.012 0.745,-0.064 1.507,-0.17Z" style="fill:#ffcb00;fill-opacity:0;fill-rule:nonzero;"/><path id="path1532" d="M57.588,80.852c-3.826,-0.923 -6.198,-2.206 -8.32,-4.502c-1.997,-2.162 -3.191,-4.616 -3.934,-8.086c-0.33,-1.544 -0.399,-2.44 -0.405,-5.254c-0.018,-8.098 2.217,-15.751 7.25,-24.822c6.512,-11.737 17.035,-23.706 23.956,-27.25l1.514,-0.776l0.655,0.312c2.279,1.087 4.78,4.921 6.398,9.807c1.956,5.907 2.852,12.158 2.86,19.961c0.009,7.32 -0.763,12.884 -2.5,18.036c-1.013,3.001 -3.455,7.498 -5.576,10.267c-4.364,5.698 -10.865,10.381 -16.382,11.803c-1.679,0.433 -4.677,0.707 -5.516,0.504Zm5.914,-7.231c7.491,-1.042 14.868,-9.177 17.397,-19.184c1.14,-4.51 1.835,-11.087 1.85,-17.499c0.011,-5.115 -0.198,-7.28 -0.973,-10.077c-1.433,-5.173 -4.77,-7.737 -8.744,-6.723c-2.516,0.643 -4.92,2.199 -8.008,5.186c-4.213,4.075 -7.981,9.344 -10.72,14.989c-2.64,5.441 -3.696,9.735 -3.892,15.822c-0.212,6.585 1.161,11.228 4.225,14.289c1.869,1.867 3.753,2.821 6.344,3.21c0.491,0.074 0.947,0.145 1.014,0.157c0.066,0.012 0.745,-0.064 1.507,-0.17Z" style="fill:#ffcb00;fill-opacity:0;fill-rule:nonzero;"/><path id="path1534" d="M57.588,80.852c-3.826,-0.923 -6.198,-2.206 -8.32,-4.502c-1.997,-2.162 -3.191,-4.616 -3.934,-8.086c-0.33,-1.544 -0.399,-2.44 -0.405,-5.254c-0.018,-8.098 2.217,-15.751 7.25,-24.822c6.512,-11.737 17.035,-23.706 23.956,-27.25l1.514,-0.776l0.655,0.312c2.279,1.087 4.78,4.921 6.398,9.807c1.956,5.907 2.852,12.158 2.86,19.961c0.009,7.32 -0.763,12.884 -2.5,18.036c-1.013,3.001 -3.455,7.498 -5.576,10.267c-4.364,5.698 -10.865,10.381 -16.382,11.803c-1.679,0.433 -4.677,0.707 -5.516,0.504Zm5.914,-7.231c7.491,-1.042 14.868,-9.177 17.397,-19.184c1.14,-4.51 1.835,-11.087 1.85,-17.499c0.011,-5.115 -0.198,-7.28 -0.973,-10.077c-1.433,-5.173 -4.77,-7.737 -8.744,-6.723c-2.516,0.643 -4.92,2.199 -8.008,5.186c-4.213,4.075 -7.981,9.344 -10.72,14.989c-2.64,5.441 -3.696,9.735 -3.892,15.822c-0.212,6.585 1.161,11.228 4.225,14.289c1.869,1.867 3.753,2.821 6.344,3.21c0.491,0.074 0.947,0.145 1.014,0.157c0.066,0.012 0.745,-0.064 1.507,-0.17Z" style="fill:#ffcb00;fill-opacity:0;fill-rule:nonzero;"/><path id="path1536" d="M57.588,80.852c-3.826,-0.923 -6.198,-2.206 -8.32,-4.502c-1.997,-2.162 -3.191,-4.616 -3.934,-8.086c-0.33,-1.544 -0.399,-2.44 -0.405,-5.254c-0.018,-8.098 2.217,-15.751 7.25,-24.822c6.512,-11.737 17.035,-23.706 23.956,-27.25l1.514,-0.776l0.655,0.312c2.279,1.087 4.78,4.921 6.398,9.807c1.956,5.907 2.852,12.158 2.86,19.961c0.009,7.32 -0.763,12.884 -2.5,18.036c-1.013,3.001 -3.455,7.498 -5.576,10.267c-4.364,5.698 -10.865,10.381 -16.382,11.803c-1.679,0.433 -4.677,0.707 -5.516,0.504Zm5.914,-7.231c7.491,-1.042 14.868,-9.177 17.397,-19.184c1.14,-4.51 1.835,-11.087 1.85,-17.499c0.011,-5.115 -0.198,-7.28 -0.973,-10.077c-1.433,-5.173 -4.77,-7.737 -8.744,-6.723c-2.516,0.643 -4.92,2.199 -8.008,5.186c-4.213,4.075 -7.981,9.344 -10.72,14.989c-2.64,5.441 -3.696,9.735 -3.892,15.822c-0.212,6.585 1.161,11.228 4.225,14.289c1.869,1.867 3.753,2.821 6.344,3.21c0.491,0.074 0.947,0.145 1.014,0.157c0.066,0.012 0.745,-0.064 1.507,-0.17Z" style="fill:#ffcb00;fill-opacity:0;fill-rule:nonzero;"/><path id="path1538" d="M57.588,80.852c-3.826,-0.923 -6.198,-2.206 -8.32,-4.502c-1.997,-2.162 -3.191,-4.616 -3.934,-8.086c-0.33,-1.544 -0.399,-2.44 -0.405,-5.254c-0.018,-8.098 2.217,-15.751 7.25,-24.822c6.512,-11.737 17.035,-23.706 23.956,-27.25l1.514,-0.776l0.655,0.312c2.279,1.087 4.78,4.921 6.398,9.807c1.956,5.907 2.852,12.158 2.86,19.961c0.009,7.32 -0.763,12.884 -2.5,18.036c-1.013,3.001 -3.455,7.498 -5.576,10.267c-4.364,5.698 -10.865,10.381 -16.382,11.803c-1.679,0.433 -4.677,0.707 -5.516,0.504Zm5.914,-7.231c7.491,-1.042 14.868,-9.177 17.397,-19.184c1.14,-4.51 1.835,-11.087 1.85,-17.499c0.011,-5.115 -0.198,-7.28 -0.973,-10.077c-1.433,-5.173 -4.77,-7.737 -8.744,-6.723c-2.516,0.643 -4.92,2.199 -8.008,5.186c-4.213,4.075 -7.981,9.344 -10.72,14.989c-2.64,5.441 -3.696,9.735 -3.892,15.822c-0.212,6.585 1.161,11.228 4.225,14.289c1.869,1.867 3.753,2.821 6.344,3.21c0.491,0.074 0.947,0.145 1.014,0.157c0.066,0.012 0.745,-0.064 1.507,-0.17Z" style="fill:#ffcb00;fill-opacity:0;fill-rule:nonzero;"/><path id="path1540" d="M57.588,80.852c-3.826,-0.923 -6.198,-2.206 -8.32,-4.502c-1.997,-2.162 -3.191,-4.616 -3.934,-8.086c-0.33,-1.544 -0.399,-2.44 -0.405,-5.254c-0.018,-8.098 2.217,-15.751 7.25,-24.822c6.512,-11.737 17.035,-23.706 23.956,-27.25l1.514,-0.776l0.655,0.312c2.279,1.087 4.78,4.921 6.398,9.807c1.956,5.907 2.852,12.158 2.86,19.961c0.009,7.32 -0.763,12.884 -2.5,18.036c-1.013,3.001 -3.455,7.498 -5.576,10.267c-4.364,5.698 -10.865,10.381 -16.382,11.803c-1.679,0.433 -4.677,0.707 -5.516,0.504Zm5.914,-7.231c7.491,-1.042 14.868,-9.177 17.397,-19.184c1.14,-4.51 1.835,-11.087 1.85,-17.499c0.011,-5.115 -0.198,-7.28 -0.973,-10.077c-1.433,-5.173 -4.77,-7.737 -8.744,-6.723c-2.516,0.643 -4.92,2.199 -8.008,5.186c-4.213,4.075 -7.981,9.344 -10.72,14.989c-2.64,5.441 -3.696,9.735 -3.892,15.822c-0.212,6.585 1.161,11.228 4.225,14.289c1.869,1.867 3.753,2.821 6.344,3.21c0.491,0.074 0.947,0.145 1.014,0.157c0.066,0.012 0.745,-0.064 1.507,-0.17Z" style="fill:#ffcb00;fill-opacity:0;fill-rule:nonzero;"/><path id="path1542" d="M57.588,80.852c-3.826,-0.923 -6.198,-2.206 -8.32,-4.502c-1.997,-2.162 -3.191,-4.616 -3.934,-8.086c-0.33,-1.544 -0.399,-2.44 -0.405,-5.254c-0.018,-8.098 2.217,-15.751 7.25,-24.822c6.512,-11.737 17.035,-23.706 23.956,-27.25l1.514,-0.776l0.655,0.312c2.279,1.087 4.78,4.921 6.398,9.807c1.956,5.907 2.852,12.158 2.86,19.961c0.009,7.32 -0.763,12.884 -2.5,18.036c-1.013,3.001 -3.455,7.498 -5.576,10.267c-4.364,5.698 -10.865,10.381 -16.382,11.803c-1.679,0.433 -4.677,0.707 -5.516,0.504Zm5.914,-7.231c7.491,-1.042 14.868,-9.177 17.397,-19.184c1.14,-4.51 1.835,-11.087 1.85,-17.499c0.011,-5.115 -0.198,-7.28 -0.973,-10.077c-1.433,-5.173 -4.77,-7.737 -8.744,-6.723c-2.516,0.643 -4.92,2.199 -8.008,5.186c-4.213,4.075 -7.981,9.344 -10.72,14.989c-2.64,5.441 -3.696,9.735 -3.892,15.822c-0.212,6.585 1.161,11.228 4.225,14.289c1.869,1.867 3.753,2.821 6.344,3.21c0.491,0.074 0.947,0.145 1.014,0.157c0.066,0.012 0.745,-0.064 1.507,-0.17Z" style="fill:#ffcb00;fill-opacity:0;fill-rule:nonzero;"/><path id="path1544" d="M125.214,49.012c-1.661,-0.073 -3.756,-0.402 -5.625,-0.883c-0.982,-0.253 -1.802,-0.472 -1.822,-0.487c-0.02,-0.015 0.166,-0.687 0.413,-1.494c0.361,-1.179 0.526,-1.482 0.84,-1.547c0.214,-0.044 1.234,-0.25 2.265,-0.457c6.817,-1.37 12.791,-3.448 15.802,-5.495c0.588,-0.401 1.091,-0.706 1.118,-0.68c0.027,0.027 -0.153,1.206 -0.4,2.621c-0.246,1.415 -0.576,3.457 -0.732,4.537c-0.157,1.08 -0.316,2.13 -0.353,2.333c-0.061,0.331 -0.376,0.42 -3.055,0.862c-1.643,0.272 -3.714,0.53 -4.603,0.575c-0.889,0.045 -1.897,0.099 -2.241,0.12c-0.344,0.021 -1.067,0.019 -1.607,-0.005l0,0Z" style="fill:#ffcb00;fill-opacity:0;fill-rule:nonzero;"/><path id="path1546" d="M125.214,49.012c-1.661,-0.073 -3.756,-0.402 -5.625,-0.883c-0.982,-0.253 -1.802,-0.472 -1.822,-0.487c-0.02,-0.015 0.166,-0.687 0.413,-1.494c0.361,-1.179 0.526,-1.482 0.84,-1.547c0.214,-0.044 1.234,-0.25 2.265,-0.457c6.817,-1.37 12.791,-3.448 15.802,-5.495c0.588,-0.401 1.091,-0.706 1.118,-0.68c0.027,0.027 -0.153,1.206 -0.4,2.621c-0.246,1.415 -0.576,3.457 -0.732,4.537c-0.157,1.08 -0.316,2.13 -0.353,2.333c-0.061,0.331 -0.376,0.42 -3.055,0.862c-1.643,0.272 -3.714,0.53 -4.603,0.575c-0.889,0.045 -1.897,0.099 -2.241,0.12c-0.344,0.021 -1.067,0.019 -1.607,-0.005l0,0Z" style="fill:#ffcb00;fill-opacity:0;fill-rule:nonzero;"/><path id="path1548" d="M125.214,49.012c-1.661,-0.073 -3.756,-0.402 -5.625,-0.883c-0.982,-0.253 -1.802,-0.472 -1.822,-0.487c-0.02,-0.015 0.166,-0.687 0.413,-1.494c0.361,-1.179 0.526,-1.482 0.84,-1.547c0.214,-0.044 1.234,-0.25 2.265,-0.457c6.817,-1.37 12.791,-3.448 15.802,-5.495c0.588,-0.401 1.091,-0.706 1.118,-0.68c0.027,0.027 -0.153,1.206 -0.4,2.621c-0.246,1.415 -0.576,3.457 -0.732,4.537c-0.157,1.08 -0.316,2.13 -0.353,2.333c-0.061,0.331 -0.376,0.42 -3.055,0.862c-1.643,0.272 -3.714,0.53 -4.603,0.575c-0.889,0.045 -1.897,0.099 -2.241,0.12c-0.344,0.021 -1.067,0.019 -1.607,-0.005l0,0Z" style="fill:#ffcb00;fill-opacity:0;fill-rule:nonzero;"/><path id="path1550" d="M125.214,49.012c-1.661,-0.073 -3.756,-0.402 -5.625,-0.883c-0.982,-0.253 -1.802,-0.472 -1.822,-0.487c-0.02,-0.015 0.166,-0.687 0.413,-1.494c0.361,-1.179 0.526,-1.482 0.84,-1.547c0.214,-0.044 1.234,-0.25 2.265,-0.457c6.817,-1.37 12.791,-3.448 15.802,-5.495c0.588,-0.401 1.091,-0.706 1.118,-0.68c0.027,0.027 -0.153,1.206 -0.4,2.621c-0.246,1.415 -0.576,3.457 -0.732,4.537c-0.157,1.08 -0.316,2.13 -0.353,2.333c-0.061,0.331 -0.376,0.42 -3.055,0.862c-1.643,0.272 -3.714,0.53 -4.603,0.575c-0.889,0.045 -1.897,0.099 -2.241,0.12c-0.344,0.021 -1.067,0.019 -1.607,-0.005l0,0Z" style="fill:#ffcb00;fill-opacity:0;fill-rule:nonzero;"/><path id="path1552" d="M125.214,49.012c-1.661,-0.073 -3.756,-0.402 -5.625,-0.883c-0.982,-0.253 -1.802,-0.472 -1.822,-0.487c-0.02,-0.015 0.166,-0.687 0.413,-1.494c0.361,-1.179 0.526,-1.482 0.84,-1.547c0.214,-0.044 1.234,-0.25 2.265,-0.457c6.817,-1.37 12.791,-3.448 15.802,-5.495c0.588,-0.401 1.091,-0.706 1.118,-0.68c0.027,0.027 -0.153,1.206 -0.4,2.621c-0.246,1.415 -0.576,3.457 -0.732,4.537c-0.157,1.08 -0.316,2.13 -0.353,2.333c-0.061,0.331 -0.376,0.42 -3.055,0.862c-1.643,0.272 -3.714,0.53 -4.603,0.575c-0.889,0.045 -1.897,0.099 -2.241,0.12c-0.344,0.021 -1.067,0.019 -1.607,-0.005l0,0Z" style="fill:#ffcb00;fill-opacity:0;fill-rule:nonzero;"/><path id="path1554" d="M125.214,49.012c-1.661,-0.073 -3.756,-0.402 -5.625,-0.883c-0.982,-0.253 -1.802,-0.472 -1.822,-0.487c-0.02,-0.015 0.166,-0.687 0.413,-1.494c0.361,-1.179 0.526,-1.482 0.84,-1.547c0.214,-0.044 1.234,-0.25 2.265,-0.457c6.817,-1.37 12.791,-3.448 15.802,-5.495c0.588,-0.401 1.091,-0.706 1.118,-0.68c0.027,0.027 -0.153,1.206 -0.4,2.621c-0.246,1.415 -0.576,3.457 -0.732,4.537c-0.157,1.08 -0.316,2.13 -0.353,2.333c-0.061,0.331 -0.376,0.42 -3.055,0.862c-1.643,0.272 -3.714,0.53 -4.603,0.575c-0.889,0.045 -1.897,0.099 -2.241,0.12c-0.344,0.021 -1.067,0.019 -1.607,-0.005l0,0Z" style="fill:#ffcb00;fill-opacity:0;fill-rule:nonzero;"/><path id="path1556" d="M125.214,49.012c-1.661,-0.073 -3.756,-0.402 -5.625,-0.883c-0.982,-0.253 -1.802,-0.472 -1.822,-0.487c-0.02,-0.015 0.166,-0.687 0.413,-1.494c0.361,-1.179 0.526,-1.482 0.84,-1.547c0.214,-0.044 1.234,-0.25 2.265,-0.457c6.817,-1.37 12.791,-3.448 15.802,-5.495c0.588,-0.401 1.091,-0.706 1.118,-0.68c0.027,0.027 -0.153,1.206 -0.4,2.621c-0.246,1.415 -0.576,3.457 -0.732,4.537c-0.157,1.08 -0.316,2.13 -0.353,2.333c-0.061,0.331 -0.376,0.42 -3.055,0.862c-1.643,0.272 -3.714,0.53 -4.603,0.575c-0.889,0.045 -1.897,0.099 -2.241,0.12c-0.344,0.021 -1.067,0.019 -1.607,-0.005l0,0Z" style="fill:#ffcb00;fill-opacity:0;fill-rule:nonzero;"/><path id="path1558" d="M125.214,49.012c-1.661,-0.073 -3.756,-0.402 -5.625,-0.883c-0.982,-0.253 -1.802,-0.472 -1.822,-0.487c-0.02,-0.015 0.166,-0.687 0.413,-1.494c0.361,-1.179 0.526,-1.482 0.84,-1.547c0.214,-0.044 1.234,-0.25 2.265,-0.457c6.817,-1.37 12.791,-3.448 15.802,-5.495c0.588,-0.401 1.091,-0.706 1.118,-0.68c0.027,0.027 -0.153,1.206 -0.4,2.621c-0.246,1.415 -0.576,3.457 -0.732,4.537c-0.157,1.08 -0.316,2.13 -0.353,2.333c-0.061,0.331 -0.376,0.42 -3.055,0.862c-1.643,0.272 -3.714,0.53 -4.603,0.575c-0.889,0.045 -1.897,0.099 -2.241,0.12c-0.344,0.021 -1.067,0.019 -1.607,-0.005l0,0Z" style="fill:#ffcb00;fill-opacity:0;fill-rule:nonzero;"/><path id="path1560" d="M125.214,49.012c-1.661,-0.073 -3.756,-0.402 -5.625,-0.883c-0.982,-0.253 -1.802,-0.472 -1.822,-0.487c-0.02,-0.015 0.166,-0.687 0.413,-1.494c0.361,-1.179 0.526,-1.482 0.84,-1.547c0.214,-0.044 1.234,-0.25 2.265,-0.457c6.817,-1.37 12.791,-3.448 15.802,-5.495c0.588,-0.401 1.091,-0.706 1.118,-0.68c0.027,0.027 -0.153,1.206 -0.4,2.621c-0.246,1.415 -0.576,3.457 -0.732,4.537c-0.157,1.08 -0.316,2.13 -0.353,2.333c-0.061,0.331 -0.376,0.42 -3.055,0.862c-1.643,0.272 -3.714,0.53 -4.603,0.575c-0.889,0.045 -1.897,0.099 -2.241,0.12c-0.344,0.021 -1.067,0.019 -1.607,-0.005l0,0Z" style="fill:#ffcb00;fill-opacity:0;fill-rule:nonzero;"/><path id="path1562" d="M125.214,49.012c-1.661,-0.073 -3.756,-0.402 -5.625,-0.883c-0.982,-0.253 -1.802,-0.472 -1.822,-0.487c-0.02,-0.015 0.166,-0.687 0.413,-1.494c0.361,-1.179 0.526,-1.482 0.84,-1.547c0.214,-0.044 1.234,-0.25 2.265,-0.457c6.817,-1.37 12.791,-3.448 15.802,-5.495c0.588,-0.401 1.091,-0.706 1.118,-0.68c0.027,0.027 -0.153,1.206 -0.4,2.621c-0.246,1.415 -0.576,3.457 -0.732,4.537c-0.157,1.08 -0.316,2.13 -0.353,2.333c-0.061,0.331 -0.376,0.42 -3.055,0.862c-1.643,0.272 -3.714,0.53 -4.603,0.575c-0.889,0.045 -1.897,0.099 -2.241,0.12c-0.344,0.021 -1.067,0.019 -1.607,-0.005l0,0Z" style="fill:#ffcb00;fill-opacity:0;fill-rule:nonzero;"/><path id="path1564" d="M125.214,49.012c-1.661,-0.073 -3.756,-0.402 -5.625,-0.883c-0.982,-0.253 -1.802,-0.472 -1.822,-0.487c-0.02,-0.015 0.166,-0.687 0.413,-1.494c0.361,-1.179 0.526,-1.482 0.84,-1.547c0.214,-0.044 1.234,-0.25 2.265,-0.457c6.817,-1.37 12.791,-3.448 15.802,-5.495c0.588,-0.401 1.091,-0.706 1.118,-0.68c0.027,0.027 -0.153,1.206 -0.4,2.621c-0.246,1.415 -0.576,3.457 -0.732,4.537c-0.157,1.08 -0.316,2.13 -0.353,2.333c-0.061,0.331 -0.376,0.42 -3.055,0.862c-1.643,0.272 -3.714,0.53 -4.603,0.575c-0.889,0.045 -1.897,0.099 -2.241,0.12c-0.344,0.021 -1.067,0.019 -1.607,-0.005l0,0Z" style="fill:#ffcb00;fill-opacity:0;fill-rule:nonzero;"/><path id="path1566" d="M59.403,69.7c-1.661,-0.727 -3.933,-3.445 -4.683,-5.602c-1.064,-3.056 -0.961,-11.956 0.185,-15.993c3.077,-10.843 14.193,-24.645 19.882,-24.685c1.865,-0.014 3.35,2.22 4.102,6.172c0.532,2.797 0.424,13.11 -0.187,17.752c-1.156,8.775 -3.565,14.217 -8.339,18.828c-3.599,3.477 -7.91,4.865 -10.96,3.528Z" style="fill:#ffcb00;fill-opacity:0;fill-rule:nonzero;"/><path id="path1568" d="M59.403,69.7c-1.661,-0.727 -3.933,-3.445 -4.683,-5.602c-1.064,-3.056 -0.961,-11.956 0.185,-15.993c3.077,-10.843 14.193,-24.645 19.882,-24.685c1.865,-0.014 3.35,2.22 4.102,6.172c0.532,2.797 0.424,13.11 -0.187,17.752c-1.156,8.775 -3.565,14.217 -8.339,18.828c-3.599,3.477 -7.91,4.865 -10.96,3.528Z" style="fill:#ffcb00;fill-opacity:0;fill-rule:nonzero;"/><path id="path1570" d="M59.403,69.7c-1.661,-0.727 -3.933,-3.445 -4.683,-5.602c-1.064,-3.056 -0.961,-11.956 0.185,-15.993c3.077,-10.843 14.193,-24.645 19.882,-24.685c1.865,-0.014 3.35,2.22 4.102,6.172c0.532,2.797 0.424,13.11 -0.187,17.752c-1.156,8.775 -3.565,14.217 -8.339,18.828c-3.599,3.477 -7.91,4.865 -10.96,3.528Z" style="fill:#ffcb00;fill-opacity:0;fill-rule:nonzero;"/><path id="path1572" d="M59.403,69.7c-1.661,-0.727 -3.933,-3.445 -4.683,-5.602c-1.064,-3.056 -0.961,-11.956 0.185,-15.993c3.077,-10.843 14.193,-24.645 19.882,-24.685c1.865,-0.014 3.35,2.22 4.102,6.172c0.532,2.797 0.424,13.11 -0.187,17.752c-1.156,8.775 -3.565,14.217 -8.339,18.828c-3.599,3.477 -7.91,4.865 -10.96,3.528Z" style="fill:#ffcb00;fill-opacity:0;fill-rule:nonzero;"/><path id="path1574" d="M59.403,69.7c-1.661,-0.727 -3.933,-3.445 -4.683,-5.602c-1.064,-3.056 -0.961,-11.956 0.185,-15.993c3.077,-10.843 14.193,-24.645 19.882,-24.685c1.865,-0.014 3.35,2.22 4.102,6.172c0.532,2.797 0.424,13.11 -0.187,17.752c-1.156,8.775 -3.565,14.217 -8.339,18.828c-3.599,3.477 -7.91,4.865 -10.96,3.528Z" style="fill:#ffcb00;fill-opacity:0;fill-rule:nonzero;"/><path id="path1576" d="M59.403,69.7c-1.661,-0.727 -3.933,-3.445 -4.683,-5.602c-1.064,-3.056 -0.961,-11.956 0.185,-15.993c3.077,-10.843 14.193,-24.645 19.882,-24.685c1.865,-0.014 3.35,2.22 4.102,6.172c0.532,2.797 0.424,13.11 -0.187,17.752c-1.156,8.775 -3.565,14.217 -8.339,18.828c-3.599,3.477 -7.91,4.865 -10.96,3.528Z" style="fill:#ffcb00;fill-opacity:0;fill-rule:nonzero;"/><path id="path1578" d="M59.403,69.7c-1.661,-0.727 -3.933,-3.445 -4.683,-5.602c-1.064,-3.056 -0.961,-11.956 0.185,-15.993c3.077,-10.843 14.193,-24.645 19.882,-24.685c1.865,-0.014 3.35,2.22 4.102,6.172c0.532,2.797 0.424,13.11 -0.187,17.752c-1.156,8.775 -3.565,14.217 -8.339,18.828c-3.599,3.477 -7.91,4.865 -10.96,3.528Z" style="fill:#ffcb00;fill-opacity:0;fill-rule:nonzero;"/><path id="path1580" d="M59.403,69.7c-1.661,-0.727 -3.933,-3.445 -4.683,-5.602c-1.064,-3.056 -0.961,-11.956 0.185,-15.993c3.077,-10.843 14.193,-24.645 19.882,-24.685c1.865,-0.014 3.35,2.22 4.102,6.172c0.532,2.797 0.424,13.11 -0.187,17.752c-1.156,8.775 -3.565,14.217 -8.339,18.828c-3.599,3.477 -7.91,4.865 -10.96,3.528Z" style="fill:#ffcb00;fill-opacity:0;fill-rule:nonzero;"/><path id="path1582" d="M59.403,69.7c-1.661,-0.727 -3.933,-3.445 -4.683,-5.602c-1.064,-3.056 -0.961,-11.956 0.185,-15.993c3.077,-10.843 14.193,-24.645 19.882,-24.685c1.865,-0.014 3.35,2.22 4.102,6.172c0.532,2.797 0.424,13.11 -0.187,17.752c-1.156,8.775 -3.565,14.217 -8.339,18.828c-3.599,3.477 -7.91,4.865 -10.96,3.528Z" style="fill:#ffcb00;fill-opacity:0;fill-rule:nonzero;"/><path id="path1584" d="M59.403,69.7c-1.661,-0.727 -3.933,-3.445 -4.683,-5.602c-1.064,-3.056 -0.961,-11.956 0.185,-15.993c3.077,-10.843 14.193,-24.645 19.882,-24.685c1.865,-0.014 3.35,2.22 4.102,6.172c0.532,2.797 0.424,13.11 -0.187,17.752c-1.156,8.775 -3.565,14.217 -8.339,18.828c-3.599,3.477 -7.91,4.865 -10.96,3.528Z" style="fill:#f04;fill-opacity:0;fill-rule:nonzero;"/><path id="path1586" d="M59.403,69.7c-1.661,-0.727 -3.933,-3.445 -4.683,-5.602c-1.064,-3.056 -0.961,-11.956 0.185,-15.993c3.077,-10.843 14.193,-24.645 19.882,-24.685c1.865,-0.014 3.35,2.22 4.102,6.172c0.532,2.797 0.424,13.11 -0.187,17.752c-1.156,8.775 -3.565,14.217 -8.339,18.828c-3.599,3.477 -7.91,4.865 -10.96,3.528Z" style="fill:#f04;fill-opacity:0;fill-rule:nonzero;"/><path id="path1588" d="M107.081,42.124c-0.491,-0.091 -1.559,-0.408 -2.374,-0.704c-5.485,-1.995 0.446,-9.423 10.682,-13.378c6.062,-2.342 12.169,-2.865 16.189,-1.387c2.869,1.055 5.86,4.031 5.86,5.829c0,3.345 -5.978,6.276 -17.5,8.58c-4.281,0.857 -10.981,1.409 -12.857,1.06Z" style="fill:#f04;fill-opacity:0;fill-rule:nonzero;"/><path id="path1590" d="M107.081,42.124c-0.491,-0.091 -1.559,-0.408 -2.374,-0.704c-5.485,-1.995 0.446,-9.423 10.682,-13.378c6.062,-2.342 12.169,-2.865 16.189,-1.387c2.869,1.055 5.86,4.031 5.86,5.829c0,3.345 -5.978,6.276 -17.5,8.58c-4.281,0.857 -10.981,1.409 -12.857,1.06Z" style="fill:#f04;fill-opacity:0;fill-rule:nonzero;"/><path id="path901" d="M59.846,69.951c-2.395,-0.883 -4.625,-3.778 -5.547,-7.202c-0.593,-2.204 -0.572,-9.572 0.036,-12.431c0.905,-4.255 3.42,-9.944 6.383,-14.436c4.635,-7.027 10.759,-12.501 13.984,-12.501c2.764,0 4.346,3.861 4.675,11.408c0.359,8.252 -1.023,17.978 -3.301,23.237c-2.027,4.677 -6.17,9.392 -9.853,11.212c-2.237,1.106 -4.595,1.37 -6.377,0.713l0,0Z" style="fill:#ffcb00;fill-rule:nonzero;stroke:#000;stroke-width:0.63px;"/><path id="path921" d="M124.048,48.87c-2.089,-0.184 -5.3,-0.848 -5.895,-1.219c-0.28,-0.174 -0.261,-0.46 0.109,-1.634c0.273,-0.866 0.592,-1.423 0.814,-1.423c0.561,0 5.96,-1.227 8.508,-1.934c3.312,-0.918 7.177,-2.486 8.941,-3.626c1.852,-1.197 1.799,-1.407 0.919,3.645c-0.341,1.956 -0.654,3.894 -0.695,4.306c-0.085,0.859 -0.162,0.884 -4.494,1.493c-3.546,0.499 -5.778,0.605 -8.207,0.392Z" style="fill:#ffcb00;fill-rule:nonzero;stroke:#000;stroke-width:0.63px;"/><path id="path923" d="M142.319,72.357c-2.591,-0.226 -6.023,-0.95 -6.023,-1.272c0,-0.126 0.425,-1.377 0.945,-2.782c0.664,-1.796 1.095,-2.609 1.452,-2.741c0.279,-0.102 1.871,-0.262 3.537,-0.354c8.288,-0.458 14.501,-2.105 18.398,-4.877c0.673,-0.48 1.275,-0.82 1.338,-0.758c0.314,0.314 -1.635,6.952 -2.845,9.686c-0.643,1.454 -0.482,1.374 -4.137,2.078c-5.216,1.006 -9.17,1.324 -12.665,1.02Z" style="fill:#ffcb00;fill-rule:nonzero;stroke:#000;stroke-width:0.63px;"/><path id="path925" d="M161.802,95.233c-3.163,-0.539 -4.084,-0.854 -3.936,-1.344c0.911,-3.012 1.452,-4.547 1.719,-4.876c0.243,-0.298 1.236,-0.475 3.985,-0.707c4.503,-0.38 9.982,-1.292 13.006,-2.165c2.814,-0.813 6.933,-2.788 8.661,-4.154c0.714,-0.565 1.377,-1.027 1.471,-1.027c0.274,0 -0.09,4.744 -0.534,6.95c-0.433,2.154 -1.09,4.419 -1.373,4.731c-0.247,0.275 -8.148,1.903 -12.013,2.477c-3.734,0.554 -8.138,0.6 -10.986,0.115Z" style="fill:#ffcb00;fill-rule:nonzero;stroke:#000;stroke-width:0.63px;"/><path id="path927" d="M187.561,121.08c-1.041,-0.121 -2.627,-0.419 -3.524,-0.662c-1.342,-0.364 -1.661,-0.554 -1.806,-1.073c-0.205,-0.739 -0.289,-7.575 -0.092,-7.575c0.753,0 8.117,-0.859 9.968,-1.162c6.448,-1.057 11.195,-2.818 14.837,-5.502l1.578,-1.164l0,2.989c0,2.778 -0.605,10.509 -0.894,11.433c-0.132,0.421 -0.925,0.619 -7.44,1.855c-3.351,0.635 -7.995,1.169 -9.703,1.114c-0.566,-0.018 -1.882,-0.132 -2.924,-0.253l0,0Z" style="fill:#ffcb00;fill-rule:nonzero;stroke:#000;stroke-width:0.63px;"/><path id="path929" d="M201.072,147.261c-0.972,-0.178 -2.464,-0.519 -3.316,-0.759l-1.548,-0.437l0.369,-1.411c0.708,-2.712 2.796,-6.167 4.005,-6.626c0.314,-0.119 2.882,-0.4 5.708,-0.622c11.638,-0.919 17.138,-2.324 21.677,-5.539c2.003,-1.418 1.863,-1.547 1.661,1.52c-0.183,2.782 -0.784,8.39 -1.057,9.871c-0.146,0.792 -0.189,0.814 -2.838,1.445c-3.657,0.87 -9.695,2.05 -12.95,2.531c-3.203,0.473 -9.199,0.487 -11.711,0.027l0,0Z" style="fill:#ffcb00;fill-rule:nonzero;stroke:#000;stroke-width:0.63px;"/><path id="path931" d="M226.452,176.01c-2.702,-0.527 -5.631,-1.972 -6.996,-3.453c-1.485,-1.611 -1.907,-2.573 -2.042,-4.648c-0.114,-1.752 -0.096,-1.822 0.483,-1.946c0.33,-0.07 3.384,-0.364 6.787,-0.653c13.11,-1.112 17.464,-2.293 22.78,-6.175c1.057,-0.772 1.978,-1.403 2.047,-1.403c0.069,0 0.206,1.179 0.305,2.62c0.307,4.503 -0.678,8.02 -2.815,10.052c-1.315,1.25 -6.72,3.41 -11.963,4.781c-2.82,0.737 -6.982,1.137 -8.586,0.825Z" style="fill:#ffcb00;fill-rule:nonzero;stroke:#000;stroke-width:0.63px;"/><path id="path933" d="M57.125,80.718c-10.112,-2.188 -14.231,-11.978 -11.203,-26.63c1.409,-6.818 5.651,-15.808 11.246,-23.832c5.726,-8.213 13.004,-15.783 18.014,-18.738c2.317,-1.366 2.505,-1.392 3.804,-0.53c3.902,2.588 7.065,11.024 8.229,21.948c0.48,4.509 0.336,13.19 -0.285,17.214c-1.377,8.912 -4.549,15.574 -10.296,21.625c-5.814,6.12 -14.388,10.05 -19.509,8.943Zm7.172,-7.201c3.755,-0.511 8.977,-4.399 12.077,-8.994c3.68,-5.454 5.219,-10.642 6.15,-20.74c0.444,-4.816 0.181,-13.377 -0.494,-16.045c-2.68,-10.597 -10.486,-10.423 -19.787,0.441c-5.567,6.504 -9.795,14.572 -11.171,21.317c-0.6,2.942 -0.871,7.439 -0.622,10.312c0.558,6.416 2.96,10.767 7.054,12.775c1.548,0.76 4.057,1.321 5.177,1.158c0.278,-0.04 1.005,-0.141 1.616,-0.224Z" style="fill:#ffeead;fill-rule:nonzero;stroke:#000;stroke-width:0.63px;"/><path id="path935" d="M8.909,229.137c-0.803,-1.228 -1.183,-2.57 -1.188,-4.193c-0.009,-2.931 4.141,-26.443 7.757,-43.948c4.41,-21.349 7.621,-35.257 18.851,-81.669c6.807,-28.132 7.149,-29.439 7.414,-28.41c0.153,0.593 0.589,1.817 0.969,2.719c0.381,0.903 0.698,1.755 0.707,1.894c0.008,0.139 -0.903,3.435 -2.025,7.324c-7.641,26.502 -13.408,52.19 -22.904,102.025c-4.102,21.526 -8.779,44.826 -8.999,44.826c-0.116,0 -0.377,-0.256 -0.582,-0.568Z" style="fill:#ffeead;fill-rule:nonzero;stroke:#000;stroke-width:0.63px;"/><path id="path937" d="M12.443,231.247c-0.077,-0.124 1.105,-6.46 2.627,-14.079c1.522,-7.619 3.856,-19.535 5.187,-26.48c8.2,-42.774 11.462,-58.475 16.29,-78.413c3.278,-13.537 8.752,-33.671 9.115,-33.526c0.089,0.035 0.875,0.727 1.746,1.538l1.584,1.473l-1.926,6.734c-7.692,26.903 -12.228,47.217 -22.141,99.163c-3.316,17.377 -7.442,38.408 -8.336,42.49l-0.29,1.326l-1.859,0c-1.022,0 -1.921,-0.102 -1.997,-0.226Z" style="fill:#ffeead;fill-rule:nonzero;stroke:#000;stroke-width:0.63px;"/><path id="path939" d="M19.468,230.021c0.276,-0.934 5.098,-25.556 8.741,-44.637c9.282,-48.612 14.112,-70.208 21.262,-95.08c0.978,-3.403 1.837,-6.393 1.908,-6.644c0.087,-0.303 0.268,-0.399 0.539,-0.288c0.225,0.092 1.063,0.393 1.861,0.669c0.799,0.275 1.452,0.599 1.452,0.718c0,0.119 -0.63,2.353 -1.4,4.964c-7.047,23.883 -12.447,47.991 -21.455,95.788c-2.869,15.219 -5.642,29.569 -7.127,36.87l-1.206,5.935l-2.141,1.073c-2.398,1.203 -2.62,1.26 -2.434,0.632Z" style="fill:#ffeead;fill-rule:nonzero;stroke:#000;stroke-width:0.63px;"/><path id="path941" d="M27.452,225.589c0,-0.18 0.222,-1.345 0.493,-2.588c0.64,-2.937 3.725,-18.949 7.711,-40.016c8.772,-46.371 13.662,-68.043 21.011,-93.123l1.424,-4.861l1.474,0c0.811,0 1.475,0.088 1.475,0.197c0,0.109 -0.515,3.035 -1.145,6.503c-2.249,12.388 -3.92,20.483 -11.731,56.813c-6.148,28.6 -10.269,49.379 -13.144,66.291c-1.034,6.077 -1.067,6.2 -1.848,6.886c-1.259,1.105 -5.354,4.226 -5.546,4.226c-0.096,0 -0.174,-0.148 -0.174,-0.328Z" style="fill:#ffeead;fill-rule:nonzero;stroke:#000;stroke-width:0.63px;"/><path id="path943" d="M37.414,216.681c0.283,-1.918 2.495,-14.183 3.784,-20.982c2.278,-12.016 5.531,-27.756 11.017,-53.303c5.894,-27.449 8.892,-42.103 10.607,-51.84c0.574,-3.264 1.084,-5.975 1.132,-6.025c0.048,-0.05 0.974,-0.402 2.059,-0.782c1.084,-0.38 2.465,-0.943 3.067,-1.252c1.001,-0.511 1.084,-0.52 0.958,-0.101c-0.995,3.316 -8.029,39.265 -12.913,65.992c-4.958,27.14 -7.734,41.406 -10.817,55.599l-1.353,6.228l-2.585,2.754c-1.421,1.515 -3.159,3.25 -3.862,3.855l-1.278,1.101l0.184,-1.244Z" style="fill:#ffeead;fill-rule:nonzero;stroke:#000;stroke-width:0.63px;"/><path id="path947" d="M57.51,193.877c-0.003,-0.19 0.388,-1.838 0.869,-3.662c2.453,-9.289 6.147,-25.637 8.853,-39.176c2.789,-13.952 4.843,-25.405 10.735,-59.851l3.067,-17.93l0.826,-1.011c0.455,-0.555 1.297,-1.682 1.873,-2.504c1.254,-1.791 1.248,-1.844 0.429,3.807c-0.339,2.339 -1.537,11.754 -2.663,20.921c-3.856,31.396 -5.503,42.057 -8.72,56.442c-2.824,12.626 -7.023,26.666 -10.558,35.306c-1.05,2.565 -4.698,8.495 -4.711,7.658Z" style="fill:#ffeead;fill-rule:nonzero;stroke:#000;stroke-width:0.63px;"/><path id="path949-1" d="M49.022,205.082c0.07,-0.277 0.975,-4.596 2.011,-9.596c2.573,-12.425 4.325,-21.605 9.377,-49.111c5.902,-32.135 12.612,-65.912 13.202,-66.458c0.1,-0.092 1.073,-0.872 2.163,-1.732c1.89,-1.491 1.975,-1.531 1.832,-0.847c-0.082,0.395 -1.46,8.389 -3.062,17.764c-8.587,50.267 -11.773,66.368 -18.189,91.924c-3.507,13.97 -3.415,13.667 -4.606,15.191c-1.786,2.285 -2.871,3.424 -2.728,2.865Z" style="fill:#ffeead;fill-rule:nonzero;stroke:#000;stroke-width:0.63px;"/><path id="path951" d="M159.484,218.584c-14.775,-0.933 -28.885,-6.256 -41.574,-15.685c-9.128,-6.783 -17.805,-19.53 -21.979,-32.288c-2.756,-8.424 -3.728,-14.979 -3.501,-23.612c0.29,-11.078 2.967,-20.645 8.299,-29.661l1.348,-2.279l1.057,-0.003c0.581,-0.002 1.361,-0.119 1.733,-0.261c0.553,-0.209 0.652,-0.19 0.538,0.105c-0.635,1.656 -2.411,7.558 -3.219,10.701c-2.337,9.087 -3.128,15.683 -2.942,24.516c0.14,6.662 0.455,9.367 1.695,14.559c1.049,4.391 2.298,7.825 4.408,12.122c4.838,9.85 11.62,17.441 21.226,23.759c19.535,12.848 44.917,15.073 63.893,5.6c4.12,-2.057 8.825,-5.338 11.089,-7.733l0.736,-0.779l0.715,0.972c0.786,1.069 2.688,2.596 4.61,3.702l1.241,0.713l-1.114,0.983c-9.362,8.255 -23.679,13.606 -38.996,14.574c-4.365,0.276 -4.825,0.275 -9.263,-0.004l0,-0.001Z" style="fill:#ffeead;fill-rule:nonzero;stroke:#000;stroke-width:0.63px;"/><path id="path953-1" d="M158.691,209.237c-16.003,-1.672 -30.717,-8.598 -41.083,-19.338c-8.271,-8.57 -13.019,-18.115 -15.182,-30.526c-0.675,-3.869 -0.939,-13.763 -0.486,-18.227c0.427,-4.214 1.376,-9.667 2.43,-13.959c0.753,-3.065 3.382,-11.478 4.357,-13.945l0.267,-0.675l1.971,1.004c2.131,1.085 5.73,1.889 7.436,1.66l0.919,-0.123l-0.766,2.056c-2.821,7.572 -4.961,16.143 -5.886,23.581c-0.52,4.184 -0.519,11.85 0.004,15.769c1.144,8.584 4.583,17.3 9.696,24.577c2.209,3.144 6.095,7.666 8.674,10.094c6.338,5.966 14.866,9.697 24.828,10.862c13.926,1.629 27.767,-2.325 37.401,-10.684l2.049,-1.777l0.596,1.272c0.765,1.635 2.146,3.049 3.789,3.881l1.302,0.66l-0.851,0.889c-1.404,1.465 -4.746,4.064 -7.165,5.572c-5.581,3.478 -12.357,5.873 -19.824,7.007c-3.188,0.484 -11.383,0.694 -14.476,0.37l0,0Z" style="fill:#ffeead;fill-rule:nonzero;stroke:#000;stroke-width:0.63px;"/><path id="path955" d="M156.499,199.626c-7.166,-0.808 -14.059,-3.226 -19.473,-6.83c-4.031,-2.684 -9.567,-8.644 -13.469,-14.501c-9.604,-14.417 -11.324,-31.249 -5.312,-52.004c0.943,-3.257 3.07,-9.655 3.306,-9.945c0.043,-0.052 0.647,0.417 1.343,1.042c1.515,1.362 2.925,2.061 4.968,2.463l1.517,0.299l-1.322,3.715c-2.495,7.013 -4.046,13.084 -4.783,18.714c-0.623,4.761 -0.409,11.266 0.503,15.279c1.275,5.614 3.996,11.455 8.589,18.435c3.555,5.403 8.694,9.485 15.336,12.183c10.2,4.144 20.712,3.922 29.884,-0.629c2.77,-1.375 5.817,-3.385 7.777,-5.133c0.805,-0.718 1.502,-1.263 1.548,-1.211c0.047,0.051 0.375,0.671 0.729,1.378c0.821,1.635 2.622,3.414 4.227,4.176c0.687,0.326 1.25,0.67 1.25,0.764c0,0.363 -3.346,3.212 -5.348,4.554c-8.595,5.762 -20.336,8.484 -31.27,7.251Z" style="fill:#ffeead;fill-rule:nonzero;stroke:#000;stroke-width:0.63px;"/><path id="path957" d="M158.772,188.759c-8.005,-0.82 -16.326,-4.787 -21.435,-10.22c-3.265,-3.473 -8.365,-12.351 -10.066,-17.524c-1.466,-4.461 -1.708,-6.159 -1.707,-11.996c0,-3.964 0.117,-6.005 0.463,-8.081c0.617,-3.7 2.133,-9.527 3.635,-13.978l1.223,-3.624l0.729,1.351c0.997,1.848 3.472,4.204 5.477,5.215l1.652,0.833l-1.204,2.955c-4.541,11.143 -5.062,19.839 -1.762,29.395c1.485,4.301 2.298,5.915 4.237,8.418c6.188,7.982 14.305,11.951 22.531,11.016c5.551,-0.632 10.985,-3.093 15.604,-7.069l1.8,-1.548l0.582,0.943c0.901,1.459 2.136,2.723 3.549,3.629l1.29,0.828l-1.367,1.234c-2.061,1.862 -6.233,4.531 -8.934,5.716c-2.962,1.299 -6.377,2.185 -9.75,2.532c-2.856,0.293 -3.471,0.29 -6.547,-0.025Z" style="fill:#ffeead;fill-rule:nonzero;stroke:#000;stroke-width:0.63px;"/><path id="path959" d="M157.393,180.447c-6.049,-0.942 -11.536,-4.566 -16.103,-10.638c-2.586,-3.437 -4.911,-10.208 -5.503,-16.027c-0.52,-5.116 0.47,-11.042 2.948,-17.642c1.119,-2.98 1.04,-2.933 1.968,-1.197c0.449,0.84 1.18,1.987 1.625,2.549l0.81,1.022l-1.136,2.348c-2.346,4.85 -3.053,8.044 -2.862,12.926c0.148,3.799 0.816,6.491 2.451,9.878c1.063,2.203 3.096,5.427 4.513,7.158c1.979,2.417 6.287,5.043 10.269,6.259c2.119,0.647 2.58,0.694 6.818,0.695c4.295,0 4.707,-0.043 7.45,-0.784c1.598,-0.432 2.941,-0.748 2.987,-0.703c0.14,0.141 -3.106,1.877 -4.783,2.559c-3.586,1.457 -8.209,2.101 -11.452,1.597Z" style="fill:#ffeead;fill-rule:nonzero;stroke:#000;stroke-width:0.63px;"/><path id="path961" d="M106.244,41.971c-4.514,-1.001 -4.963,-3.574 -1.312,-7.518c4.591,-4.958 15.426,-9.201 22.251,-8.714c3.688,0.264 6.05,1.176 8.163,3.152c1.468,1.374 2.213,2.705 2.213,3.956c0,2.015 -3.304,4.282 -8.819,6.054c-8.466,2.719 -18.131,4.038 -22.496,3.07Z" style="fill:#ffeead;fill-rule:nonzero;stroke:#000;stroke-width:0.63px;"/><path id="path964" d="M126.195,62.518c-4.852,-0.569 -8.255,-2.687 -9.086,-5.656c-0.304,-1.086 -0.281,-5.51 0.03,-5.821c0.073,-0.074 1.019,0.093 2.101,0.37c4.104,1.049 9.179,1.132 14.404,0.236c3.749,-0.643 8.154,-1.552 11.996,-2.475c8.282,-1.989 11.717,-2.441 13.132,-1.725c0.656,0.332 1.493,1.856 2.304,4.195c1.062,3.06 0.427,4.321 -3.314,6.582c-3.087,1.866 -7.444,2.971 -13.896,3.527c-12.592,1.084 -14.328,1.159 -17.671,0.767l0,0Z" style="fill:#ffeead;fill-rule:nonzero;stroke:#000;stroke-width:0.63px;"/><path id="path966" d="M145.13,86.024c-4.792,-0.495 -7.73,-2.106 -8.589,-4.708c-0.304,-0.922 -0.229,-5.577 0.099,-6.108c0.081,-0.131 0.815,-0.08 1.729,0.12c2.38,0.52 8.226,0.7 11.312,0.347c3.94,-0.451 9.551,-1.59 18.309,-3.715c8.753,-2.124 12.682,-2.802 14.183,-2.45c0.809,0.19 1.083,0.436 1.656,1.483c0.842,1.537 1.712,4.031 1.711,4.902c-0.002,1.016 -0.868,2.184 -2.526,3.405c-3.827,2.817 -8.912,4.374 -17.297,5.297c-13.568,1.494 -17.385,1.759 -20.587,1.427l0,0Z" style="fill:#ffeead;fill-rule:nonzero;stroke:#000;stroke-width:0.63px;"/><path id="path968" d="M165.338,108.976c-3.324,-0.586 -5.395,-1.642 -6.5,-3.315c-0.666,-1.007 -0.697,-1.195 -0.697,-4.145c0,-1.699 0.072,-3.162 0.16,-3.25c0.089,-0.088 1.168,0.04 2.4,0.285c3.022,0.601 9.082,0.596 12.844,-0.011c4.204,-0.679 9.153,-1.738 16.61,-3.557c10.631,-2.593 13.465,-2.948 14.655,-1.838c0.706,0.659 1.803,3.076 2.224,4.898c0.422,1.827 -0.11,2.81 -2.38,4.404c-4.519,3.174 -9.949,4.661 -20.628,5.651c-2.431,0.226 -5.158,0.524 -6.061,0.663c-2.334,0.359 -10.975,0.506 -12.627,0.215l0,0Z" style="fill:#ffeead;fill-rule:nonzero;stroke:#000;stroke-width:0.63px;"/><path id="path972" d="M191.046,134.746c-2.595,-0.296 -3.824,-0.645 -5.607,-1.59c-2.686,-1.424 -3.691,-3.72 -3.27,-7.472c0.251,-2.236 -0.104,-2.114 4.13,-1.419c5.648,0.927 11.912,0.145 26.264,-3.279c9.086,-2.168 11.941,-2.562 13.478,-1.862c0.979,0.446 2.684,4.517 2.684,6.407c0,1.263 -0.491,1.977 -2.244,3.263c-4.028,2.957 -9.688,4.449 -19.727,5.198c-2.014,0.15 -4.571,0.378 -5.682,0.506c-3.229,0.372 -7.92,0.488 -10.026,0.248Z" style="fill:#ffeead;fill-rule:nonzero;stroke:#000;stroke-width:0.63px;"/><path id="path974" d="M206.822,162.539c-7.841,-0.898 -10.626,-3.777 -9.901,-10.236c0.121,-1.079 0.252,-1.99 0.291,-2.024c0.04,-0.034 1.095,0.165 2.345,0.441c2.781,0.616 10.205,0.746 13.384,0.235c4.75,-0.764 10.509,-1.939 16.289,-3.324c3.403,-0.816 7.342,-1.718 8.752,-2.005c2.744,-0.558 6.373,-0.689 7.176,-0.259c0.62,0.332 1.784,2.627 2.487,4.905l0.542,1.758l-0.78,1.584c-0.609,1.238 -1.094,1.809 -2.218,2.615c-3.928,2.815 -9.502,4.395 -18.232,5.166c-2.43,0.215 -6.067,0.556 -8.081,0.758c-4.842,0.486 -9.798,0.644 -12.054,0.386Z" style="fill:#ffeead;fill-rule:nonzero;stroke:#000;stroke-width:0.63px;"/></g></svg>