<?xml version="1.0" encoding="UTF-8" standalone="no"?><!DOCTYPE svg PUBLIC "-//W3C//DTD SVG 1.1//EN" "http://www.w3.org/Graphics/SVG/1.1/DTD/svg11.dtd"><svg width="100%" height="100%" viewBox="0 0 257 303" version="1.1" xmlns="http://www.w3.org/2000/svg" xmlns:xlink="http://www.w3.org/1999/xlink" xml:space="preserve" xmlns:serif="http://www.serif.com/" style="fill-rule:evenodd;clip-rule:evenodd;stroke-linecap:round;"><g id="mrkev"><path id="path936" d="M82.204,152.905c-31.626,44.585 -43.645,75.004 -74.246,90.157c-7.368,-19.698 7.576,-73.451 17.172,-101.268c19.193,-53.072 31.018,-83.085 66.165,-83.085c44.239,8.081 16.668,55.772 -9.091,94.196Z" style="fill:#ff6200;fill-rule:nonzero;stroke:#000;stroke-width:2.9px;"/><path id="path939-0" d="M95.463,58.707l8.081,-15.404c-7.918,-0.956 -16.602,-0.547 -18.688,-11.87c2.121,-10.06 10.159,-5.327 15.91,-6.313c-4.85,-16.417 4.546,-17.425 4.546,-17.425c5.592,-1.274 11.869,9.596 11.869,9.596c4.404,-5.138 7.758,-13.908 15.91,-10.606c4.565,2.131 4.522,7.72 1.01,15.91c15.015,4.765 14.647,13.637 14.647,13.637c-0.385,8.296 -12.815,5.184 -19.193,6.061c7.272,10.356 8.16,15.367 2.02,17.677c-9.916,1.383 -9.924,-4.751 -15.657,-9.344l-8.839,13.637l-11.616,-5.556Z" style="fill:#9db400;fill-rule:nonzero;stroke:#000;stroke-width:2.89px;stroke-linecap:butt;"/><path id="path941-5" d="M60.362,70.719c7.87,5.526 14.615,13.02 24.964,14.207" style="fill:none;stroke:#000;stroke-width:2.14px;stroke-linecap:butt;"/><path id="path941-8" d="M41.541,98.693c8.022,5.705 13.585,12.23 25.216,16.732" style="fill:none;stroke:#000;stroke-width:2.14px;stroke-linecap:butt;"/><path id="path941-9" d="M19.707,157.729c6.747,3.595 12.525,8.329 20.74,9.285" style="fill:none;stroke:#000;stroke-width:2.14px;stroke-linecap:butt;"/><path id="path941-3" d="M11.111,188.35c4.03,2.933 6.364,6.894 14.538,9.416" style="fill:none;stroke:#000;stroke-width:2.14px;stroke-linecap:butt;"/><path id="path941-3-8" d="M29.943,126.743c5.412,4.336 8.703,7.179 14.539,9.416" style="fill:none;stroke:#000;stroke-width:2.14px;stroke-linecap:butt;"/><path id="path1042" d="M132.868,204.919c1.645,-2.046 4.013,-5.188 1.948,-9.56c-2.356,-4.601 -6.052,-3.355 -9.309,-2.9c2.885,-6.925 1.723,-9.538 -1.3,-12.245c-3.114,-2.641 -7.883,-0.831 -10.825,-0.215c-2.673,-4.012 -5.528,-8.989 -12.882,-7.626c-9.799,2.681 -8.69,10.724 -9.202,13.212c-3.735,-1.2 -6.789,-4.425 -12.125,-0.86c-6.759,6.214 -2.536,10.503 0.758,13.427c-11.824,3.002 -12.454,7.391 -12.774,12.675c0.523,6.636 7.021,6.156 10.068,6.23c-3.701,7.01 -5.874,11.316 -2.923,14.823c7.313,5.483 12.017,1.578 15.805,-1.718c1.318,13.055 10.941,10.226 15.481,9.989c7.964,-3.294 7.186,-5.943 7.794,-9.882c3.539,3.757 8.426,3.669 11.258,1.719c5.334,-3.703 4.728,-6.423 5.197,-10.312l3.897,2.148c-1.043,4.01 -2.211,7.806 1.732,12.031c3.958,4.187 8.468,3.432 12.991,2.578c0.678,6.939 0.531,13.704 9.959,17.616c8.687,1.832 15.091,-3.383 21.218,-9.453c5.665,4.186 17.718,3.778 21.218,-4.726c3.158,-10.186 -0.458,-18.104 -9.202,-21.805c3.297,-2.542 9.407,-8.844 3.14,-15.146c-2.761,-2.767 -6.198,-3.942 -11.259,-1.289c-0.834,-3.488 -0.353,-8.999 -9.093,-9.452c-2.97,0.084 -4.968,1.493 -5.63,4.726c-3.486,-3.272 -4.604,-7.176 -12.557,-5.156c-4.682,1.522 -5.974,4.937 -6.062,9.023" style="fill:none;stroke:#000;stroke-width:2.47px;stroke-linecap:butt;"/><path id="path1044" d="M113.382,179.999c0.475,-5.651 3.097,-9.029 7.903,-10.097c9.667,-1.51 12.555,3.455 16.779,6.767c3.293,-5.849 8.869,-7.664 14.723,-5.8c7.257,2.558 6.966,8.86 8.877,14.071c4.582,-3.625 8.229,-2.472 10.5,-0.644c3.905,3.517 2.02,6.623 2.274,9.882" style="fill:none;stroke:#000;stroke-width:2.47px;stroke-linecap:butt;"/><path id="path1053" d="M119.803,232.756c1.327,6.178 3.062,10.533 5.205,13.064c7.66,-0.096 10.108,-4.072 14.315,-7.595" style="fill:none;stroke:#000;stroke-width:2.47px;stroke-linecap:butt;"/><path id="path1055" d="M101.454,240.151l4.877,18.733l-4.287,32.509c17.892,11.572 35.556,3.498 40.723,0.911l-0.612,-32.204c4.336,-4.11 7.809,-7.536 10.104,-10.026" style="fill:none;stroke:#000;stroke-width:2.47px;stroke-linecap:butt;"/><path id="path1057" d="M158.502,254.266c-4.951,-1.809 -7.583,-6.036 -8.183,-13.143l-0.358,-4.241l-4.657,0.352c-4.023,0.303 -4.928,0.181 -6.652,-0.899c-3.131,-1.961 -4.569,-4.695 -4.18,-7.946c0.179,-1.504 0.493,-3.311 0.697,-4.015c0.308,-1.064 -0.183,-1.593 -2.893,-3.118c-3.633,-2.045 -4.054,-1.826 -4.139,2.15c-0.156,7.238 -8.084,10.691 -13.466,5.867l-2.404,-2.155l-0.426,3.378c-0.74,5.879 -3.922,8.223 -11.162,8.223c-6.205,0 -7.792,-1.527 -8.998,-8.659c-0.212,-1.253 -0.506,-2.278 -0.652,-2.278c-0.146,0 -1.718,1.092 -3.493,2.428c-1.775,1.336 -4.079,2.588 -5.119,2.784c-2.432,0.456 -5.977,-1.006 -7.302,-3.012c-1.212,-1.835 -0.751,-3.701 2.514,-10.182l2.032,-4.033l-3.934,-0.248c-4.808,-0.304 -7.035,-1.944 -7.035,-5.18c0,-5.091 3.258,-8.359 10.231,-10.263l3.801,-1.037l-2.729,-3.012c-1.657,-1.828 -2.729,-3.595 -2.729,-4.495c0,-3.704 3.891,-7.306 7.276,-6.737c0.882,0.148 3.035,0.847 4.784,1.554l3.181,1.285l0.39,-2.864c0.606,-4.448 1.402,-6.48 3.214,-8.194c4.819,-4.562 10.61,-3.654 14.53,2.28c1.553,2.352 2.073,2.731 3.368,2.457c0.842,-0.179 2.962,-0.497 4.711,-0.707c2.968,-0.357 3.305,-0.259 5.052,1.475c2.245,2.228 2.392,4.226 0.648,8.781c-0.674,1.758 -1.225,3.233 -1.225,3.278c0,0.045 1.796,-0.061 3.991,-0.236c3.243,-0.258 4.213,-0.119 5.171,0.741c1.913,1.718 2.146,4.27 0.65,7.118c-1.215,2.312 -1.239,2.58 -0.32,3.476c0.915,0.892 1.094,0.854 2.176,-0.454c4.391,-5.315 1.48,-14.069 -4.678,-14.069l-2.102,0l0.347,-3.19c0.425,-3.904 -0.861,-6.744 -4.011,-8.857c-1.824,-1.224 -2.667,-1.393 -5.664,-1.133c-1.937,0.167 -3.52,0.126 -3.519,-0.093c0.007,-1.163 2.633,-4.412 4.227,-5.23c2.277,-1.169 7.408,-1.219 10.028,-0.098c1.084,0.463 3.44,2.104 5.236,3.645c1.795,1.542 3.449,2.793 3.674,2.78c0.225,-0.013 0.96,-0.891 1.634,-1.952c2.932,-4.616 9.207,-6.173 13.768,-3.414c2.98,1.803 3.448,2.561 5.3,8.58c0.9,2.924 1.832,5.316 2.071,5.316c0.24,0 1.157,-0.563 2.039,-1.251c2.488,-1.942 5.279,-2.15 7.334,-0.547c3.22,2.514 3.611,7.404 0.65,8.141c-0.806,0.201 -1.796,0.889 -2.199,1.53c-0.696,1.106 -0.851,1.057 -3.133,-0.988c-2.329,-2.088 -2.524,-2.145 -6.527,-1.921c-3.109,0.174 -4.665,0.597 -6.305,1.712c-2.45,1.666 -4.118,4.631 -4.118,7.321c0,1.517 0.242,1.802 1.531,1.802c1.303,0 1.53,-0.28 1.53,-1.884c0,-1.332 0.61,-2.489 2.083,-3.949c1.846,-1.832 2.451,-2.066 5.34,-2.066c3.139,0 3.387,0.125 6.75,3.428l3.492,3.429l0.691,-2.544c0.787,-2.903 2.685,-4.007 5.787,-3.367c2.808,0.579 4.44,1.819 4.904,3.728c0.229,0.938 0.682,2.713 1.007,3.945l0.591,2.238l2.773,-1.217c3.452,-1.515 5.574,-1.126 8.064,1.477c3.566,3.727 3.176,6.937 -1.379,11.373c-1.511,1.471 -2.747,2.874 -2.747,3.116c0,0.242 0.62,0.632 1.378,0.868c0.757,0.235 2.521,1.205 3.919,2.155c4.811,3.269 6.874,10.078 5.041,16.632c-1.85,6.612 -10.617,9.421 -17.883,5.728l-2.339,-1.189l-3.75,3.368c-6.308,5.664 -12.464,7.858 -17.196,6.128l0,0Z" style="fill:#9db400;fill-rule:nonzero;stroke:#000;stroke-width:1.39px;"/><path id="path1059" d="M114.315,295.022c-1.684,-0.431 -4.789,-1.558 -6.9,-2.503c-3.689,-1.653 -3.827,-1.793 -3.523,-3.607c0.174,-1.037 1.15,-8.269 2.17,-16.071l1.854,-14.184l-2.159,-8.073c-1.187,-4.44 -2.159,-8.243 -2.159,-8.45c0,-0.207 0.658,-0.377 1.462,-0.377c2.094,0 7.175,-3.578 8.629,-6.076c1.143,-1.963 1.382,-2.085 3.099,-1.582c1.615,0.473 2.004,1.034 2.952,4.254c0.6,2.039 1.793,4.905 2.651,6.368l1.559,2.66l3.228,-0.33c3.802,-0.39 6.228,-1.532 9.517,-4.48c2.194,-1.967 2.748,-2.162 6.357,-2.244l3.953,-0.089l0.417,3.007c0.229,1.654 0.768,3.978 1.197,5.165l0.781,2.158l-4.288,4.332l-4.289,4.333l-0.088,16.311l-0.088,16.312l-5.205,1.781c-6.123,2.096 -15.859,2.734 -21.127,1.385l0,0Z" style="fill:#e7e78c;fill-rule:nonzero;stroke:#000;stroke-width:1.76px;"/><path id="path1061" d="M197.378,66.622c-10.321,-2.037 -9.034,-16.311 -31.861,-16.065c-31.644,6.129 -25.639,37.438 -26.072,52.243c-1.554,25.744 3.761,58.777 19.811,60.148c13.663,-0.741 14.655,-7.275 24.531,-6.447c12.569,2.609 11.824,14.267 22.967,14.828c26.735,0.217 35.326,-38.939 39.161,-48.191c7.05,-22.138 9.299,-46.591 -6.799,-59.52c-20.877,-11.273 -27.11,6.537 -41.738,3.004Z" style="fill:none;stroke:#000;stroke-width:2.4px;stroke-linecap:butt;"/><path id="path1066" d="M198.144,24.688c5.737,-0.206 10.805,1.872 11.31,4.636c0.506,2.764 -3.741,5.175 -9.477,5.38c-5.737,0.206 -10.805,-1.871 -11.311,-4.635c-0.505,-2.765 3.742,-5.176 9.478,-5.381Z" style="fill:none;stroke:#000;stroke-width:2.62px;"/><path id="path1068" d="M188.573,29.799c0.042,3.69 3.197,7.554 5.76,11.385l0.029,12.795l-7.552,3.832" style="fill:none;stroke:#000;stroke-width:2.4px;stroke-linecap:butt;"/><path id="path1070" d="M209.489,29.957c0.112,8.15 -1.155,16.82 -3.142,25.762l5.133,7.446" style="fill:none;stroke:#000;stroke-width:2.4px;stroke-linecap:butt;"/><path id="path1072" d="M196.855,65.131c-1.133,-0.312 -1.872,-0.684 -3.031,-1.524c-1.645,-1.193 -5.363,-5.118 -5.04,-5.321c0.107,-0.067 1.673,-0.867 3.479,-1.778c1.807,-0.911 3.303,-1.762 3.326,-1.89c0.023,-0.128 0.04,-3.297 0.037,-7.042l-0.004,-6.81l-2.01,-2.977c-1.105,-1.638 -1.967,-3.009 -1.915,-3.047c0.053,-0.038 0.971,0.19 2.041,0.508c4.178,1.238 9.869,0.895 13.492,-0.813c0.378,-0.178 0.745,-0.315 0.816,-0.304c0.477,0.073 -1.096,12.121 -2.529,19.358l-0.5,2.529l2.522,3.726c2.916,4.306 3,3.733 -0.733,4.982c-3.578,1.196 -6.626,1.32 -9.951,0.403l0,0Z" style="fill:#9db400;fill-rule:nonzero;stroke:#000;stroke-width:0.61px;"/><path id="path1074" d="M193.594,32.621c-1.502,-0.495 -3.126,-1.589 -3.449,-2.324c-0.798,-1.81 2.604,-3.77 7.328,-4.22c2.796,-0.267 6.577,0.309 8.497,1.293c2.477,1.271 2.791,2.516 0.991,3.937c-2.596,2.051 -9.169,2.697 -13.367,1.314l0,0Z" style="fill:#9db400;fill-rule:nonzero;stroke:#000;stroke-width:0.61px;"/><path id="path1078" d="M216.101,86.728c-2.098,19.633 -7.56,36.561 -17.633,49.781" style="fill:none;stroke:#000;stroke-width:1.77px;stroke-linecap:butt;"/><path id="path1078-8" d="M178.539,81.377c-4.245,19.283 -4.441,37.07 0.913,52.804" style="fill:none;stroke:#000;stroke-width:1.77px;stroke-linecap:butt;"/><path id="path1095" d="M203.064,169.204c-1.827,-0.775 -3.561,-2.24 -6.02,-5.09c-3.838,-4.446 -5.099,-5.57 -7.902,-7.046c-3.331,-1.752 -6.281,-2.265 -9.766,-1.697c-2.081,0.339 -3.592,0.905 -7.421,2.778c-5.92,2.895 -11.219,4.012 -14.596,3.075c-2.813,-0.78 -5.026,-2.555 -7.48,-6c-6.519,-9.152 -10.117,-28.736 -9.246,-50.325c0.08,-1.981 0.092,-6.104 0.026,-9.163c-0.3,-13.984 0.316,-19.93 2.738,-26.403c3.359,-8.979 10.648,-14.931 21.077,-17.21c3.006,-0.657 10.589,0.377 14.072,1.919c2.411,1.068 5.254,3.155 7.41,5.441c1.019,1.081 2.568,2.726 3.442,3.655c3.085,3.281 4.815,4.226 8.971,4.901c2.372,0.385 3.192,0.433 4.61,0.267c2.624,-0.306 5.735,-1.356 10.521,-3.55c4.225,-1.937 7.213,-3.003 9.433,-3.365c4.145,-0.675 8.882,0.179 13.768,2.483c2.387,1.125 4.319,2.957 6.886,6.531c3.609,5.023 5.449,10.274 6.119,17.467c0.521,5.597 0.275,10.67 -0.857,17.61c-1.117,6.852 -2.671,12.958 -4.957,19.472c-0.539,1.538 -1.618,4.641 -2.397,6.896c-3.787,10.964 -6.988,17.801 -11.189,23.905c-6.315,9.173 -13.959,13.992 -22.589,14.242c-1.928,0.056 -3.135,-0.15 -4.653,-0.793l0,0Zm-22.774,-35.26c0.041,-0.019 -0.176,-0.834 -0.479,-1.81c-2.239,-7.208 -3.465,-15.97 -3.427,-24.5c0.028,-6.23 0.28,-8.832 1.712,-17.681l1.368,-8.464l-0.954,-0.155l-0.953,-0.156l-0.842,4.221c-1.592,7.977 -2.494,18.197 -2.263,25.651c0.224,7.24 1.526,15.36 3.466,21.615l0.618,1.992l0.84,-0.339c0.462,-0.186 0.873,-0.354 0.912,-0.374l0.002,0Zm20.035,1.735c6.296,-8.756 10.882,-19.278 13.889,-31.86c0.752,-3.148 2.937,-16.121 2.816,-16.715c-0.052,-0.25 -0.331,-0.399 -0.927,-0.496l-0.854,-0.139l-1.336,8.149c-1.032,6.284 -1.543,8.897 -2.238,11.414c-3.026,10.972 -6.531,18.943 -11.721,26.655c-1.066,1.585 -2.001,2.979 -2.076,3.098c-0.124,0.195 0.868,1.277 1.234,1.345c0.083,0.015 0.63,-0.637 1.214,-1.451l-0.001,0Z" style="fill:#f04;fill-rule:nonzero;stroke:#000;stroke-width:0.45px;"/></g></svg>